G04 #@! TF.GenerationSoftware,KiCad,Pcbnew,8.0.6*
G04 #@! TF.CreationDate,2025-02-05T09:38:25+03:00*
G04 #@! TF.ProjectId,RotorController,526f746f-7243-46f6-9e74-726f6c6c6572,rev?*
G04 #@! TF.SameCoordinates,Original*
G04 #@! TF.FileFunction,Profile,NP*
%FSLAX46Y46*%
G04 Gerber Fmt 4.6, Leading zero omitted, Abs format (unit mm)*
G04 Created by KiCad (PCBNEW 8.0.6) date 2025-02-05 09:38:25*
%MOMM*%
%LPD*%
G01*
G04 APERTURE LIST*
G04 #@! TA.AperFunction,Profile*
%ADD10C,0.100000*%
G04 #@! TD*
G04 APERTURE END LIST*
D10*
X75060000Y-157000000D02*
G75*
G02*
X70030080Y-152140282I0J5032900D01*
G01*
X111849961Y-60273807D02*
G75*
G02*
X108459908Y-56859718I24139J3414107D01*
G01*
X108460000Y-144693846D02*
G75*
G02*
X113500039Y-139653810I5040040J-4D01*
G01*
X103430000Y-52000000D02*
G75*
G02*
X108459920Y-56859718I0J-5032900D01*
G01*
X69959961Y-64280000D02*
G75*
G02*
X64919922Y-69320061I-5040061J0D01*
G01*
X69959961Y-57040039D02*
X69959961Y-64280000D01*
X61601551Y-72708574D02*
G75*
G02*
X64919924Y-69320101I3413849J-24126D01*
G01*
X64990000Y-148726193D02*
G75*
G02*
X61599922Y-145312104I24100J3414093D01*
G01*
X113500000Y-60273807D02*
G75*
G02*
X116809994Y-63700000I-117100J-3425093D01*
G01*
X108460039Y-151959961D02*
X108460000Y-144693846D01*
X116810000Y-136290000D02*
G75*
G02*
X113500039Y-139653727I-3310100J-53200D01*
G01*
X75000000Y-52000000D02*
X103430000Y-52000000D01*
X61601551Y-72708574D02*
X61599952Y-145312104D01*
X116810000Y-63700000D02*
X116810000Y-136290000D01*
X75060000Y-157000000D02*
X103420000Y-157000000D01*
X69959961Y-57040039D02*
G75*
G02*
X75000000Y-52000001I5040039J-1D01*
G01*
X64990000Y-148726193D02*
X66640039Y-148726193D01*
X66640039Y-148726193D02*
G75*
G02*
X70030092Y-152140282I-24139J-3414107D01*
G01*
X108460039Y-151959961D02*
G75*
G02*
X103420000Y-156999999I-5040039J1D01*
G01*
X113500000Y-60273807D02*
X111849961Y-60273807D01*
M02*
