G04 #@! TF.GenerationSoftware,KiCad,Pcbnew,8.0.6*
G04 #@! TF.CreationDate,2025-02-05T09:38:25+03:00*
G04 #@! TF.ProjectId,RotorController,526f746f-7243-46f6-9e74-726f6c6c6572,rev?*
G04 #@! TF.SameCoordinates,Original*
G04 #@! TF.FileFunction,Copper,L2,Bot*
G04 #@! TF.FilePolarity,Positive*
%FSLAX46Y46*%
G04 Gerber Fmt 4.6, Leading zero omitted, Abs format (unit mm)*
G04 Created by KiCad (PCBNEW 8.0.6) date 2025-02-05 09:38:25*
%MOMM*%
%LPD*%
G01*
G04 APERTURE LIST*
G04 #@! TA.AperFunction,ComponentPad*
%ADD10C,1.600000*%
G04 #@! TD*
G04 #@! TA.AperFunction,ComponentPad*
%ADD11O,1.600000X1.600000*%
G04 #@! TD*
G04 #@! TA.AperFunction,ComponentPad*
%ADD12C,1.500000*%
G04 #@! TD*
G04 #@! TA.AperFunction,ComponentPad*
%ADD13R,1.500000X1.500000*%
G04 #@! TD*
G04 #@! TA.AperFunction,ComponentPad*
%ADD14C,2.340000*%
G04 #@! TD*
G04 #@! TA.AperFunction,ComponentPad*
%ADD15O,2.600000X1.800000*%
G04 #@! TD*
G04 #@! TA.AperFunction,ComponentPad*
%ADD16R,2.600000X1.800000*%
G04 #@! TD*
G04 #@! TA.AperFunction,ComponentPad*
%ADD17C,3.000000*%
G04 #@! TD*
G04 #@! TA.AperFunction,ComponentPad*
%ADD18C,1.750000*%
G04 #@! TD*
G04 #@! TA.AperFunction,ComponentPad*
%ADD19C,2.100000*%
G04 #@! TD*
G04 #@! TA.AperFunction,ComponentPad*
%ADD20R,1.600000X1.600000*%
G04 #@! TD*
G04 #@! TA.AperFunction,ComponentPad*
%ADD21C,2.300000*%
G04 #@! TD*
G04 #@! TA.AperFunction,ViaPad*
%ADD22C,0.800000*%
G04 #@! TD*
G04 #@! TA.AperFunction,Conductor*
%ADD23C,0.500000*%
G04 #@! TD*
G04 APERTURE END LIST*
D10*
X102810000Y-74320000D03*
X97810000Y-74320000D03*
D11*
X98296666Y-86210000D03*
D10*
X98296666Y-93830000D03*
D12*
X98196666Y-77950000D03*
X98196666Y-80490000D03*
D13*
X98196666Y-83030000D03*
D11*
X74450000Y-88850000D03*
D10*
X74450000Y-81230000D03*
D14*
X112470000Y-136545000D03*
X102470000Y-134045000D03*
X112470000Y-131545000D03*
D11*
X86650000Y-86210000D03*
D10*
X86650000Y-93830000D03*
D11*
X66440000Y-85040000D03*
D10*
X66440000Y-92660000D03*
X95440000Y-74320000D03*
X90440000Y-74320000D03*
D15*
X73490000Y-98810000D03*
X73490000Y-101350000D03*
X73490000Y-103890000D03*
X73490000Y-106430000D03*
X73490000Y-108970000D03*
X73490000Y-111510000D03*
X73490000Y-114050000D03*
X73490000Y-116590000D03*
X73490000Y-119130000D03*
X73490000Y-121670000D03*
X73490000Y-124210000D03*
X73490000Y-126750000D03*
X73490000Y-129290000D03*
X73490000Y-131830000D03*
X73490000Y-134370000D03*
D16*
X73490000Y-136910000D03*
D17*
X73490000Y-142409100D03*
X104490700Y-67410520D03*
X73490000Y-67410000D03*
X104490700Y-142409100D03*
D12*
X104000000Y-77950000D03*
X104000000Y-80490000D03*
D13*
X104000000Y-83030000D03*
D18*
X114097500Y-98381666D03*
X114097500Y-93881666D03*
D19*
X111607500Y-92631666D03*
X111607500Y-99641666D03*
D10*
X71430000Y-81640000D03*
X66430000Y-81640000D03*
X110430000Y-74320000D03*
X105430000Y-74320000D03*
X87930000Y-74320000D03*
X82930000Y-74320000D03*
X69330000Y-78000000D03*
X74330000Y-78000000D03*
D18*
X114097500Y-111738332D03*
X114097500Y-107238332D03*
D19*
X111607500Y-112998332D03*
X111607500Y-105988332D03*
D11*
X96810000Y-116000000D03*
X96810000Y-118540000D03*
X96810000Y-121080000D03*
X96810000Y-123620000D03*
X96810000Y-126160000D03*
X96810000Y-128700000D03*
X96810000Y-131240000D03*
X96810000Y-133780000D03*
X96810000Y-136320000D03*
X96810000Y-138860000D03*
X96810000Y-141400000D03*
X96810000Y-143940000D03*
X96810000Y-146480000D03*
X96810000Y-149020000D03*
X96810000Y-151560000D03*
X81570000Y-151560000D03*
X81570000Y-149020000D03*
X81570000Y-146480000D03*
X81570000Y-143940000D03*
X81570000Y-141400000D03*
X81570000Y-138860000D03*
X81570000Y-136320000D03*
X81570000Y-133780000D03*
X81570000Y-131240000D03*
X81570000Y-128700000D03*
X81570000Y-126160000D03*
X81570000Y-123620000D03*
X81570000Y-121080000D03*
X81570000Y-118540000D03*
D20*
X81570000Y-116000000D03*
D10*
X82520000Y-78000000D03*
X77520000Y-78000000D03*
D13*
X85645190Y-60125000D03*
D12*
X86661190Y-61905000D03*
X87677190Y-60125000D03*
X88693190Y-61905000D03*
X89709190Y-60125000D03*
X90725190Y-61905000D03*
X91741190Y-60125000D03*
X92757190Y-61905000D03*
D21*
X97335190Y-61015000D03*
X81075190Y-61015000D03*
D11*
X78430000Y-81230000D03*
D10*
X78430000Y-88850000D03*
D11*
X104120000Y-86210000D03*
D10*
X104120000Y-93830000D03*
D18*
X114097500Y-85025000D03*
X114097500Y-80525000D03*
D19*
X111607500Y-86285000D03*
X111607500Y-79275000D03*
D11*
X92473333Y-86210000D03*
D10*
X92473333Y-93830000D03*
D12*
X92393333Y-77950000D03*
X92393333Y-80490000D03*
D13*
X92393333Y-83030000D03*
D12*
X86590000Y-77950000D03*
X86590000Y-80490000D03*
D13*
X86590000Y-83030000D03*
D18*
X114097500Y-125095000D03*
X114097500Y-120595000D03*
D19*
X111607500Y-119345000D03*
X111607500Y-126355000D03*
D22*
X106310000Y-113430000D03*
X104890000Y-133070000D03*
X104210000Y-97260000D03*
X72330000Y-70690000D03*
X82870000Y-88430000D03*
X89150000Y-133010000D03*
X79840000Y-74220000D03*
X88100000Y-109560000D03*
X71720000Y-78160000D03*
X86670000Y-152170000D03*
X106180000Y-102020000D03*
X100330000Y-110510000D03*
X84290000Y-69800000D03*
X68940000Y-113090000D03*
X88710000Y-71300000D03*
X71990000Y-85440000D03*
X91290000Y-152240000D03*
X106240000Y-107790000D03*
X99960000Y-70960000D03*
X88780000Y-97600000D03*
X89020000Y-119210000D03*
X95300000Y-97530000D03*
X73860000Y-62860000D03*
X95170000Y-88360000D03*
X108220000Y-79790000D03*
X100400000Y-119010000D03*
X106240000Y-124720000D03*
X69140000Y-103920000D03*
X69000000Y-123360000D03*
X69210000Y-132870000D03*
X108280000Y-87070000D03*
X100740000Y-88020000D03*
X90270000Y-88360000D03*
X93880000Y-135730000D03*
X105630000Y-131040000D03*
X104600000Y-62880000D03*
X94080000Y-70890000D03*
X99580000Y-126350000D03*
X89020000Y-125190000D03*
X100260000Y-97530000D03*
X106310000Y-119210000D03*
X82170000Y-63570000D03*
D23*
X81570000Y-146480000D02*
X72160000Y-146480000D01*
X66440000Y-140760000D02*
X66440000Y-92660000D01*
X72160000Y-146480000D02*
X66440000Y-140760000D01*
X90780000Y-107310000D02*
X74450000Y-90980000D01*
X96810000Y-143940000D02*
X95300000Y-143940000D01*
X95300000Y-143940000D02*
X90780000Y-139420000D01*
X74450000Y-90980000D02*
X74450000Y-88850000D01*
X90780000Y-139420000D02*
X90780000Y-107310000D01*
X91650000Y-106230000D02*
X91650000Y-138650000D01*
X91650000Y-138650000D02*
X94400000Y-141400000D01*
X78430000Y-93010000D02*
X91650000Y-106230000D01*
X94400000Y-141400000D02*
X96810000Y-141400000D01*
X78430000Y-88850000D02*
X78430000Y-93010000D01*
X82710000Y-135030000D02*
X83770000Y-136090000D01*
X95510000Y-147770000D02*
X97287767Y-147770000D01*
X83770000Y-136090000D02*
X83830000Y-136090000D01*
X101510000Y-123620000D02*
X96810000Y-123620000D01*
X74150000Y-135030000D02*
X82710000Y-135030000D01*
X112470000Y-131545000D02*
X109925000Y-131545000D01*
X99990000Y-145067767D02*
X99990000Y-141140000D01*
X109925000Y-131545000D02*
X109435000Y-131545000D01*
X73490000Y-134370000D02*
X74150000Y-135030000D01*
X83830000Y-136090000D02*
X95510000Y-147770000D01*
X109585000Y-131545000D02*
X109925000Y-131545000D01*
X99990000Y-141140000D02*
X109585000Y-131545000D01*
X109435000Y-131545000D02*
X101510000Y-123620000D01*
X97287767Y-147770000D02*
X99990000Y-145067767D01*
X86710000Y-135060000D02*
X86710000Y-137060000D01*
X99120000Y-143730000D02*
X99120000Y-140010000D01*
X74190000Y-132530000D02*
X84180000Y-132530000D01*
X73490000Y-131830000D02*
X74190000Y-132530000D01*
X94840000Y-145190000D02*
X97660000Y-145190000D01*
X86710000Y-137060000D02*
X94840000Y-145190000D01*
X84180000Y-132530000D02*
X86710000Y-135060000D01*
X97660000Y-145190000D02*
X99120000Y-143730000D01*
X102470000Y-136660000D02*
X102470000Y-134045000D01*
X99120000Y-140010000D02*
X102470000Y-136660000D01*
G04 #@! TA.AperFunction,Conductor*
G36*
X101211750Y-124398502D02*
G01*
X101232724Y-124415405D01*
X108348223Y-131530904D01*
X108382249Y-131593216D01*
X108377184Y-131664031D01*
X108348223Y-131709094D01*
X103443595Y-136613723D01*
X103381283Y-136647749D01*
X103310468Y-136642684D01*
X103253632Y-136600137D01*
X103228821Y-136533617D01*
X103228500Y-136524628D01*
X103228500Y-135621891D01*
X103248502Y-135553770D01*
X103299833Y-135508368D01*
X103311604Y-135502700D01*
X103519462Y-135360984D01*
X103703878Y-135189872D01*
X103860731Y-134993184D01*
X103986517Y-134775316D01*
X104078427Y-134541134D01*
X104134407Y-134295869D01*
X104153207Y-134045000D01*
X104134407Y-133794131D01*
X104083578Y-133571437D01*
X104078428Y-133548870D01*
X104078427Y-133548869D01*
X104078427Y-133548866D01*
X104032730Y-133432432D01*
X103986520Y-133314690D01*
X103986518Y-133314686D01*
X103860733Y-133096819D01*
X103785674Y-133002698D01*
X103703878Y-132900128D01*
X103703877Y-132900127D01*
X103703874Y-132900123D01*
X103519467Y-132729021D01*
X103519461Y-132729015D01*
X103392533Y-132642477D01*
X103311606Y-132587301D01*
X103084949Y-132478148D01*
X103084936Y-132478143D01*
X102844559Y-132403997D01*
X102844551Y-132403995D01*
X102844549Y-132403995D01*
X102595786Y-132366500D01*
X102344214Y-132366500D01*
X102095451Y-132403995D01*
X102095449Y-132403995D01*
X102095440Y-132403997D01*
X101855063Y-132478143D01*
X101855051Y-132478148D01*
X101628394Y-132587301D01*
X101628387Y-132587305D01*
X101420544Y-132729011D01*
X101420532Y-132729021D01*
X101236125Y-132900123D01*
X101079266Y-133096819D01*
X100953481Y-133314686D01*
X100953479Y-133314690D01*
X100861571Y-133548870D01*
X100842647Y-133631785D01*
X100805593Y-133794131D01*
X100786793Y-134045000D01*
X100805593Y-134295869D01*
X100810744Y-134318440D01*
X100861571Y-134541129D01*
X100953479Y-134775309D01*
X100953481Y-134775313D01*
X101079266Y-134993180D01*
X101236125Y-135189876D01*
X101369684Y-135313799D01*
X101420538Y-135360984D01*
X101458438Y-135386824D01*
X101628394Y-135502698D01*
X101628399Y-135502701D01*
X101640165Y-135508367D01*
X101692863Y-135555942D01*
X101711500Y-135621891D01*
X101711500Y-136293629D01*
X101691498Y-136361750D01*
X101674595Y-136382724D01*
X98530838Y-139526480D01*
X98530833Y-139526486D01*
X98477017Y-139607029D01*
X98447826Y-139650716D01*
X98429702Y-139694473D01*
X98394574Y-139779280D01*
X98394570Y-139779290D01*
X98390649Y-139788752D01*
X98361500Y-139935290D01*
X98361500Y-141234501D01*
X98341498Y-141302622D01*
X98287842Y-141349115D01*
X98217568Y-141359219D01*
X98152988Y-141329725D01*
X98114604Y-141269999D01*
X98109979Y-141245488D01*
X98103543Y-141171913D01*
X98044284Y-140950757D01*
X97947523Y-140743251D01*
X97816198Y-140555700D01*
X97654300Y-140393802D01*
X97466749Y-140262477D01*
X97427543Y-140244195D01*
X97374258Y-140197279D01*
X97354796Y-140129002D01*
X97375337Y-140061042D01*
X97427543Y-140015805D01*
X97429997Y-140014660D01*
X97466749Y-139997523D01*
X97654300Y-139866198D01*
X97816198Y-139704300D01*
X97947523Y-139516749D01*
X98044284Y-139309243D01*
X98103543Y-139088087D01*
X98123498Y-138860000D01*
X98103543Y-138631913D01*
X98044284Y-138410757D01*
X97947523Y-138203251D01*
X97816198Y-138015700D01*
X97654300Y-137853802D01*
X97466749Y-137722477D01*
X97427543Y-137704195D01*
X97374258Y-137657279D01*
X97354796Y-137589002D01*
X97375337Y-137521042D01*
X97427543Y-137475805D01*
X97441898Y-137469111D01*
X97466749Y-137457523D01*
X97654300Y-137326198D01*
X97816198Y-137164300D01*
X97947523Y-136976749D01*
X98044284Y-136769243D01*
X98103543Y-136548087D01*
X98123498Y-136320000D01*
X98103543Y-136091913D01*
X98044284Y-135870757D01*
X97947523Y-135663251D01*
X97816198Y-135475700D01*
X97654300Y-135313802D01*
X97616845Y-135287576D01*
X97480065Y-135191801D01*
X97466749Y-135182477D01*
X97427543Y-135164195D01*
X97374258Y-135117279D01*
X97354796Y-135049002D01*
X97375337Y-134981042D01*
X97427543Y-134935805D01*
X97429997Y-134934660D01*
X97466749Y-134917523D01*
X97654300Y-134786198D01*
X97816198Y-134624300D01*
X97947523Y-134436749D01*
X98044284Y-134229243D01*
X98103543Y-134008087D01*
X98123498Y-133780000D01*
X98103543Y-133551913D01*
X98044284Y-133330757D01*
X97947523Y-133123251D01*
X97816198Y-132935700D01*
X97654300Y-132773802D01*
X97616845Y-132747576D01*
X97590332Y-132729011D01*
X97466749Y-132642477D01*
X97427543Y-132624195D01*
X97374258Y-132577279D01*
X97354796Y-132509002D01*
X97375337Y-132441042D01*
X97427543Y-132395805D01*
X97429997Y-132394660D01*
X97466749Y-132377523D01*
X97654300Y-132246198D01*
X97816198Y-132084300D01*
X97947523Y-131896749D01*
X98044284Y-131689243D01*
X98103543Y-131468087D01*
X98123498Y-131240000D01*
X98103543Y-131011913D01*
X98044284Y-130790757D01*
X97947523Y-130583251D01*
X97816198Y-130395700D01*
X97654300Y-130233802D01*
X97647463Y-130229015D01*
X97591998Y-130190177D01*
X97466749Y-130102477D01*
X97427543Y-130084195D01*
X97374258Y-130037279D01*
X97354796Y-129969002D01*
X97375337Y-129901042D01*
X97427543Y-129855805D01*
X97429997Y-129854660D01*
X97466749Y-129837523D01*
X97654300Y-129706198D01*
X97816198Y-129544300D01*
X97947523Y-129356749D01*
X98044284Y-129149243D01*
X98103543Y-128928087D01*
X98123498Y-128700000D01*
X98103543Y-128471913D01*
X98044284Y-128250757D01*
X97947523Y-128043251D01*
X97816198Y-127855700D01*
X97654300Y-127693802D01*
X97466749Y-127562477D01*
X97427543Y-127544195D01*
X97374258Y-127497279D01*
X97354796Y-127429002D01*
X97375337Y-127361042D01*
X97427543Y-127315805D01*
X97441898Y-127309111D01*
X97466749Y-127297523D01*
X97654300Y-127166198D01*
X97816198Y-127004300D01*
X97947523Y-126816749D01*
X98044284Y-126609243D01*
X98103543Y-126388087D01*
X98123498Y-126160000D01*
X98103543Y-125931913D01*
X98044284Y-125710757D01*
X97947523Y-125503251D01*
X97816198Y-125315700D01*
X97654300Y-125153802D01*
X97616845Y-125127576D01*
X97519470Y-125059393D01*
X97466749Y-125022477D01*
X97427543Y-125004195D01*
X97374258Y-124957279D01*
X97354796Y-124889002D01*
X97375337Y-124821042D01*
X97427543Y-124775805D01*
X97429997Y-124774660D01*
X97466749Y-124757523D01*
X97654300Y-124626198D01*
X97816198Y-124464300D01*
X97827618Y-124447990D01*
X97838656Y-124432228D01*
X97894113Y-124387900D01*
X97941868Y-124378500D01*
X101143629Y-124378500D01*
X101211750Y-124398502D01*
G37*
G04 #@! TD.AperFunction*
G04 #@! TA.AperFunction,Conductor*
G36*
X103430719Y-52000008D02*
G01*
X103652472Y-52002474D01*
X103662426Y-52002979D01*
X104104876Y-52043074D01*
X104116145Y-52044612D01*
X104552464Y-52124347D01*
X104563536Y-52126892D01*
X104990899Y-52245687D01*
X105001680Y-52249215D01*
X105416574Y-52406094D01*
X105427019Y-52410593D01*
X105826043Y-52604268D01*
X105836042Y-52609692D01*
X106215952Y-52838585D01*
X106225428Y-52844894D01*
X106583131Y-53107143D01*
X106591998Y-53114281D01*
X106924579Y-53407749D01*
X106932765Y-53415659D01*
X107237492Y-53737933D01*
X107244931Y-53746549D01*
X107519325Y-54095006D01*
X107525957Y-54104258D01*
X107767797Y-54476080D01*
X107773566Y-54485894D01*
X107980850Y-54878005D01*
X107985710Y-54888299D01*
X108156761Y-55297524D01*
X108160672Y-55308214D01*
X108294091Y-55731201D01*
X108297022Y-55742201D01*
X108391724Y-56175521D01*
X108393649Y-56186740D01*
X108448941Y-56627507D01*
X108449791Y-56637458D01*
X108459822Y-56857736D01*
X108459940Y-56861725D01*
X108461588Y-56980847D01*
X108462551Y-57050442D01*
X108481382Y-57218330D01*
X108505071Y-57429519D01*
X108505072Y-57429522D01*
X108512469Y-57462080D01*
X108589576Y-57801481D01*
X108715016Y-58161713D01*
X108879827Y-58505718D01*
X109081954Y-58829210D01*
X109081956Y-58829212D01*
X109081957Y-58829214D01*
X109303619Y-59108902D01*
X109318879Y-59128156D01*
X109587648Y-59398831D01*
X109884913Y-59637862D01*
X110206969Y-59842270D01*
X110533085Y-60001351D01*
X110549805Y-60009508D01*
X110909129Y-60137485D01*
X110909130Y-60137485D01*
X110909138Y-60137488D01*
X111280500Y-60224620D01*
X111659261Y-60269816D01*
X111684134Y-60270336D01*
X111849941Y-60273807D01*
X111849961Y-60273807D01*
X113496995Y-60273807D01*
X113503011Y-60273950D01*
X113681904Y-60282504D01*
X113693961Y-60283662D01*
X114053560Y-60335791D01*
X114067094Y-60338518D01*
X114417989Y-60429514D01*
X114431152Y-60433711D01*
X114769954Y-60562601D01*
X114782565Y-60568208D01*
X115105223Y-60733450D01*
X115117145Y-60740406D01*
X115289062Y-60853800D01*
X115419744Y-60939996D01*
X115430850Y-60948230D01*
X115709756Y-61179767D01*
X115719892Y-61189168D01*
X115801454Y-61273594D01*
X115971742Y-61449860D01*
X115980788Y-61460315D01*
X116202565Y-61747036D01*
X116210410Y-61758418D01*
X116299995Y-61904999D01*
X116399440Y-62067712D01*
X116405992Y-62079887D01*
X116559996Y-62408031D01*
X116565174Y-62420850D01*
X116682298Y-62763883D01*
X116686041Y-62777192D01*
X116764878Y-63131000D01*
X116767140Y-63144640D01*
X116806832Y-63505809D01*
X116807575Y-63517895D01*
X116809989Y-63699172D01*
X116810000Y-63700850D01*
X116810000Y-136289866D01*
X116810387Y-136471424D01*
X116809791Y-136483930D01*
X116774642Y-136844127D01*
X116772454Y-136858232D01*
X116696972Y-137211298D01*
X116693202Y-137225065D01*
X116578273Y-137567326D01*
X116572970Y-137580578D01*
X116420070Y-137907639D01*
X116413302Y-137920207D01*
X116224389Y-138227882D01*
X116216243Y-138239603D01*
X115993749Y-138523929D01*
X115984330Y-138534654D01*
X115731100Y-138791998D01*
X115720529Y-138801588D01*
X115439821Y-139028637D01*
X115428232Y-139036971D01*
X115123643Y-139230815D01*
X115111187Y-139237784D01*
X114786628Y-139395936D01*
X114773462Y-139401452D01*
X114433100Y-139521880D01*
X114419396Y-139525871D01*
X114067600Y-139607029D01*
X114053532Y-139609445D01*
X113693907Y-139650397D01*
X113681466Y-139651193D01*
X113500276Y-139653803D01*
X113499796Y-139653809D01*
X113305257Y-139655869D01*
X113280088Y-139656136D01*
X113280083Y-139656136D01*
X112914896Y-139688083D01*
X112841858Y-139694473D01*
X112582674Y-139740172D01*
X112408643Y-139770858D01*
X112408641Y-139770858D01*
X112408638Y-139770859D01*
X112341859Y-139788752D01*
X111983708Y-139884716D01*
X111570355Y-140035163D01*
X111171655Y-140221079D01*
X110790711Y-140441015D01*
X110790685Y-140441031D01*
X110430350Y-140693340D01*
X110430337Y-140693349D01*
X110093360Y-140976107D01*
X110093351Y-140976117D01*
X109782313Y-141287154D01*
X109499534Y-141624157D01*
X109247227Y-141984491D01*
X109247211Y-141984517D01*
X109027273Y-142365465D01*
X108841368Y-142764143D01*
X108690910Y-143177529D01*
X108577054Y-143602455D01*
X108500672Y-144035665D01*
X108486595Y-144196585D01*
X108462335Y-144473896D01*
X108460000Y-144693856D01*
X108460038Y-151959228D01*
X108460031Y-151960602D01*
X108457693Y-152175095D01*
X108457221Y-152184704D01*
X108419780Y-152612653D01*
X108418345Y-152623551D01*
X108343869Y-153045927D01*
X108341490Y-153056659D01*
X108230481Y-153470946D01*
X108227175Y-153481428D01*
X108080491Y-153884441D01*
X108076285Y-153894597D01*
X107895021Y-154283318D01*
X107889945Y-154293068D01*
X107675502Y-154664495D01*
X107669596Y-154673766D01*
X107423591Y-155025096D01*
X107416900Y-155033816D01*
X107141211Y-155362369D01*
X107133785Y-155370473D01*
X106830514Y-155673745D01*
X106822409Y-155681172D01*
X106493856Y-155956861D01*
X106485136Y-155963552D01*
X106133805Y-156209557D01*
X106124534Y-156215463D01*
X105753107Y-156429905D01*
X105743357Y-156434981D01*
X105354640Y-156616243D01*
X105344485Y-156620449D01*
X104941465Y-156767137D01*
X104930981Y-156770443D01*
X104516697Y-156881450D01*
X104505966Y-156883829D01*
X104083590Y-156958305D01*
X104072692Y-156959740D01*
X103644742Y-156997181D01*
X103635135Y-156997653D01*
X103426236Y-156999931D01*
X103420640Y-156999993D01*
X103419268Y-157000000D01*
X75060682Y-157000000D01*
X75059281Y-156999992D01*
X75056329Y-156999959D01*
X74837535Y-156997525D01*
X74827565Y-156997019D01*
X74385128Y-156956925D01*
X74373849Y-156955386D01*
X73937546Y-156875654D01*
X73926452Y-156873104D01*
X73499115Y-156754317D01*
X73488305Y-156750779D01*
X73073434Y-156593909D01*
X73062980Y-156589406D01*
X72663956Y-156395731D01*
X72653950Y-156390303D01*
X72274047Y-156161414D01*
X72264571Y-156155105D01*
X71906868Y-155892856D01*
X71898001Y-155885718D01*
X71565420Y-155592250D01*
X71557234Y-155584340D01*
X71252507Y-155262066D01*
X71245068Y-155253450D01*
X70970674Y-154904993D01*
X70964042Y-154895741D01*
X70722197Y-154523911D01*
X70716438Y-154514114D01*
X70509147Y-154121990D01*
X70504289Y-154111700D01*
X70333238Y-153702475D01*
X70329327Y-153691785D01*
X70262976Y-153481428D01*
X70195904Y-153268786D01*
X70192980Y-153257811D01*
X70098275Y-152824478D01*
X70096350Y-152813259D01*
X70093969Y-152794282D01*
X70041055Y-152372468D01*
X70040210Y-152362565D01*
X70030176Y-152142249D01*
X70030059Y-152138274D01*
X70029824Y-152121281D01*
X70027449Y-151949558D01*
X70019502Y-151878709D01*
X73149500Y-151878709D01*
X73149500Y-152121290D01*
X73181160Y-152361782D01*
X73243944Y-152596095D01*
X73243945Y-152596097D01*
X73243946Y-152596100D01*
X73336776Y-152820212D01*
X73336777Y-152820213D01*
X73336782Y-152820224D01*
X73458061Y-153030285D01*
X73458063Y-153030288D01*
X73458064Y-153030289D01*
X73605735Y-153222738D01*
X73605739Y-153222742D01*
X73605744Y-153222748D01*
X73777251Y-153394255D01*
X73777256Y-153394259D01*
X73777262Y-153394265D01*
X73969711Y-153541936D01*
X73969714Y-153541938D01*
X74179775Y-153663217D01*
X74179779Y-153663218D01*
X74179788Y-153663224D01*
X74403900Y-153756054D01*
X74638211Y-153818838D01*
X74638215Y-153818838D01*
X74638217Y-153818839D01*
X74700202Y-153826999D01*
X74878712Y-153850500D01*
X74878719Y-153850500D01*
X75121281Y-153850500D01*
X75121288Y-153850500D01*
X75338637Y-153821885D01*
X75361782Y-153818839D01*
X75361782Y-153818838D01*
X75361789Y-153818838D01*
X75596100Y-153756054D01*
X75820212Y-153663224D01*
X76030289Y-153541936D01*
X76222738Y-153394265D01*
X76394265Y-153222738D01*
X76541936Y-153030289D01*
X76663224Y-152820212D01*
X76756054Y-152596100D01*
X76818838Y-152361789D01*
X76850500Y-152121288D01*
X76850500Y-151878712D01*
X76818838Y-151638211D01*
X76756054Y-151403900D01*
X76663224Y-151179788D01*
X76663218Y-151179779D01*
X76663217Y-151179775D01*
X76541938Y-150969714D01*
X76541936Y-150969711D01*
X76394265Y-150777262D01*
X76394259Y-150777256D01*
X76394255Y-150777251D01*
X76222748Y-150605744D01*
X76222742Y-150605739D01*
X76222738Y-150605735D01*
X76030289Y-150458064D01*
X76030288Y-150458063D01*
X76030285Y-150458061D01*
X75820224Y-150336782D01*
X75820216Y-150336778D01*
X75820212Y-150336776D01*
X75596100Y-150243946D01*
X75596097Y-150243945D01*
X75596095Y-150243944D01*
X75361782Y-150181160D01*
X75121290Y-150149500D01*
X75121288Y-150149500D01*
X74878712Y-150149500D01*
X74878709Y-150149500D01*
X74638217Y-150181160D01*
X74403904Y-150243944D01*
X74403900Y-150243946D01*
X74206490Y-150325716D01*
X74179786Y-150336777D01*
X74179775Y-150336782D01*
X73969714Y-150458061D01*
X73777262Y-150605735D01*
X73777251Y-150605744D01*
X73605744Y-150777251D01*
X73605735Y-150777262D01*
X73458061Y-150969714D01*
X73336782Y-151179775D01*
X73336777Y-151179786D01*
X73336776Y-151179788D01*
X73273764Y-151331913D01*
X73243946Y-151403900D01*
X73243944Y-151403904D01*
X73181160Y-151638217D01*
X73149500Y-151878709D01*
X70019502Y-151878709D01*
X69984930Y-151570488D01*
X69900424Y-151198519D01*
X69774984Y-150838287D01*
X69610173Y-150494282D01*
X69408046Y-150170790D01*
X69171121Y-149871844D01*
X68902352Y-149601169D01*
X68605087Y-149362138D01*
X68283031Y-149157730D01*
X68132510Y-149084304D01*
X67940194Y-148990491D01*
X67580870Y-148862514D01*
X67580863Y-148862512D01*
X67580862Y-148862512D01*
X67467017Y-148835800D01*
X67209498Y-148775379D01*
X67209499Y-148775379D01*
X66830746Y-148730184D01*
X66830735Y-148730183D01*
X66640059Y-148726193D01*
X66640039Y-148726193D01*
X64991338Y-148726193D01*
X64988708Y-148726166D01*
X64983007Y-148726046D01*
X64805466Y-148722338D01*
X64793170Y-148721478D01*
X64427524Y-148677850D01*
X64413672Y-148675406D01*
X64056029Y-148591497D01*
X64042535Y-148587525D01*
X63696461Y-148464270D01*
X63683494Y-148458818D01*
X63353321Y-148297759D01*
X63341043Y-148290896D01*
X63030879Y-148094039D01*
X63019442Y-148085850D01*
X62733157Y-147855650D01*
X62722704Y-147846238D01*
X62463853Y-147585554D01*
X62454514Y-147575034D01*
X62255795Y-147324296D01*
X62226337Y-147287127D01*
X62218237Y-147275644D01*
X62023562Y-146964080D01*
X62016792Y-146951763D01*
X62006004Y-146929246D01*
X61900048Y-146708086D01*
X61858066Y-146620457D01*
X61852706Y-146607453D01*
X61817379Y-146506002D01*
X61731895Y-146260515D01*
X61728022Y-146247005D01*
X61709073Y-146163595D01*
X61646634Y-145888759D01*
X61644293Y-145874917D01*
X61603246Y-145508957D01*
X61602474Y-145496645D01*
X61599964Y-145312983D01*
X61599952Y-145311258D01*
X61601110Y-92660000D01*
X65126502Y-92660000D01*
X65146457Y-92888087D01*
X65160164Y-92939243D01*
X65205715Y-93109240D01*
X65205717Y-93109246D01*
X65302477Y-93316749D01*
X65420685Y-93485568D01*
X65433802Y-93504300D01*
X65595700Y-93666198D01*
X65627770Y-93688653D01*
X65672099Y-93744110D01*
X65681500Y-93791867D01*
X65681500Y-140834707D01*
X65709627Y-140976107D01*
X65710649Y-140981247D01*
X65767826Y-141119284D01*
X65850834Y-141243515D01*
X71570835Y-146963516D01*
X71676484Y-147069165D01*
X71800716Y-147152174D01*
X71938754Y-147209351D01*
X72085294Y-147238500D01*
X72085295Y-147238500D01*
X72234705Y-147238500D01*
X80438132Y-147238500D01*
X80506253Y-147258502D01*
X80541344Y-147292228D01*
X80563797Y-147324293D01*
X80563802Y-147324300D01*
X80725700Y-147486198D01*
X80913251Y-147617523D01*
X80948359Y-147633894D01*
X80952457Y-147635805D01*
X81005742Y-147682722D01*
X81025203Y-147750999D01*
X81004661Y-147818959D01*
X80952457Y-147864195D01*
X80913250Y-147882477D01*
X80725703Y-148013799D01*
X80725697Y-148013804D01*
X80563804Y-148175697D01*
X80563799Y-148175703D01*
X80432477Y-148363250D01*
X80335717Y-148570753D01*
X80335715Y-148570759D01*
X80292997Y-148730184D01*
X80276457Y-148791913D01*
X80256502Y-149020000D01*
X80276457Y-149248087D01*
X80335716Y-149469243D01*
X80432477Y-149676749D01*
X80563802Y-149864300D01*
X80725700Y-150026198D01*
X80913251Y-150157523D01*
X80948359Y-150173894D01*
X80952457Y-150175805D01*
X81005742Y-150222722D01*
X81025203Y-150290999D01*
X81004661Y-150358959D01*
X80952457Y-150404195D01*
X80913250Y-150422477D01*
X80725703Y-150553799D01*
X80725697Y-150553804D01*
X80563804Y-150715697D01*
X80563799Y-150715703D01*
X80432477Y-150903250D01*
X80335717Y-151110753D01*
X80335715Y-151110759D01*
X80276457Y-151331913D01*
X80256502Y-151560000D01*
X80276457Y-151788086D01*
X80335715Y-152009240D01*
X80335717Y-152009246D01*
X80417534Y-152184704D01*
X80432477Y-152216749D01*
X80563802Y-152404300D01*
X80725700Y-152566198D01*
X80913251Y-152697523D01*
X81120757Y-152794284D01*
X81341913Y-152853543D01*
X81570000Y-152873498D01*
X81798087Y-152853543D01*
X82019243Y-152794284D01*
X82226749Y-152697523D01*
X82414300Y-152566198D01*
X82576198Y-152404300D01*
X82707523Y-152216749D01*
X82804284Y-152009243D01*
X82863543Y-151788087D01*
X82883498Y-151560000D01*
X82863543Y-151331913D01*
X82804284Y-151110757D01*
X82707523Y-150903251D01*
X82576198Y-150715700D01*
X82414300Y-150553802D01*
X82226749Y-150422477D01*
X82187543Y-150404195D01*
X82134258Y-150357279D01*
X82114796Y-150289002D01*
X82135337Y-150221042D01*
X82187543Y-150175805D01*
X82189997Y-150174660D01*
X82226749Y-150157523D01*
X82414300Y-150026198D01*
X82576198Y-149864300D01*
X82707523Y-149676749D01*
X82804284Y-149469243D01*
X82863543Y-149248087D01*
X82883498Y-149020000D01*
X82863543Y-148791913D01*
X82804284Y-148570757D01*
X82707523Y-148363251D01*
X82576198Y-148175700D01*
X82414300Y-148013802D01*
X82226749Y-147882477D01*
X82187543Y-147864195D01*
X82134258Y-147817279D01*
X82114796Y-147749002D01*
X82135337Y-147681042D01*
X82187543Y-147635805D01*
X82189997Y-147634660D01*
X82226749Y-147617523D01*
X82414300Y-147486198D01*
X82576198Y-147324300D01*
X82707523Y-147136749D01*
X82804284Y-146929243D01*
X82863543Y-146708087D01*
X82883498Y-146480000D01*
X82863543Y-146251913D01*
X82804284Y-146030757D01*
X82707523Y-145823251D01*
X82576198Y-145635700D01*
X82414300Y-145473802D01*
X82226749Y-145342477D01*
X82187543Y-145324195D01*
X82134258Y-145277279D01*
X82114796Y-145209002D01*
X82135337Y-145141042D01*
X82187543Y-145095805D01*
X82189997Y-145094660D01*
X82226749Y-145077523D01*
X82414300Y-144946198D01*
X82576198Y-144784300D01*
X82707523Y-144596749D01*
X82804284Y-144389243D01*
X82863543Y-144168087D01*
X82883498Y-143940000D01*
X82863543Y-143711913D01*
X82804284Y-143490757D01*
X82707523Y-143283251D01*
X82576198Y-143095700D01*
X82414300Y-142933802D01*
X82226749Y-142802477D01*
X82187543Y-142784195D01*
X82134258Y-142737279D01*
X82114796Y-142669002D01*
X82135337Y-142601042D01*
X82187543Y-142555805D01*
X82189997Y-142554660D01*
X82226749Y-142537523D01*
X82414300Y-142406198D01*
X82576198Y-142244300D01*
X82707523Y-142056749D01*
X82804284Y-141849243D01*
X82863543Y-141628087D01*
X82883498Y-141400000D01*
X82863543Y-141171913D01*
X82804284Y-140950757D01*
X82707523Y-140743251D01*
X82576198Y-140555700D01*
X82414300Y-140393802D01*
X82226749Y-140262477D01*
X82187543Y-140244195D01*
X82134258Y-140197279D01*
X82114796Y-140129002D01*
X82135337Y-140061042D01*
X82187543Y-140015805D01*
X82189997Y-140014660D01*
X82226749Y-139997523D01*
X82414300Y-139866198D01*
X82576198Y-139704300D01*
X82707523Y-139516749D01*
X82804284Y-139309243D01*
X82863543Y-139088087D01*
X82883498Y-138860000D01*
X82863543Y-138631913D01*
X82804284Y-138410757D01*
X82707523Y-138203251D01*
X82576198Y-138015700D01*
X82414300Y-137853802D01*
X82226749Y-137722477D01*
X82187543Y-137704195D01*
X82134258Y-137657279D01*
X82114796Y-137589002D01*
X82135337Y-137521042D01*
X82187543Y-137475805D01*
X82201898Y-137469111D01*
X82226749Y-137457523D01*
X82414300Y-137326198D01*
X82576198Y-137164300D01*
X82707523Y-136976749D01*
X82804284Y-136769243D01*
X82863543Y-136548087D01*
X82863544Y-136548080D01*
X82864499Y-136542666D01*
X82865818Y-136542898D01*
X82889321Y-136482783D01*
X82946817Y-136441132D01*
X83017703Y-136437179D01*
X83078088Y-136470769D01*
X83180834Y-136573515D01*
X83180835Y-136573516D01*
X83286484Y-136679165D01*
X83410716Y-136762174D01*
X83419612Y-136765858D01*
X83460492Y-136793173D01*
X94920834Y-148253515D01*
X94920835Y-148253516D01*
X95026484Y-148359165D01*
X95150716Y-148442174D01*
X95231576Y-148475667D01*
X95288753Y-148499351D01*
X95362022Y-148513924D01*
X95362023Y-148513925D01*
X95385798Y-148518654D01*
X95435294Y-148528500D01*
X95435295Y-148528500D01*
X95435311Y-148528500D01*
X95435331Y-148528502D01*
X95435355Y-148528511D01*
X95441364Y-148529707D01*
X95441137Y-148530846D01*
X95501165Y-148555079D01*
X95542181Y-148613029D01*
X95545355Y-148683954D01*
X95544700Y-148686507D01*
X95516457Y-148791911D01*
X95516457Y-148791913D01*
X95496502Y-149020000D01*
X95516457Y-149248087D01*
X95575716Y-149469243D01*
X95672477Y-149676749D01*
X95803802Y-149864300D01*
X95965700Y-150026198D01*
X96153251Y-150157523D01*
X96188359Y-150173894D01*
X96192457Y-150175805D01*
X96245742Y-150222722D01*
X96265203Y-150290999D01*
X96244661Y-150358959D01*
X96192457Y-150404195D01*
X96153250Y-150422477D01*
X95965703Y-150553799D01*
X95965697Y-150553804D01*
X95803804Y-150715697D01*
X95803799Y-150715703D01*
X95672477Y-150903250D01*
X95575717Y-151110753D01*
X95575715Y-151110759D01*
X95516457Y-151331913D01*
X95496502Y-151560000D01*
X95516457Y-151788086D01*
X95575715Y-152009240D01*
X95575717Y-152009246D01*
X95657534Y-152184704D01*
X95672477Y-152216749D01*
X95803802Y-152404300D01*
X95965700Y-152566198D01*
X96153251Y-152697523D01*
X96360757Y-152794284D01*
X96581913Y-152853543D01*
X96810000Y-152873498D01*
X97038087Y-152853543D01*
X97259243Y-152794284D01*
X97466749Y-152697523D01*
X97654300Y-152566198D01*
X97816198Y-152404300D01*
X97947523Y-152216749D01*
X98044284Y-152009243D01*
X98079261Y-151878709D01*
X101549500Y-151878709D01*
X101549500Y-152121290D01*
X101581160Y-152361782D01*
X101643944Y-152596095D01*
X101643945Y-152596097D01*
X101643946Y-152596100D01*
X101736776Y-152820212D01*
X101736777Y-152820213D01*
X101736782Y-152820224D01*
X101858061Y-153030285D01*
X101858063Y-153030288D01*
X101858064Y-153030289D01*
X102005735Y-153222738D01*
X102005739Y-153222742D01*
X102005744Y-153222748D01*
X102177251Y-153394255D01*
X102177256Y-153394259D01*
X102177262Y-153394265D01*
X102369711Y-153541936D01*
X102369714Y-153541938D01*
X102579775Y-153663217D01*
X102579779Y-153663218D01*
X102579788Y-153663224D01*
X102803900Y-153756054D01*
X103038211Y-153818838D01*
X103038215Y-153818838D01*
X103038217Y-153818839D01*
X103100202Y-153826999D01*
X103278712Y-153850500D01*
X103278719Y-153850500D01*
X103521281Y-153850500D01*
X103521288Y-153850500D01*
X103738637Y-153821885D01*
X103761782Y-153818839D01*
X103761782Y-153818838D01*
X103761789Y-153818838D01*
X103996100Y-153756054D01*
X104220212Y-153663224D01*
X104430289Y-153541936D01*
X104622738Y-153394265D01*
X104794265Y-153222738D01*
X104941936Y-153030289D01*
X105063224Y-152820212D01*
X105156054Y-152596100D01*
X105218838Y-152361789D01*
X105250500Y-152121288D01*
X105250500Y-151878712D01*
X105218838Y-151638211D01*
X105156054Y-151403900D01*
X105063224Y-151179788D01*
X105063218Y-151179779D01*
X105063217Y-151179775D01*
X104941938Y-150969714D01*
X104941936Y-150969711D01*
X104794265Y-150777262D01*
X104794259Y-150777256D01*
X104794255Y-150777251D01*
X104622748Y-150605744D01*
X104622742Y-150605739D01*
X104622738Y-150605735D01*
X104430289Y-150458064D01*
X104430288Y-150458063D01*
X104430285Y-150458061D01*
X104220224Y-150336782D01*
X104220216Y-150336778D01*
X104220212Y-150336776D01*
X103996100Y-150243946D01*
X103996097Y-150243945D01*
X103996095Y-150243944D01*
X103761782Y-150181160D01*
X103521290Y-150149500D01*
X103521288Y-150149500D01*
X103278712Y-150149500D01*
X103278709Y-150149500D01*
X103038217Y-150181160D01*
X102803904Y-150243944D01*
X102803900Y-150243946D01*
X102606490Y-150325716D01*
X102579786Y-150336777D01*
X102579775Y-150336782D01*
X102369714Y-150458061D01*
X102177262Y-150605735D01*
X102177251Y-150605744D01*
X102005744Y-150777251D01*
X102005735Y-150777262D01*
X101858061Y-150969714D01*
X101736782Y-151179775D01*
X101736777Y-151179786D01*
X101736776Y-151179788D01*
X101673764Y-151331913D01*
X101643946Y-151403900D01*
X101643944Y-151403904D01*
X101581160Y-151638217D01*
X101549500Y-151878709D01*
X98079261Y-151878709D01*
X98103543Y-151788087D01*
X98123498Y-151560000D01*
X98103543Y-151331913D01*
X98044284Y-151110757D01*
X97947523Y-150903251D01*
X97816198Y-150715700D01*
X97654300Y-150553802D01*
X97466749Y-150422477D01*
X97427543Y-150404195D01*
X97374258Y-150357279D01*
X97354796Y-150289002D01*
X97375337Y-150221042D01*
X97427543Y-150175805D01*
X97429997Y-150174660D01*
X97466749Y-150157523D01*
X97654300Y-150026198D01*
X97816198Y-149864300D01*
X97947523Y-149676749D01*
X98044284Y-149469243D01*
X98103543Y-149248087D01*
X98123498Y-149020000D01*
X98103543Y-148791913D01*
X98044284Y-148570757D01*
X97947523Y-148363251D01*
X97947520Y-148363248D01*
X97947520Y-148363246D01*
X97933901Y-148343797D01*
X97911211Y-148276524D01*
X97928494Y-148207663D01*
X97948013Y-148182433D01*
X100579166Y-145551282D01*
X100662174Y-145427051D01*
X100719351Y-145289013D01*
X100748500Y-145142472D01*
X100748500Y-144993062D01*
X100748500Y-142409095D01*
X102477507Y-142409095D01*
X102477507Y-142409104D01*
X102496256Y-142683216D01*
X102496257Y-142683222D01*
X102496258Y-142683230D01*
X102500931Y-142705716D01*
X102552160Y-142952246D01*
X102552162Y-142952254D01*
X102644177Y-143211158D01*
X102750223Y-143415819D01*
X102770592Y-143455128D01*
X102797254Y-143492899D01*
X102929043Y-143679602D01*
X103116589Y-143880414D01*
X103329731Y-144053818D01*
X103564500Y-144196584D01*
X103816523Y-144306053D01*
X104081104Y-144380185D01*
X104147027Y-144389246D01*
X104353304Y-144417599D01*
X104353315Y-144417600D01*
X104628085Y-144417600D01*
X104628095Y-144417599D01*
X104757645Y-144399792D01*
X104900296Y-144380185D01*
X105164877Y-144306053D01*
X105416900Y-144196584D01*
X105651669Y-144053818D01*
X105864811Y-143880414D01*
X106052357Y-143679602D01*
X106210811Y-143455123D01*
X106337223Y-143211158D01*
X106429238Y-142952253D01*
X106485142Y-142683230D01*
X106503893Y-142409100D01*
X106503694Y-142406198D01*
X106485143Y-142134983D01*
X106485142Y-142134977D01*
X106485142Y-142134970D01*
X106429238Y-141865947D01*
X106337223Y-141607042D01*
X106210811Y-141363077D01*
X106052357Y-141138598D01*
X105864811Y-140937786D01*
X105651669Y-140764382D01*
X105416900Y-140621616D01*
X105416901Y-140621616D01*
X105416897Y-140621614D01*
X105164880Y-140512148D01*
X105164878Y-140512147D01*
X105164877Y-140512147D01*
X104928149Y-140445819D01*
X104900293Y-140438014D01*
X104628095Y-140400600D01*
X104628085Y-140400600D01*
X104353315Y-140400600D01*
X104353304Y-140400600D01*
X104081106Y-140438014D01*
X103816519Y-140512148D01*
X103564502Y-140621614D01*
X103372712Y-140738244D01*
X103364480Y-140743251D01*
X103329728Y-140764384D01*
X103116586Y-140937788D01*
X102929043Y-141138598D01*
X102770592Y-141363071D01*
X102644177Y-141607041D01*
X102552162Y-141865945D01*
X102552160Y-141865953D01*
X102496257Y-142134977D01*
X102496256Y-142134983D01*
X102477507Y-142409095D01*
X100748500Y-142409095D01*
X100748500Y-141506371D01*
X100768502Y-141438250D01*
X100785405Y-141417276D01*
X105657681Y-136545000D01*
X110787295Y-136545000D01*
X110806089Y-136795797D01*
X110862053Y-137040987D01*
X110862054Y-137040989D01*
X110953931Y-137275091D01*
X110953933Y-137275095D01*
X111079682Y-137492899D01*
X111079685Y-137492902D01*
X111116597Y-137539190D01*
X111867301Y-136788487D01*
X111893978Y-136852890D01*
X111965112Y-136959351D01*
X112055649Y-137049888D01*
X112162110Y-137121022D01*
X112226510Y-137147698D01*
X111476010Y-137898197D01*
X111476010Y-137898199D01*
X111628638Y-138002259D01*
X111628646Y-138002263D01*
X111855235Y-138111384D01*
X111855247Y-138111389D01*
X112095552Y-138185513D01*
X112095564Y-138185515D01*
X112344255Y-138223000D01*
X112595745Y-138223000D01*
X112844435Y-138185515D01*
X112844447Y-138185513D01*
X113084752Y-138111389D01*
X113084765Y-138111384D01*
X113311355Y-138002263D01*
X113463988Y-137898198D01*
X113463988Y-137898197D01*
X112713489Y-137147698D01*
X112777890Y-137121022D01*
X112884351Y-137049888D01*
X112974888Y-136959351D01*
X113046022Y-136852890D01*
X113072698Y-136788489D01*
X113823399Y-137539190D01*
X113823400Y-137539190D01*
X113860318Y-137492897D01*
X113986066Y-137275095D01*
X113986068Y-137275091D01*
X114077945Y-137040989D01*
X114077946Y-137040987D01*
X114133910Y-136795797D01*
X114152704Y-136545000D01*
X114133910Y-136294202D01*
X114077946Y-136049012D01*
X114077945Y-136049010D01*
X113986068Y-135814908D01*
X113986066Y-135814904D01*
X113860318Y-135597102D01*
X113823400Y-135550808D01*
X113823399Y-135550808D01*
X113072697Y-136301509D01*
X113046022Y-136237110D01*
X112974888Y-136130649D01*
X112884351Y-136040112D01*
X112777890Y-135968978D01*
X112713488Y-135942301D01*
X113463988Y-135191801D01*
X113463988Y-135191799D01*
X113311355Y-135087736D01*
X113311347Y-135087731D01*
X113084770Y-134978617D01*
X113084752Y-134978610D01*
X112844447Y-134904486D01*
X112844435Y-134904484D01*
X112595745Y-134867000D01*
X112344255Y-134867000D01*
X112095564Y-134904484D01*
X112095552Y-134904486D01*
X111855247Y-134978610D01*
X111855234Y-134978615D01*
X111628651Y-135087732D01*
X111476010Y-135191800D01*
X111476010Y-135191801D01*
X112226510Y-135942301D01*
X112162110Y-135968978D01*
X112055649Y-136040112D01*
X111965112Y-136130649D01*
X111893978Y-136237110D01*
X111867301Y-136301510D01*
X111116598Y-135550807D01*
X111116597Y-135550807D01*
X111079686Y-135597095D01*
X110953933Y-135814904D01*
X110953931Y-135814908D01*
X110862054Y-136049010D01*
X110862053Y-136049012D01*
X110806089Y-136294202D01*
X110787295Y-136545000D01*
X105657681Y-136545000D01*
X109862276Y-132340405D01*
X109924588Y-132306379D01*
X109951371Y-132303500D01*
X110897009Y-132303500D01*
X110965130Y-132323502D01*
X111006128Y-132366500D01*
X111079266Y-132493180D01*
X111079268Y-132493183D01*
X111079269Y-132493184D01*
X111092679Y-132510000D01*
X111236125Y-132689876D01*
X111372134Y-132816072D01*
X111420538Y-132860984D01*
X111420544Y-132860988D01*
X111628387Y-133002694D01*
X111628394Y-133002698D01*
X111628397Y-133002700D01*
X111855055Y-133111853D01*
X111855058Y-133111853D01*
X111855063Y-133111856D01*
X112095440Y-133186002D01*
X112095442Y-133186002D01*
X112095451Y-133186005D01*
X112344214Y-133223500D01*
X112344218Y-133223500D01*
X112595782Y-133223500D01*
X112595786Y-133223500D01*
X112844549Y-133186005D01*
X113042249Y-133125023D01*
X113084936Y-133111856D01*
X113084938Y-133111854D01*
X113084945Y-133111853D01*
X113311604Y-133002700D01*
X113519462Y-132860984D01*
X113703878Y-132689872D01*
X113860731Y-132493184D01*
X113986517Y-132275316D01*
X114078427Y-132041134D01*
X114134407Y-131795869D01*
X114153207Y-131545000D01*
X114134407Y-131294131D01*
X114078427Y-131048866D01*
X114024876Y-130912421D01*
X113986520Y-130814690D01*
X113986518Y-130814686D01*
X113860733Y-130596819D01*
X113849912Y-130583250D01*
X113703878Y-130400128D01*
X113703877Y-130400127D01*
X113703874Y-130400123D01*
X113519467Y-130229021D01*
X113519461Y-130229015D01*
X113333864Y-130102477D01*
X113311606Y-130087301D01*
X113084949Y-129978148D01*
X113084936Y-129978143D01*
X112844559Y-129903997D01*
X112844551Y-129903995D01*
X112844549Y-129903995D01*
X112595786Y-129866500D01*
X112344214Y-129866500D01*
X112095451Y-129903995D01*
X112095449Y-129903995D01*
X112095440Y-129903997D01*
X111855063Y-129978143D01*
X111855051Y-129978148D01*
X111628394Y-130087301D01*
X111628387Y-130087305D01*
X111420544Y-130229011D01*
X111420532Y-130229021D01*
X111236125Y-130400123D01*
X111079266Y-130596819D01*
X111006128Y-130723500D01*
X110954746Y-130772493D01*
X110897009Y-130786500D01*
X109801371Y-130786500D01*
X109733250Y-130766498D01*
X109712276Y-130749595D01*
X105317681Y-126355000D01*
X110044181Y-126355000D01*
X110063428Y-126599557D01*
X110120695Y-126838092D01*
X110214573Y-127064732D01*
X110267594Y-127151256D01*
X110342745Y-127273892D01*
X110342746Y-127273894D01*
X110342748Y-127273896D01*
X110502067Y-127460433D01*
X110688604Y-127619752D01*
X110897768Y-127747927D01*
X111124408Y-127841805D01*
X111362943Y-127899072D01*
X111607500Y-127918319D01*
X111852057Y-127899072D01*
X112090592Y-127841805D01*
X112317232Y-127747927D01*
X112526396Y-127619752D01*
X112712933Y-127460433D01*
X112872252Y-127273896D01*
X113000427Y-127064732D01*
X113094305Y-126838092D01*
X113151572Y-126599557D01*
X113169840Y-126367431D01*
X113195124Y-126301094D01*
X113252262Y-126258954D01*
X113323112Y-126254395D01*
X113355421Y-126266507D01*
X113539850Y-126366315D01*
X113539851Y-126366315D01*
X113539852Y-126366316D01*
X113653708Y-126405402D01*
X113756707Y-126440762D01*
X113982860Y-126478500D01*
X113982864Y-126478500D01*
X114212136Y-126478500D01*
X114212140Y-126478500D01*
X114438293Y-126440762D01*
X114655150Y-126366315D01*
X114856796Y-126257190D01*
X115037731Y-126116363D01*
X115193018Y-125947676D01*
X115318422Y-125755730D01*
X115410523Y-125545761D01*
X115466808Y-125323497D01*
X115485742Y-125095000D01*
X115466808Y-124866503D01*
X115455721Y-124822722D01*
X115410524Y-124644242D01*
X115410521Y-124644235D01*
X115318426Y-124434279D01*
X115318425Y-124434278D01*
X115318422Y-124434270D01*
X115193018Y-124242324D01*
X115037731Y-124073637D01*
X114856796Y-123932810D01*
X114856795Y-123932809D01*
X114700239Y-123848086D01*
X114655150Y-123823685D01*
X114655148Y-123823684D01*
X114655147Y-123823683D01*
X114438297Y-123749239D01*
X114438288Y-123749237D01*
X114393321Y-123741733D01*
X114212140Y-123711500D01*
X113982860Y-123711500D01*
X113831912Y-123736688D01*
X113756711Y-123749237D01*
X113756702Y-123749239D01*
X113539852Y-123823683D01*
X113539850Y-123823685D01*
X113338204Y-123932809D01*
X113338203Y-123932810D01*
X113157266Y-124073639D01*
X113001979Y-124242327D01*
X112876580Y-124434267D01*
X112876573Y-124434279D01*
X112784478Y-124644235D01*
X112784475Y-124644242D01*
X112728193Y-124866495D01*
X112728192Y-124866501D01*
X112728192Y-124866503D01*
X112721421Y-124948215D01*
X112717697Y-124993157D01*
X112692137Y-125059393D01*
X112634825Y-125101296D01*
X112563957Y-125105562D01*
X112526293Y-125090184D01*
X112367957Y-124993157D01*
X112317232Y-124962073D01*
X112090592Y-124868195D01*
X111852057Y-124810928D01*
X111607500Y-124791681D01*
X111362943Y-124810928D01*
X111124407Y-124868195D01*
X110985541Y-124925716D01*
X110910011Y-124957002D01*
X110897766Y-124962074D01*
X110688607Y-125090245D01*
X110502067Y-125249567D01*
X110342745Y-125436107D01*
X110252229Y-125583818D01*
X110214573Y-125645268D01*
X110187448Y-125710753D01*
X110136917Y-125832746D01*
X110120695Y-125871908D01*
X110063428Y-126110443D01*
X110044181Y-126355000D01*
X105317681Y-126355000D01*
X101993519Y-123030838D01*
X101993515Y-123030834D01*
X101869284Y-122947826D01*
X101740030Y-122894287D01*
X101731250Y-122890650D01*
X101731247Y-122890649D01*
X101650850Y-122874657D01*
X101650848Y-122874656D01*
X101584709Y-122861500D01*
X101584706Y-122861500D01*
X97941868Y-122861500D01*
X97873747Y-122841498D01*
X97838656Y-122807772D01*
X97820414Y-122781721D01*
X97816198Y-122775700D01*
X97654300Y-122613802D01*
X97616845Y-122587576D01*
X97591998Y-122570177D01*
X97466749Y-122482477D01*
X97428130Y-122464469D01*
X97427543Y-122464195D01*
X97374258Y-122417279D01*
X97354796Y-122349002D01*
X97375337Y-122281042D01*
X97427543Y-122235805D01*
X97429997Y-122234660D01*
X97466749Y-122217523D01*
X97654300Y-122086198D01*
X97816198Y-121924300D01*
X97947523Y-121736749D01*
X98044284Y-121529243D01*
X98103543Y-121308087D01*
X98123498Y-121080000D01*
X98103543Y-120851913D01*
X98044284Y-120630757D01*
X97947523Y-120423251D01*
X97816198Y-120235700D01*
X97654300Y-120073802D01*
X97627065Y-120054732D01*
X97466749Y-119942477D01*
X97426951Y-119923919D01*
X97373666Y-119877002D01*
X97354205Y-119808725D01*
X97374747Y-119740765D01*
X97426951Y-119695529D01*
X97466498Y-119677087D01*
X97653974Y-119545815D01*
X97653980Y-119545810D01*
X97815810Y-119383980D01*
X97815815Y-119383974D01*
X97843105Y-119345000D01*
X110044181Y-119345000D01*
X110063428Y-119589557D01*
X110120695Y-119828092D01*
X110214573Y-120054732D01*
X110242313Y-120100000D01*
X110342745Y-120263892D01*
X110342746Y-120263894D01*
X110342748Y-120263896D01*
X110502067Y-120450433D01*
X110688604Y-120609752D01*
X110897768Y-120737927D01*
X111124408Y-120831805D01*
X111362943Y-120889072D01*
X111607500Y-120908319D01*
X111852057Y-120889072D01*
X112090592Y-120831805D01*
X112317232Y-120737927D01*
X112526396Y-120609752D01*
X112526399Y-120609748D01*
X112527558Y-120609039D01*
X112596092Y-120590501D01*
X112663769Y-120611958D01*
X112709102Y-120666597D01*
X112718963Y-120706066D01*
X112728688Y-120823420D01*
X112784951Y-121045596D01*
X112877019Y-121255490D01*
X112956359Y-121376929D01*
X112956360Y-121376930D01*
X113617424Y-120715865D01*
X113636234Y-120786063D01*
X113701402Y-120898937D01*
X113793563Y-120991098D01*
X113906437Y-121056266D01*
X113976634Y-121075075D01*
X113313996Y-121737712D01*
X113338476Y-121756767D01*
X113338481Y-121756770D01*
X113540051Y-121865855D01*
X113540054Y-121865856D01*
X113756825Y-121940274D01*
X113756834Y-121940276D01*
X113982905Y-121978000D01*
X114212095Y-121978000D01*
X114438165Y-121940276D01*
X114438174Y-121940274D01*
X114654945Y-121865856D01*
X114654948Y-121865854D01*
X114856518Y-121756771D01*
X114881003Y-121737712D01*
X114218366Y-121075075D01*
X114288563Y-121056266D01*
X114401437Y-120991098D01*
X114493598Y-120898937D01*
X114558766Y-120786063D01*
X114577575Y-120715866D01*
X115238638Y-121376929D01*
X115238639Y-121376929D01*
X115317980Y-121255490D01*
X115410048Y-121045596D01*
X115466311Y-120823419D01*
X115485239Y-120595000D01*
X115466311Y-120366580D01*
X115410048Y-120144403D01*
X115317980Y-119934509D01*
X115238639Y-119813069D01*
X114577575Y-120474133D01*
X114558766Y-120403937D01*
X114493598Y-120291063D01*
X114401437Y-120198902D01*
X114288563Y-120133734D01*
X114218365Y-120114924D01*
X114881003Y-119452286D01*
X114881002Y-119452285D01*
X114856525Y-119433233D01*
X114654948Y-119324144D01*
X114654945Y-119324143D01*
X114438174Y-119249725D01*
X114438165Y-119249723D01*
X114212095Y-119212000D01*
X113982905Y-119212000D01*
X113756834Y-119249723D01*
X113756825Y-119249725D01*
X113540054Y-119324143D01*
X113540051Y-119324145D01*
X113354708Y-119424447D01*
X113285278Y-119439277D01*
X113218851Y-119414216D01*
X113176519Y-119357221D01*
X113169129Y-119323527D01*
X113151572Y-119100443D01*
X113094305Y-118861908D01*
X113000427Y-118635268D01*
X112872252Y-118426104D01*
X112712933Y-118239567D01*
X112526396Y-118080248D01*
X112526394Y-118080246D01*
X112526392Y-118080245D01*
X112333327Y-117961936D01*
X112317232Y-117952073D01*
X112090592Y-117858195D01*
X111852057Y-117800928D01*
X111607500Y-117781681D01*
X111362943Y-117800928D01*
X111124407Y-117858195D01*
X110964145Y-117924578D01*
X110962300Y-117925343D01*
X110897766Y-117952074D01*
X110688607Y-118080245D01*
X110502067Y-118239567D01*
X110342745Y-118426107D01*
X110214574Y-118635266D01*
X110148824Y-118794000D01*
X110120695Y-118861908D01*
X110063428Y-119100443D01*
X110044181Y-119345000D01*
X97843105Y-119345000D01*
X97947087Y-119196498D01*
X98043811Y-118989073D01*
X98043813Y-118989068D01*
X98096082Y-118794000D01*
X97240703Y-118794000D01*
X97275925Y-118732993D01*
X97310000Y-118605826D01*
X97310000Y-118474174D01*
X97275925Y-118347007D01*
X97240703Y-118286000D01*
X98096082Y-118286000D01*
X98043813Y-118090931D01*
X98043811Y-118090926D01*
X97947087Y-117883501D01*
X97815815Y-117696025D01*
X97815810Y-117696019D01*
X97653980Y-117534189D01*
X97653974Y-117534184D01*
X97466497Y-117402911D01*
X97426949Y-117384469D01*
X97373665Y-117337551D01*
X97354205Y-117269273D01*
X97374748Y-117201314D01*
X97426950Y-117156081D01*
X97466749Y-117137523D01*
X97654300Y-117006198D01*
X97816198Y-116844300D01*
X97947523Y-116656749D01*
X98044284Y-116449243D01*
X98103543Y-116228087D01*
X98123498Y-116000000D01*
X98103543Y-115771913D01*
X98044284Y-115550757D01*
X97947523Y-115343251D01*
X97816198Y-115155700D01*
X97654300Y-114993802D01*
X97616848Y-114967578D01*
X97466749Y-114862477D01*
X97259246Y-114765717D01*
X97259240Y-114765715D01*
X97165771Y-114740670D01*
X97038087Y-114706457D01*
X96810000Y-114686502D01*
X96581913Y-114706457D01*
X96360759Y-114765715D01*
X96360753Y-114765717D01*
X96153250Y-114862477D01*
X95965703Y-114993799D01*
X95965697Y-114993804D01*
X95803804Y-115155697D01*
X95803799Y-115155703D01*
X95672477Y-115343250D01*
X95575717Y-115550753D01*
X95575715Y-115550759D01*
X95516457Y-115771913D01*
X95496502Y-116000000D01*
X95516457Y-116228086D01*
X95575715Y-116449240D01*
X95575717Y-116449246D01*
X95672477Y-116656749D01*
X95803802Y-116844300D01*
X95965700Y-117006198D01*
X96153251Y-117137523D01*
X96193045Y-117156079D01*
X96193047Y-117156080D01*
X96246332Y-117202996D01*
X96265794Y-117271273D01*
X96245253Y-117339233D01*
X96193051Y-117384468D01*
X96153504Y-117402910D01*
X95966025Y-117534184D01*
X95966019Y-117534189D01*
X95804189Y-117696019D01*
X95804184Y-117696025D01*
X95672912Y-117883501D01*
X95576188Y-118090926D01*
X95576186Y-118090931D01*
X95523917Y-118286000D01*
X96379297Y-118286000D01*
X96344075Y-118347007D01*
X96310000Y-118474174D01*
X96310000Y-118605826D01*
X96344075Y-118732993D01*
X96379297Y-118794000D01*
X95523918Y-118794000D01*
X95576186Y-118989068D01*
X95576188Y-118989073D01*
X95672912Y-119196498D01*
X95804184Y-119383974D01*
X95804189Y-119383980D01*
X95966019Y-119545810D01*
X95966025Y-119545815D01*
X96153503Y-119677089D01*
X96193049Y-119695530D01*
X96246334Y-119742447D01*
X96265794Y-119810724D01*
X96245252Y-119878684D01*
X96193049Y-119923918D01*
X96153252Y-119942475D01*
X95965703Y-120073799D01*
X95965697Y-120073804D01*
X95803804Y-120235697D01*
X95803799Y-120235703D01*
X95672477Y-120423250D01*
X95575717Y-120630753D01*
X95575715Y-120630759D01*
X95516457Y-120851913D01*
X95496502Y-121080000D01*
X95516457Y-121308086D01*
X95575715Y-121529240D01*
X95575717Y-121529246D01*
X95672477Y-121736749D01*
X95762877Y-121865854D01*
X95803802Y-121924300D01*
X95965700Y-122086198D01*
X96153251Y-122217523D01*
X96188359Y-122233894D01*
X96192457Y-122235805D01*
X96245742Y-122282722D01*
X96265203Y-122350999D01*
X96244661Y-122418959D01*
X96192457Y-122464195D01*
X96153250Y-122482477D01*
X95965703Y-122613799D01*
X95965697Y-122613804D01*
X95803804Y-122775697D01*
X95803799Y-122775703D01*
X95672477Y-122963250D01*
X95575717Y-123170753D01*
X95575715Y-123170759D01*
X95543116Y-123292421D01*
X95516457Y-123391913D01*
X95496502Y-123620000D01*
X95516457Y-123848087D01*
X95525054Y-123880170D01*
X95575715Y-124069240D01*
X95575717Y-124069246D01*
X95672477Y-124276749D01*
X95782772Y-124434267D01*
X95803802Y-124464300D01*
X95965700Y-124626198D01*
X96153251Y-124757523D01*
X96188359Y-124773894D01*
X96192457Y-124775805D01*
X96245742Y-124822722D01*
X96265203Y-124890999D01*
X96244661Y-124958959D01*
X96192457Y-125004195D01*
X96153250Y-125022477D01*
X95965703Y-125153799D01*
X95965697Y-125153804D01*
X95803804Y-125315697D01*
X95803799Y-125315703D01*
X95672477Y-125503250D01*
X95575717Y-125710753D01*
X95575716Y-125710757D01*
X95516457Y-125931913D01*
X95496502Y-126160000D01*
X95504760Y-126254395D01*
X95516457Y-126388086D01*
X95575715Y-126609240D01*
X95575717Y-126609246D01*
X95672477Y-126816749D01*
X95803802Y-127004300D01*
X95965700Y-127166198D01*
X96153251Y-127297523D01*
X96178102Y-127309111D01*
X96192457Y-127315805D01*
X96245742Y-127362722D01*
X96265203Y-127430999D01*
X96244661Y-127498959D01*
X96192457Y-127544195D01*
X96153250Y-127562477D01*
X95965703Y-127693799D01*
X95965697Y-127693804D01*
X95803804Y-127855697D01*
X95803799Y-127855703D01*
X95672477Y-128043250D01*
X95575717Y-128250753D01*
X95575715Y-128250759D01*
X95516457Y-128471913D01*
X95496502Y-128700000D01*
X95516457Y-128928086D01*
X95575715Y-129149240D01*
X95575717Y-129149246D01*
X95672477Y-129356749D01*
X95803802Y-129544300D01*
X95965700Y-129706198D01*
X96153251Y-129837523D01*
X96188359Y-129853894D01*
X96192457Y-129855805D01*
X96245742Y-129902722D01*
X96265203Y-129970999D01*
X96244661Y-130038959D01*
X96192457Y-130084195D01*
X96153250Y-130102477D01*
X95965703Y-130233799D01*
X95965697Y-130233804D01*
X95803804Y-130395697D01*
X95803799Y-130395703D01*
X95672477Y-130583250D01*
X95575717Y-130790753D01*
X95575715Y-130790759D01*
X95516457Y-131011913D01*
X95496502Y-131240000D01*
X95516457Y-131468086D01*
X95575715Y-131689240D01*
X95575717Y-131689246D01*
X95672477Y-131896749D01*
X95703348Y-131940838D01*
X95803802Y-132084300D01*
X95965700Y-132246198D01*
X96153251Y-132377523D01*
X96188359Y-132393894D01*
X96192457Y-132395805D01*
X96245742Y-132442722D01*
X96265203Y-132510999D01*
X96244661Y-132578959D01*
X96192457Y-132624195D01*
X96153250Y-132642477D01*
X95965703Y-132773799D01*
X95965697Y-132773804D01*
X95803804Y-132935697D01*
X95803799Y-132935703D01*
X95672477Y-133123250D01*
X95575717Y-133330753D01*
X95575715Y-133330759D01*
X95516457Y-133551913D01*
X95496502Y-133780000D01*
X95516457Y-134008086D01*
X95575715Y-134229240D01*
X95575717Y-134229246D01*
X95672477Y-134436749D01*
X95770323Y-134576488D01*
X95803802Y-134624300D01*
X95965700Y-134786198D01*
X96153251Y-134917523D01*
X96188359Y-134933894D01*
X96192457Y-134935805D01*
X96245742Y-134982722D01*
X96265203Y-135050999D01*
X96244661Y-135118959D01*
X96192457Y-135164195D01*
X96153250Y-135182477D01*
X95965703Y-135313799D01*
X95965697Y-135313804D01*
X95803804Y-135475697D01*
X95803799Y-135475703D01*
X95672477Y-135663250D01*
X95575717Y-135870753D01*
X95575715Y-135870759D01*
X95530337Y-136040112D01*
X95516457Y-136091913D01*
X95496502Y-136320000D01*
X95516457Y-136548087D01*
X95523271Y-136573516D01*
X95575715Y-136769240D01*
X95575717Y-136769246D01*
X95614393Y-136852187D01*
X95672477Y-136976749D01*
X95803802Y-137164300D01*
X95965700Y-137326198D01*
X96153251Y-137457523D01*
X96178102Y-137469111D01*
X96192457Y-137475805D01*
X96245742Y-137522722D01*
X96265203Y-137590999D01*
X96244661Y-137658959D01*
X96192457Y-137704195D01*
X96153250Y-137722477D01*
X95965703Y-137853799D01*
X95965697Y-137853804D01*
X95803804Y-138015697D01*
X95803799Y-138015703D01*
X95672477Y-138203250D01*
X95575717Y-138410753D01*
X95575715Y-138410759D01*
X95516457Y-138631913D01*
X95496502Y-138860000D01*
X95508280Y-138994629D01*
X95516457Y-139088086D01*
X95575715Y-139309240D01*
X95575717Y-139309246D01*
X95672477Y-139516749D01*
X95768443Y-139653803D01*
X95803802Y-139704300D01*
X95965700Y-139866198D01*
X96153251Y-139997523D01*
X96188359Y-140013894D01*
X96192457Y-140015805D01*
X96245742Y-140062722D01*
X96265203Y-140130999D01*
X96244661Y-140198959D01*
X96192457Y-140244195D01*
X96153250Y-140262477D01*
X95965703Y-140393799D01*
X95965697Y-140393804D01*
X95803804Y-140555697D01*
X95803797Y-140555706D01*
X95781344Y-140587772D01*
X95725887Y-140632100D01*
X95678132Y-140641500D01*
X94766371Y-140641500D01*
X94698250Y-140621498D01*
X94677276Y-140604595D01*
X92445405Y-138372724D01*
X92411379Y-138310412D01*
X92408500Y-138283629D01*
X92408500Y-112998332D01*
X110044181Y-112998332D01*
X110063428Y-113242889D01*
X110120695Y-113481424D01*
X110214573Y-113708064D01*
X110267594Y-113794588D01*
X110342745Y-113917224D01*
X110342746Y-113917226D01*
X110342748Y-113917228D01*
X110502067Y-114103765D01*
X110688604Y-114263084D01*
X110897768Y-114391259D01*
X111124408Y-114485137D01*
X111362943Y-114542404D01*
X111607500Y-114561651D01*
X111852057Y-114542404D01*
X112090592Y-114485137D01*
X112317232Y-114391259D01*
X112526396Y-114263084D01*
X112712933Y-114103765D01*
X112872252Y-113917228D01*
X113000427Y-113708064D01*
X113094305Y-113481424D01*
X113151572Y-113242889D01*
X113169840Y-113010763D01*
X113195124Y-112944426D01*
X113252262Y-112902286D01*
X113323112Y-112897727D01*
X113355421Y-112909839D01*
X113539850Y-113009647D01*
X113539851Y-113009647D01*
X113539852Y-113009648D01*
X113653708Y-113048734D01*
X113756707Y-113084094D01*
X113982860Y-113121832D01*
X113982864Y-113121832D01*
X114212136Y-113121832D01*
X114212140Y-113121832D01*
X114438293Y-113084094D01*
X114655150Y-113009647D01*
X114856796Y-112900522D01*
X115037731Y-112759695D01*
X115193018Y-112591008D01*
X115318422Y-112399062D01*
X115410523Y-112189093D01*
X115466808Y-111966829D01*
X115485742Y-111738332D01*
X115466808Y-111509835D01*
X115466806Y-111509827D01*
X115410524Y-111287574D01*
X115410521Y-111287567D01*
X115363412Y-111180170D01*
X115318422Y-111077602D01*
X115193018Y-110885656D01*
X115037731Y-110716969D01*
X114856796Y-110576142D01*
X114856795Y-110576141D01*
X114764274Y-110526071D01*
X114655150Y-110467017D01*
X114655148Y-110467016D01*
X114655147Y-110467015D01*
X114438297Y-110392571D01*
X114438288Y-110392569D01*
X114393321Y-110385065D01*
X114212140Y-110354832D01*
X113982860Y-110354832D01*
X113831912Y-110380020D01*
X113756711Y-110392569D01*
X113756702Y-110392571D01*
X113539852Y-110467015D01*
X113539850Y-110467017D01*
X113338204Y-110576141D01*
X113338203Y-110576142D01*
X113157266Y-110716971D01*
X113001979Y-110885659D01*
X112876580Y-111077599D01*
X112876573Y-111077611D01*
X112784478Y-111287567D01*
X112784475Y-111287574D01*
X112728193Y-111509827D01*
X112717697Y-111636489D01*
X112692137Y-111702725D01*
X112634825Y-111744628D01*
X112563957Y-111748894D01*
X112526293Y-111733516D01*
X112367957Y-111636489D01*
X112317232Y-111605405D01*
X112090592Y-111511527D01*
X111852057Y-111454260D01*
X111607500Y-111435013D01*
X111362943Y-111454260D01*
X111124407Y-111511527D01*
X110897766Y-111605406D01*
X110688607Y-111733577D01*
X110502067Y-111892899D01*
X110342745Y-112079439D01*
X110214574Y-112288598D01*
X110120695Y-112515239D01*
X110078214Y-112692186D01*
X110063428Y-112753775D01*
X110044181Y-112998332D01*
X92408500Y-112998332D01*
X92408500Y-106155293D01*
X92408499Y-106155290D01*
X92397535Y-106100170D01*
X92379351Y-106008754D01*
X92377582Y-106004484D01*
X92370892Y-105988332D01*
X110044181Y-105988332D01*
X110063428Y-106232889D01*
X110120695Y-106471424D01*
X110214573Y-106698064D01*
X110214574Y-106698065D01*
X110342745Y-106907224D01*
X110342746Y-106907226D01*
X110342748Y-106907228D01*
X110502067Y-107093765D01*
X110688604Y-107253084D01*
X110897768Y-107381259D01*
X111124408Y-107475137D01*
X111362943Y-107532404D01*
X111607500Y-107551651D01*
X111852057Y-107532404D01*
X112090592Y-107475137D01*
X112317232Y-107381259D01*
X112526396Y-107253084D01*
X112526399Y-107253080D01*
X112527558Y-107252371D01*
X112596092Y-107233833D01*
X112663769Y-107255290D01*
X112709102Y-107309929D01*
X112718963Y-107349398D01*
X112728688Y-107466752D01*
X112784951Y-107688928D01*
X112877019Y-107898822D01*
X112956359Y-108020261D01*
X112956360Y-108020262D01*
X113617424Y-107359197D01*
X113636234Y-107429395D01*
X113701402Y-107542269D01*
X113793563Y-107634430D01*
X113906437Y-107699598D01*
X113976634Y-107718407D01*
X113313996Y-108381044D01*
X113338476Y-108400099D01*
X113338481Y-108400102D01*
X113540051Y-108509187D01*
X113540054Y-108509188D01*
X113756825Y-108583606D01*
X113756834Y-108583608D01*
X113982905Y-108621332D01*
X114212095Y-108621332D01*
X114438165Y-108583608D01*
X114438174Y-108583606D01*
X114654945Y-108509188D01*
X114654948Y-108509186D01*
X114856518Y-108400103D01*
X114881003Y-108381044D01*
X114218366Y-107718407D01*
X114288563Y-107699598D01*
X114401437Y-107634430D01*
X114493598Y-107542269D01*
X114558766Y-107429395D01*
X114577575Y-107359198D01*
X115238638Y-108020261D01*
X115238639Y-108020261D01*
X115317980Y-107898822D01*
X115410048Y-107688928D01*
X115466311Y-107466751D01*
X115485239Y-107238332D01*
X115466311Y-107009912D01*
X115410048Y-106787735D01*
X115317980Y-106577841D01*
X115238639Y-106456401D01*
X114577575Y-107117465D01*
X114558766Y-107047269D01*
X114493598Y-106934395D01*
X114401437Y-106842234D01*
X114288563Y-106777066D01*
X114218365Y-106758256D01*
X114881003Y-106095618D01*
X114881002Y-106095617D01*
X114856525Y-106076565D01*
X114654948Y-105967476D01*
X114654945Y-105967475D01*
X114438174Y-105893057D01*
X114438165Y-105893055D01*
X114212095Y-105855332D01*
X113982905Y-105855332D01*
X113756834Y-105893055D01*
X113756825Y-105893057D01*
X113540054Y-105967475D01*
X113540051Y-105967477D01*
X113354708Y-106067779D01*
X113285278Y-106082609D01*
X113218851Y-106057548D01*
X113176519Y-106000553D01*
X113169129Y-105966859D01*
X113151572Y-105743775D01*
X113094305Y-105505240D01*
X113000427Y-105278600D01*
X112872252Y-105069436D01*
X112712933Y-104882899D01*
X112526396Y-104723580D01*
X112526394Y-104723578D01*
X112526392Y-104723577D01*
X112370773Y-104628215D01*
X112317232Y-104595405D01*
X112090592Y-104501527D01*
X111852057Y-104444260D01*
X111607500Y-104425013D01*
X111362943Y-104444260D01*
X111124407Y-104501527D01*
X110897766Y-104595406D01*
X110688607Y-104723577D01*
X110502067Y-104882899D01*
X110342745Y-105069439D01*
X110214574Y-105278598D01*
X110214573Y-105278600D01*
X110120695Y-105505240D01*
X110063428Y-105743775D01*
X110044181Y-105988332D01*
X92370892Y-105988332D01*
X92355667Y-105951576D01*
X92322174Y-105870716D01*
X92239165Y-105746484D01*
X92133516Y-105640835D01*
X86134347Y-99641666D01*
X110044181Y-99641666D01*
X110063428Y-99886223D01*
X110120695Y-100124758D01*
X110214573Y-100351398D01*
X110214574Y-100351399D01*
X110342745Y-100560558D01*
X110342746Y-100560560D01*
X110342748Y-100560562D01*
X110502067Y-100747099D01*
X110688604Y-100906418D01*
X110897768Y-101034593D01*
X111124408Y-101128471D01*
X111362943Y-101185738D01*
X111607500Y-101204985D01*
X111852057Y-101185738D01*
X112090592Y-101128471D01*
X112317232Y-101034593D01*
X112526396Y-100906418D01*
X112712933Y-100747099D01*
X112872252Y-100560562D01*
X113000427Y-100351398D01*
X113094305Y-100124758D01*
X113151572Y-99886223D01*
X113169840Y-99654097D01*
X113195124Y-99587760D01*
X113252262Y-99545620D01*
X113323112Y-99541061D01*
X113355421Y-99553173D01*
X113539850Y-99652981D01*
X113539851Y-99652981D01*
X113539852Y-99652982D01*
X113653708Y-99692068D01*
X113756707Y-99727428D01*
X113982860Y-99765166D01*
X113982864Y-99765166D01*
X114212136Y-99765166D01*
X114212140Y-99765166D01*
X114438293Y-99727428D01*
X114655150Y-99652981D01*
X114856796Y-99543856D01*
X115037731Y-99403029D01*
X115193018Y-99234342D01*
X115318422Y-99042396D01*
X115410523Y-98832427D01*
X115466808Y-98610163D01*
X115485742Y-98381666D01*
X115466808Y-98153169D01*
X115466806Y-98153161D01*
X115410524Y-97930908D01*
X115410521Y-97930901D01*
X115393643Y-97892424D01*
X115318422Y-97720936D01*
X115193018Y-97528990D01*
X115037731Y-97360303D01*
X114856796Y-97219476D01*
X114856795Y-97219475D01*
X114764274Y-97169405D01*
X114655150Y-97110351D01*
X114655148Y-97110350D01*
X114655147Y-97110349D01*
X114438297Y-97035905D01*
X114438288Y-97035903D01*
X114393321Y-97028399D01*
X114212140Y-96998166D01*
X113982860Y-96998166D01*
X113831912Y-97023354D01*
X113756711Y-97035903D01*
X113756702Y-97035905D01*
X113539852Y-97110349D01*
X113539850Y-97110351D01*
X113338204Y-97219475D01*
X113338203Y-97219476D01*
X113157266Y-97360305D01*
X113001979Y-97528993D01*
X112876580Y-97720933D01*
X112876573Y-97720945D01*
X112784478Y-97930901D01*
X112784475Y-97930908D01*
X112728193Y-98153161D01*
X112717697Y-98279823D01*
X112692137Y-98346059D01*
X112634825Y-98387962D01*
X112563957Y-98392228D01*
X112526293Y-98376850D01*
X112350824Y-98269324D01*
X112317232Y-98248739D01*
X112090592Y-98154861D01*
X111852057Y-98097594D01*
X111607500Y-98078347D01*
X111362943Y-98097594D01*
X111124407Y-98154861D01*
X110897766Y-98248740D01*
X110688607Y-98376911D01*
X110502067Y-98536233D01*
X110342745Y-98722773D01*
X110214574Y-98931932D01*
X110120695Y-99158573D01*
X110074575Y-99350677D01*
X110063428Y-99397109D01*
X110044181Y-99641666D01*
X86134347Y-99641666D01*
X80322681Y-93830000D01*
X85336502Y-93830000D01*
X85356457Y-94058087D01*
X85370390Y-94110085D01*
X85415715Y-94279240D01*
X85415717Y-94279246D01*
X85512477Y-94486749D01*
X85551273Y-94542156D01*
X85643802Y-94674300D01*
X85805700Y-94836198D01*
X85993251Y-94967523D01*
X86200757Y-95064284D01*
X86421913Y-95123543D01*
X86650000Y-95143498D01*
X86878087Y-95123543D01*
X87099243Y-95064284D01*
X87306749Y-94967523D01*
X87494300Y-94836198D01*
X87656198Y-94674300D01*
X87787523Y-94486749D01*
X87884284Y-94279243D01*
X87943543Y-94058087D01*
X87963498Y-93830000D01*
X91159835Y-93830000D01*
X91179790Y-94058087D01*
X91193723Y-94110085D01*
X91239048Y-94279240D01*
X91239050Y-94279246D01*
X91335810Y-94486749D01*
X91374606Y-94542156D01*
X91467135Y-94674300D01*
X91629033Y-94836198D01*
X91816584Y-94967523D01*
X92024090Y-95064284D01*
X92245246Y-95123543D01*
X92473333Y-95143498D01*
X92701420Y-95123543D01*
X92922576Y-95064284D01*
X93130082Y-94967523D01*
X93317633Y-94836198D01*
X93479531Y-94674300D01*
X93610856Y-94486749D01*
X93707617Y-94279243D01*
X93766876Y-94058087D01*
X93786831Y-93830000D01*
X96983168Y-93830000D01*
X97003123Y-94058087D01*
X97017056Y-94110085D01*
X97062381Y-94279240D01*
X97062383Y-94279246D01*
X97159143Y-94486749D01*
X97197939Y-94542156D01*
X97290468Y-94674300D01*
X97452366Y-94836198D01*
X97639917Y-94967523D01*
X97847423Y-95064284D01*
X98068579Y-95123543D01*
X98296666Y-95143498D01*
X98524753Y-95123543D01*
X98745909Y-95064284D01*
X98953415Y-94967523D01*
X99140966Y-94836198D01*
X99302864Y-94674300D01*
X99434189Y-94486749D01*
X99530950Y-94279243D01*
X99590209Y-94058087D01*
X99610164Y-93830000D01*
X102806502Y-93830000D01*
X102826457Y-94058087D01*
X102840390Y-94110085D01*
X102885715Y-94279240D01*
X102885717Y-94279246D01*
X102982477Y-94486749D01*
X103021273Y-94542156D01*
X103113802Y-94674300D01*
X103275700Y-94836198D01*
X103463251Y-94967523D01*
X103670757Y-95064284D01*
X103891913Y-95123543D01*
X104120000Y-95143498D01*
X104348087Y-95123543D01*
X104569243Y-95064284D01*
X104776749Y-94967523D01*
X104964300Y-94836198D01*
X105126198Y-94674300D01*
X105257523Y-94486749D01*
X105354284Y-94279243D01*
X105413543Y-94058087D01*
X105433498Y-93830000D01*
X105413543Y-93601913D01*
X105354284Y-93380757D01*
X105257523Y-93173251D01*
X105126198Y-92985700D01*
X104964300Y-92823802D01*
X104776749Y-92692477D01*
X104729430Y-92670412D01*
X104646339Y-92631666D01*
X110044181Y-92631666D01*
X110063428Y-92876223D01*
X110120695Y-93114758D01*
X110214573Y-93341398D01*
X110242313Y-93386666D01*
X110342745Y-93550558D01*
X110342746Y-93550560D01*
X110342748Y-93550562D01*
X110502067Y-93737099D01*
X110688604Y-93896418D01*
X110897768Y-94024593D01*
X111124408Y-94118471D01*
X111362943Y-94175738D01*
X111607500Y-94194985D01*
X111852057Y-94175738D01*
X112090592Y-94118471D01*
X112317232Y-94024593D01*
X112526396Y-93896418D01*
X112526399Y-93896414D01*
X112527558Y-93895705D01*
X112596092Y-93877167D01*
X112663769Y-93898624D01*
X112709102Y-93953263D01*
X112718963Y-93992732D01*
X112728688Y-94110086D01*
X112784951Y-94332262D01*
X112877019Y-94542156D01*
X112956359Y-94663595D01*
X112956360Y-94663596D01*
X113617424Y-94002531D01*
X113636234Y-94072729D01*
X113701402Y-94185603D01*
X113793563Y-94277764D01*
X113906437Y-94342932D01*
X113976634Y-94361741D01*
X113313996Y-95024378D01*
X113338476Y-95043433D01*
X113338481Y-95043436D01*
X113540051Y-95152521D01*
X113540054Y-95152522D01*
X113756825Y-95226940D01*
X113756834Y-95226942D01*
X113982905Y-95264666D01*
X114212095Y-95264666D01*
X114438165Y-95226942D01*
X114438174Y-95226940D01*
X114654945Y-95152522D01*
X114654948Y-95152520D01*
X114856518Y-95043437D01*
X114881003Y-95024378D01*
X114218366Y-94361741D01*
X114288563Y-94342932D01*
X114401437Y-94277764D01*
X114493598Y-94185603D01*
X114558766Y-94072729D01*
X114577575Y-94002532D01*
X115238638Y-94663595D01*
X115238639Y-94663595D01*
X115317980Y-94542156D01*
X115410048Y-94332262D01*
X115466311Y-94110085D01*
X115485239Y-93881666D01*
X115466311Y-93653246D01*
X115410048Y-93431069D01*
X115317980Y-93221175D01*
X115238639Y-93099735D01*
X114577575Y-93760799D01*
X114558766Y-93690603D01*
X114493598Y-93577729D01*
X114401437Y-93485568D01*
X114288563Y-93420400D01*
X114218365Y-93401590D01*
X114881003Y-92738952D01*
X114881002Y-92738951D01*
X114856525Y-92719899D01*
X114654948Y-92610810D01*
X114654945Y-92610809D01*
X114438174Y-92536391D01*
X114438165Y-92536389D01*
X114212095Y-92498666D01*
X113982905Y-92498666D01*
X113756834Y-92536389D01*
X113756825Y-92536391D01*
X113540054Y-92610809D01*
X113540051Y-92610811D01*
X113354708Y-92711113D01*
X113285278Y-92725943D01*
X113218851Y-92700882D01*
X113176519Y-92643887D01*
X113169129Y-92610193D01*
X113151572Y-92387109D01*
X113094305Y-92148574D01*
X113000427Y-91921934D01*
X112872252Y-91712770D01*
X112712933Y-91526233D01*
X112526396Y-91366914D01*
X112526394Y-91366912D01*
X112526392Y-91366911D01*
X112403756Y-91291760D01*
X112317232Y-91238739D01*
X112090592Y-91144861D01*
X111852057Y-91087594D01*
X111607500Y-91068347D01*
X111362943Y-91087594D01*
X111124407Y-91144861D01*
X110897766Y-91238740D01*
X110688607Y-91366911D01*
X110502067Y-91526233D01*
X110342745Y-91712773D01*
X110214574Y-91921932D01*
X110214573Y-91921934D01*
X110120695Y-92148574D01*
X110063428Y-92387109D01*
X110044181Y-92631666D01*
X104646339Y-92631666D01*
X104569246Y-92595717D01*
X104569240Y-92595715D01*
X104475771Y-92570670D01*
X104348087Y-92536457D01*
X104120000Y-92516502D01*
X103891913Y-92536457D01*
X103670759Y-92595715D01*
X103670753Y-92595717D01*
X103463250Y-92692477D01*
X103275703Y-92823799D01*
X103275697Y-92823804D01*
X103113804Y-92985697D01*
X103113799Y-92985703D01*
X102982477Y-93173250D01*
X102885717Y-93380753D01*
X102885715Y-93380759D01*
X102832937Y-93577729D01*
X102826457Y-93601913D01*
X102806502Y-93830000D01*
X99610164Y-93830000D01*
X99590209Y-93601913D01*
X99530950Y-93380757D01*
X99434189Y-93173251D01*
X99302864Y-92985700D01*
X99140966Y-92823802D01*
X98953415Y-92692477D01*
X98906096Y-92670412D01*
X98745912Y-92595717D01*
X98745906Y-92595715D01*
X98652437Y-92570670D01*
X98524753Y-92536457D01*
X98296666Y-92516502D01*
X98068579Y-92536457D01*
X97847425Y-92595715D01*
X97847419Y-92595717D01*
X97639916Y-92692477D01*
X97452369Y-92823799D01*
X97452363Y-92823804D01*
X97290470Y-92985697D01*
X97290465Y-92985703D01*
X97159143Y-93173250D01*
X97062383Y-93380753D01*
X97062381Y-93380759D01*
X97009603Y-93577729D01*
X97003123Y-93601913D01*
X96983168Y-93830000D01*
X93786831Y-93830000D01*
X93766876Y-93601913D01*
X93707617Y-93380757D01*
X93610856Y-93173251D01*
X93479531Y-92985700D01*
X93317633Y-92823802D01*
X93130082Y-92692477D01*
X93082763Y-92670412D01*
X92922579Y-92595717D01*
X92922573Y-92595715D01*
X92829104Y-92570670D01*
X92701420Y-92536457D01*
X92473333Y-92516502D01*
X92245246Y-92536457D01*
X92024092Y-92595715D01*
X92024086Y-92595717D01*
X91816583Y-92692477D01*
X91629036Y-92823799D01*
X91629030Y-92823804D01*
X91467137Y-92985697D01*
X91467132Y-92985703D01*
X91335810Y-93173250D01*
X91239050Y-93380753D01*
X91239048Y-93380759D01*
X91186270Y-93577729D01*
X91179790Y-93601913D01*
X91159835Y-93830000D01*
X87963498Y-93830000D01*
X87943543Y-93601913D01*
X87884284Y-93380757D01*
X87787523Y-93173251D01*
X87656198Y-92985700D01*
X87494300Y-92823802D01*
X87306749Y-92692477D01*
X87259430Y-92670412D01*
X87099246Y-92595717D01*
X87099240Y-92595715D01*
X87005771Y-92570670D01*
X86878087Y-92536457D01*
X86650000Y-92516502D01*
X86421913Y-92536457D01*
X86200759Y-92595715D01*
X86200753Y-92595717D01*
X85993250Y-92692477D01*
X85805703Y-92823799D01*
X85805697Y-92823804D01*
X85643804Y-92985697D01*
X85643799Y-92985703D01*
X85512477Y-93173250D01*
X85415717Y-93380753D01*
X85415715Y-93380759D01*
X85362937Y-93577729D01*
X85356457Y-93601913D01*
X85336502Y-93830000D01*
X80322681Y-93830000D01*
X79225405Y-92732724D01*
X79191379Y-92670412D01*
X79188500Y-92643629D01*
X79188500Y-89981867D01*
X79208502Y-89913746D01*
X79242228Y-89878654D01*
X79274300Y-89856198D01*
X79436198Y-89694300D01*
X79567523Y-89506749D01*
X79664284Y-89299243D01*
X79723543Y-89078087D01*
X79743498Y-88850000D01*
X79723543Y-88621913D01*
X79664284Y-88400757D01*
X79567523Y-88193251D01*
X79436198Y-88005700D01*
X79274300Y-87843802D01*
X79253263Y-87829072D01*
X79086749Y-87712477D01*
X78879246Y-87615717D01*
X78879240Y-87615715D01*
X78785771Y-87590670D01*
X78658087Y-87556457D01*
X78430000Y-87536502D01*
X78201913Y-87556457D01*
X77980759Y-87615715D01*
X77980753Y-87615717D01*
X77773250Y-87712477D01*
X77585703Y-87843799D01*
X77585697Y-87843804D01*
X77423804Y-88005697D01*
X77423799Y-88005703D01*
X77292477Y-88193250D01*
X77195717Y-88400753D01*
X77195716Y-88400757D01*
X77136457Y-88621913D01*
X77116502Y-88850000D01*
X77136457Y-89078087D01*
X77195716Y-89299243D01*
X77292477Y-89506749D01*
X77423802Y-89694300D01*
X77585700Y-89856198D01*
X77617770Y-89878653D01*
X77662099Y-89934110D01*
X77671500Y-89981867D01*
X77671500Y-92824629D01*
X77651498Y-92892750D01*
X77597842Y-92939243D01*
X77527568Y-92949347D01*
X77462988Y-92919853D01*
X77456405Y-92913724D01*
X75245405Y-90702724D01*
X75211379Y-90640412D01*
X75208500Y-90613629D01*
X75208500Y-89981867D01*
X75228502Y-89913746D01*
X75262228Y-89878654D01*
X75294300Y-89856198D01*
X75456198Y-89694300D01*
X75587523Y-89506749D01*
X75684284Y-89299243D01*
X75743543Y-89078087D01*
X75763498Y-88850000D01*
X75743543Y-88621913D01*
X75684284Y-88400757D01*
X75587523Y-88193251D01*
X75456198Y-88005700D01*
X75294300Y-87843802D01*
X75273263Y-87829072D01*
X75106749Y-87712477D01*
X74899246Y-87615717D01*
X74899240Y-87615715D01*
X74805771Y-87590670D01*
X74678087Y-87556457D01*
X74450000Y-87536502D01*
X74221913Y-87556457D01*
X74000759Y-87615715D01*
X74000753Y-87615717D01*
X73793250Y-87712477D01*
X73605703Y-87843799D01*
X73605697Y-87843804D01*
X73443804Y-88005697D01*
X73443799Y-88005703D01*
X73312477Y-88193250D01*
X73215717Y-88400753D01*
X73215716Y-88400757D01*
X73156457Y-88621913D01*
X73136502Y-88850000D01*
X73156457Y-89078087D01*
X73215716Y-89299243D01*
X73312477Y-89506749D01*
X73443802Y-89694300D01*
X73605700Y-89856198D01*
X73637770Y-89878653D01*
X73682099Y-89934110D01*
X73691500Y-89981867D01*
X73691500Y-91054709D01*
X73694213Y-91068347D01*
X73698042Y-91087594D01*
X73720649Y-91201247D01*
X73777826Y-91339284D01*
X73860834Y-91463515D01*
X73860838Y-91463519D01*
X89984595Y-107587276D01*
X90018621Y-107649588D01*
X90021500Y-107676371D01*
X90021500Y-138994629D01*
X90001498Y-139062750D01*
X89947842Y-139109243D01*
X89877568Y-139119347D01*
X89812988Y-139089853D01*
X89806405Y-139083724D01*
X87505405Y-136782724D01*
X87471379Y-136720412D01*
X87468500Y-136693629D01*
X87468500Y-134985293D01*
X87468499Y-134985290D01*
X87467170Y-134978610D01*
X87439351Y-134838754D01*
X87382174Y-134700716D01*
X87299165Y-134576484D01*
X87193516Y-134470835D01*
X84663515Y-131940834D01*
X84539284Y-131857826D01*
X84401247Y-131800649D01*
X84327976Y-131786074D01*
X84327975Y-131786073D01*
X84254711Y-131771500D01*
X84254706Y-131771500D01*
X82946450Y-131771500D01*
X82878329Y-131751498D01*
X82831836Y-131697842D01*
X82821732Y-131627568D01*
X82824743Y-131612889D01*
X82863543Y-131468087D01*
X82883498Y-131240000D01*
X82863543Y-131011913D01*
X82804284Y-130790757D01*
X82707523Y-130583251D01*
X82576198Y-130395700D01*
X82414300Y-130233802D01*
X82407463Y-130229015D01*
X82351998Y-130190177D01*
X82226749Y-130102477D01*
X82187543Y-130084195D01*
X82134258Y-130037279D01*
X82114796Y-129969002D01*
X82135337Y-129901042D01*
X82187543Y-129855805D01*
X82189997Y-129854660D01*
X82226749Y-129837523D01*
X82414300Y-129706198D01*
X82576198Y-129544300D01*
X82707523Y-129356749D01*
X82804284Y-129149243D01*
X82863543Y-128928087D01*
X82883498Y-128700000D01*
X82863543Y-128471913D01*
X82804284Y-128250757D01*
X82707523Y-128043251D01*
X82576198Y-127855700D01*
X82414300Y-127693802D01*
X82226749Y-127562477D01*
X82187543Y-127544195D01*
X82134258Y-127497279D01*
X82114796Y-127429002D01*
X82135337Y-127361042D01*
X82187543Y-127315805D01*
X82201898Y-127309111D01*
X82226749Y-127297523D01*
X82414300Y-127166198D01*
X82576198Y-127004300D01*
X82707523Y-126816749D01*
X82804284Y-126609243D01*
X82863543Y-126388087D01*
X82883498Y-126160000D01*
X82863543Y-125931913D01*
X82804284Y-125710757D01*
X82707523Y-125503251D01*
X82576198Y-125315700D01*
X82414300Y-125153802D01*
X82376848Y-125127578D01*
X82226749Y-125022477D01*
X82186951Y-125003919D01*
X82133666Y-124957002D01*
X82114205Y-124888725D01*
X82134747Y-124820765D01*
X82186951Y-124775529D01*
X82226498Y-124757087D01*
X82413974Y-124625815D01*
X82413980Y-124625810D01*
X82575810Y-124463980D01*
X82575815Y-124463974D01*
X82707087Y-124276498D01*
X82803811Y-124069073D01*
X82803813Y-124069068D01*
X82856082Y-123874000D01*
X82000703Y-123874000D01*
X82035925Y-123812993D01*
X82070000Y-123685826D01*
X82070000Y-123554174D01*
X82035925Y-123427007D01*
X82000703Y-123366000D01*
X82856082Y-123366000D01*
X82803813Y-123170931D01*
X82803811Y-123170926D01*
X82707087Y-122963501D01*
X82575815Y-122776025D01*
X82575810Y-122776019D01*
X82413980Y-122614189D01*
X82413974Y-122614184D01*
X82226497Y-122482911D01*
X82186949Y-122464469D01*
X82133665Y-122417551D01*
X82114205Y-122349273D01*
X82134748Y-122281314D01*
X82186950Y-122236081D01*
X82226749Y-122217523D01*
X82414300Y-122086198D01*
X82576198Y-121924300D01*
X82707523Y-121736749D01*
X82804284Y-121529243D01*
X82863543Y-121308087D01*
X82883498Y-121080000D01*
X82863543Y-120851913D01*
X82804284Y-120630757D01*
X82707523Y-120423251D01*
X82576198Y-120235700D01*
X82414300Y-120073802D01*
X82376845Y-120047576D01*
X82351998Y-120030177D01*
X82226749Y-119942477D01*
X82209661Y-119934509D01*
X82187543Y-119924195D01*
X82134258Y-119877279D01*
X82114796Y-119809002D01*
X82135337Y-119741042D01*
X82187543Y-119695805D01*
X82189997Y-119694660D01*
X82226749Y-119677523D01*
X82414300Y-119546198D01*
X82576198Y-119384300D01*
X82707523Y-119196749D01*
X82804284Y-118989243D01*
X82863543Y-118768087D01*
X82883498Y-118540000D01*
X82863543Y-118311913D01*
X82804284Y-118090757D01*
X82707523Y-117883251D01*
X82576198Y-117695700D01*
X82414300Y-117533802D01*
X82414295Y-117533799D01*
X82414292Y-117533796D01*
X82410995Y-117531487D01*
X82366669Y-117476028D01*
X82359363Y-117405409D01*
X82391396Y-117342049D01*
X82452599Y-117306067D01*
X82469801Y-117302999D01*
X82479201Y-117301989D01*
X82616204Y-117250889D01*
X82680182Y-117202996D01*
X82733261Y-117163261D01*
X82820887Y-117046207D01*
X82820887Y-117046206D01*
X82820889Y-117046204D01*
X82871989Y-116909201D01*
X82878500Y-116848638D01*
X82878500Y-115151362D01*
X82878499Y-115151350D01*
X82871990Y-115090803D01*
X82871988Y-115090795D01*
X82835811Y-114993804D01*
X82820889Y-114953796D01*
X82820888Y-114953794D01*
X82820887Y-114953792D01*
X82733261Y-114836738D01*
X82616207Y-114749112D01*
X82616202Y-114749110D01*
X82479204Y-114698011D01*
X82479196Y-114698009D01*
X82418649Y-114691500D01*
X82418638Y-114691500D01*
X80721362Y-114691500D01*
X80721350Y-114691500D01*
X80660803Y-114698009D01*
X80660795Y-114698011D01*
X80523797Y-114749110D01*
X80523792Y-114749112D01*
X80406738Y-114836738D01*
X80319112Y-114953792D01*
X80319110Y-114953797D01*
X80268011Y-115090795D01*
X80268009Y-115090803D01*
X80261500Y-115151350D01*
X80261500Y-116848649D01*
X80268009Y-116909196D01*
X80268011Y-116909204D01*
X80319110Y-117046202D01*
X80319112Y-117046207D01*
X80406738Y-117163261D01*
X80523792Y-117250887D01*
X80523794Y-117250888D01*
X80523796Y-117250889D01*
X80660799Y-117301989D01*
X80670191Y-117302998D01*
X80735784Y-117330163D01*
X80776279Y-117388479D01*
X80778817Y-117459430D01*
X80742593Y-117520490D01*
X80729010Y-117531483D01*
X80725708Y-117533795D01*
X80725697Y-117533804D01*
X80563804Y-117695697D01*
X80563799Y-117695703D01*
X80432477Y-117883250D01*
X80335717Y-118090753D01*
X80335715Y-118090759D01*
X80303116Y-118212421D01*
X80276457Y-118311913D01*
X80256502Y-118540000D01*
X80276457Y-118768087D01*
X80310670Y-118895771D01*
X80335715Y-118989240D01*
X80335717Y-118989246D01*
X80432360Y-119196498D01*
X80432477Y-119196749D01*
X80563802Y-119384300D01*
X80725700Y-119546198D01*
X80913251Y-119677523D01*
X80948359Y-119693894D01*
X80952457Y-119695805D01*
X81005742Y-119742722D01*
X81025203Y-119810999D01*
X81004661Y-119878959D01*
X80952457Y-119924195D01*
X80913250Y-119942477D01*
X80725703Y-120073799D01*
X80725697Y-120073804D01*
X80563804Y-120235697D01*
X80563799Y-120235703D01*
X80432477Y-120423250D01*
X80335717Y-120630753D01*
X80335715Y-120630759D01*
X80276457Y-120851913D01*
X80256502Y-121080000D01*
X80276457Y-121308086D01*
X80335715Y-121529240D01*
X80335717Y-121529246D01*
X80432477Y-121736749D01*
X80522877Y-121865854D01*
X80563802Y-121924300D01*
X80725700Y-122086198D01*
X80913251Y-122217523D01*
X80952457Y-122235805D01*
X80953047Y-122236080D01*
X81006332Y-122282996D01*
X81025794Y-122351273D01*
X81005253Y-122419233D01*
X80953051Y-122464468D01*
X80913504Y-122482910D01*
X80726025Y-122614184D01*
X80726019Y-122614189D01*
X80564189Y-122776019D01*
X80564184Y-122776025D01*
X80432912Y-122963501D01*
X80336188Y-123170926D01*
X80336186Y-123170931D01*
X80283917Y-123366000D01*
X81139297Y-123366000D01*
X81104075Y-123427007D01*
X81070000Y-123554174D01*
X81070000Y-123685826D01*
X81104075Y-123812993D01*
X81139297Y-123874000D01*
X80283918Y-123874000D01*
X80336186Y-124069068D01*
X80336188Y-124069073D01*
X80432912Y-124276498D01*
X80564184Y-124463974D01*
X80564189Y-124463980D01*
X80726019Y-124625810D01*
X80726025Y-124625815D01*
X80913503Y-124757089D01*
X80953049Y-124775530D01*
X81006334Y-124822447D01*
X81025794Y-124890724D01*
X81005252Y-124958684D01*
X80953049Y-125003918D01*
X80913252Y-125022475D01*
X80725703Y-125153799D01*
X80725697Y-125153804D01*
X80563804Y-125315697D01*
X80563799Y-125315703D01*
X80432477Y-125503250D01*
X80335717Y-125710753D01*
X80335716Y-125710757D01*
X80276457Y-125931913D01*
X80256502Y-126160000D01*
X80264760Y-126254395D01*
X80276457Y-126388086D01*
X80335715Y-126609240D01*
X80335717Y-126609246D01*
X80432477Y-126816749D01*
X80563802Y-127004300D01*
X80725700Y-127166198D01*
X80913251Y-127297523D01*
X80938102Y-127309111D01*
X80952457Y-127315805D01*
X81005742Y-127362722D01*
X81025203Y-127430999D01*
X81004661Y-127498959D01*
X80952457Y-127544195D01*
X80913250Y-127562477D01*
X80725703Y-127693799D01*
X80725697Y-127693804D01*
X80563804Y-127855697D01*
X80563799Y-127855703D01*
X80432477Y-128043250D01*
X80335717Y-128250753D01*
X80335715Y-128250759D01*
X80276457Y-128471913D01*
X80256502Y-128700000D01*
X80276457Y-128928086D01*
X80335715Y-129149240D01*
X80335717Y-129149246D01*
X80432477Y-129356749D01*
X80563802Y-129544300D01*
X80725700Y-129706198D01*
X80913251Y-129837523D01*
X80948359Y-129853894D01*
X80952457Y-129855805D01*
X81005742Y-129902722D01*
X81025203Y-129970999D01*
X81004661Y-130038959D01*
X80952457Y-130084195D01*
X80913250Y-130102477D01*
X80725703Y-130233799D01*
X80725697Y-130233804D01*
X80563804Y-130395697D01*
X80563799Y-130395703D01*
X80432477Y-130583250D01*
X80335717Y-130790753D01*
X80335715Y-130790759D01*
X80329304Y-130814686D01*
X80276457Y-131011913D01*
X80256502Y-131240000D01*
X80276457Y-131468087D01*
X80315257Y-131612889D01*
X80313567Y-131683865D01*
X80273773Y-131742661D01*
X80208508Y-131770609D01*
X80193550Y-131771500D01*
X75414405Y-131771500D01*
X75346284Y-131751498D01*
X75299791Y-131697842D01*
X75289958Y-131665218D01*
X75263818Y-131500176D01*
X75195308Y-131289324D01*
X75094657Y-131091785D01*
X74964343Y-130912424D01*
X74964341Y-130912421D01*
X74807581Y-130755661D01*
X74807578Y-130755659D01*
X74807577Y-130755658D01*
X74807576Y-130755657D01*
X74678579Y-130661934D01*
X74635226Y-130605714D01*
X74629151Y-130534978D01*
X74662282Y-130472186D01*
X74678576Y-130458067D01*
X74807576Y-130364343D01*
X74964343Y-130207576D01*
X75094657Y-130028215D01*
X75195308Y-129830676D01*
X75263818Y-129619824D01*
X75298500Y-129400851D01*
X75298500Y-129179149D01*
X75263818Y-128960176D01*
X75195308Y-128749324D01*
X75094657Y-128551785D01*
X74964343Y-128372424D01*
X74964341Y-128372421D01*
X74807578Y-128215658D01*
X74678156Y-128121627D01*
X74634802Y-128065404D01*
X74628727Y-127994668D01*
X74661859Y-127931876D01*
X74678156Y-127917755D01*
X74807253Y-127823959D01*
X74807256Y-127823957D01*
X74963960Y-127667253D01*
X75094227Y-127487956D01*
X75194843Y-127290485D01*
X75194844Y-127290483D01*
X75263330Y-127079709D01*
X75275322Y-127004000D01*
X74036173Y-127004000D01*
X74049111Y-126981591D01*
X74090000Y-126828991D01*
X74090000Y-126671009D01*
X74049111Y-126518409D01*
X74036173Y-126496000D01*
X75275321Y-126496000D01*
X75263330Y-126420290D01*
X75194844Y-126209516D01*
X75194843Y-126209514D01*
X75094227Y-126012043D01*
X74963960Y-125832746D01*
X74807257Y-125676043D01*
X74678155Y-125582244D01*
X74634802Y-125526021D01*
X74628727Y-125455285D01*
X74661859Y-125392493D01*
X74678151Y-125378375D01*
X74807576Y-125284343D01*
X74964343Y-125127576D01*
X75094657Y-124948215D01*
X75195308Y-124750676D01*
X75263818Y-124539824D01*
X75298500Y-124320851D01*
X75298500Y-124099149D01*
X75263818Y-123880176D01*
X75195308Y-123669324D01*
X75094657Y-123471785D01*
X74964343Y-123292424D01*
X74964341Y-123292421D01*
X74807581Y-123135661D01*
X74807578Y-123135659D01*
X74807577Y-123135658D01*
X74807576Y-123135657D01*
X74678579Y-123041934D01*
X74635226Y-122985714D01*
X74629151Y-122914978D01*
X74662282Y-122852186D01*
X74678576Y-122838067D01*
X74807576Y-122744343D01*
X74964343Y-122587576D01*
X75094657Y-122408215D01*
X75195308Y-122210676D01*
X75263818Y-121999824D01*
X75298500Y-121780851D01*
X75298500Y-121559149D01*
X75263818Y-121340176D01*
X75195308Y-121129324D01*
X75094657Y-120931785D01*
X74964343Y-120752424D01*
X74964341Y-120752421D01*
X74807581Y-120595661D01*
X74807578Y-120595659D01*
X74807577Y-120595658D01*
X74807576Y-120595657D01*
X74678579Y-120501934D01*
X74635226Y-120445714D01*
X74629151Y-120374978D01*
X74662282Y-120312186D01*
X74678576Y-120298067D01*
X74807576Y-120204343D01*
X74964343Y-120047576D01*
X75094657Y-119868215D01*
X75195308Y-119670676D01*
X75263818Y-119459824D01*
X75298500Y-119240851D01*
X75298500Y-119019149D01*
X75263818Y-118800176D01*
X75195308Y-118589324D01*
X75094657Y-118391785D01*
X74964343Y-118212424D01*
X74964341Y-118212421D01*
X74807581Y-118055661D01*
X74807578Y-118055659D01*
X74807577Y-118055658D01*
X74807576Y-118055657D01*
X74678579Y-117961934D01*
X74635226Y-117905714D01*
X74629151Y-117834978D01*
X74662282Y-117772186D01*
X74678576Y-117758067D01*
X74807576Y-117664343D01*
X74964343Y-117507576D01*
X75094657Y-117328215D01*
X75195308Y-117130676D01*
X75263818Y-116919824D01*
X75298500Y-116700851D01*
X75298500Y-116479149D01*
X75263818Y-116260176D01*
X75195308Y-116049324D01*
X75094657Y-115851785D01*
X74964343Y-115672424D01*
X74964341Y-115672421D01*
X74807581Y-115515661D01*
X74807578Y-115515659D01*
X74807577Y-115515658D01*
X74807576Y-115515657D01*
X74678579Y-115421934D01*
X74635226Y-115365714D01*
X74629151Y-115294978D01*
X74662282Y-115232186D01*
X74678576Y-115218067D01*
X74807576Y-115124343D01*
X74964343Y-114967576D01*
X75094657Y-114788215D01*
X75195308Y-114590676D01*
X75263818Y-114379824D01*
X75298500Y-114160851D01*
X75298500Y-113939149D01*
X75263818Y-113720176D01*
X75195308Y-113509324D01*
X75094657Y-113311785D01*
X74964343Y-113132424D01*
X74964341Y-113132421D01*
X74807581Y-112975661D01*
X74807578Y-112975659D01*
X74807577Y-112975658D01*
X74807576Y-112975657D01*
X74678579Y-112881934D01*
X74635226Y-112825714D01*
X74629151Y-112754978D01*
X74662282Y-112692186D01*
X74678576Y-112678067D01*
X74807576Y-112584343D01*
X74964343Y-112427576D01*
X75094657Y-112248215D01*
X75195308Y-112050676D01*
X75263818Y-111839824D01*
X75298500Y-111620851D01*
X75298500Y-111399149D01*
X75263818Y-111180176D01*
X75195308Y-110969324D01*
X75094657Y-110771785D01*
X74964343Y-110592424D01*
X74964341Y-110592421D01*
X74807581Y-110435661D01*
X74807578Y-110435659D01*
X74807577Y-110435658D01*
X74807576Y-110435657D01*
X74678579Y-110341934D01*
X74635226Y-110285714D01*
X74629151Y-110214978D01*
X74662282Y-110152186D01*
X74678576Y-110138067D01*
X74807576Y-110044343D01*
X74964343Y-109887576D01*
X75094657Y-109708215D01*
X75195308Y-109510676D01*
X75263818Y-109299824D01*
X75298500Y-109080851D01*
X75298500Y-108859149D01*
X75263818Y-108640176D01*
X75195308Y-108429324D01*
X75094657Y-108231785D01*
X74964343Y-108052424D01*
X74964341Y-108052421D01*
X74807581Y-107895661D01*
X74807578Y-107895659D01*
X74807577Y-107895658D01*
X74807576Y-107895657D01*
X74678579Y-107801934D01*
X74635226Y-107745714D01*
X74629151Y-107674978D01*
X74662282Y-107612186D01*
X74678576Y-107598067D01*
X74807576Y-107504343D01*
X74964343Y-107347576D01*
X75094657Y-107168215D01*
X75195308Y-106970676D01*
X75263818Y-106759824D01*
X75298500Y-106540851D01*
X75298500Y-106319149D01*
X75263818Y-106100176D01*
X75195308Y-105889324D01*
X75094657Y-105691785D01*
X74964343Y-105512424D01*
X74964341Y-105512421D01*
X74807581Y-105355661D01*
X74807578Y-105355659D01*
X74807577Y-105355658D01*
X74807576Y-105355657D01*
X74678579Y-105261934D01*
X74635226Y-105205714D01*
X74629151Y-105134978D01*
X74662282Y-105072186D01*
X74678576Y-105058067D01*
X74807576Y-104964343D01*
X74964343Y-104807576D01*
X75094657Y-104628215D01*
X75195308Y-104430676D01*
X75263818Y-104219824D01*
X75298500Y-104000851D01*
X75298500Y-103779149D01*
X75263818Y-103560176D01*
X75195308Y-103349324D01*
X75094657Y-103151785D01*
X74964343Y-102972424D01*
X74964341Y-102972421D01*
X74807581Y-102815661D01*
X74807578Y-102815659D01*
X74807577Y-102815658D01*
X74807576Y-102815657D01*
X74678579Y-102721934D01*
X74635226Y-102665714D01*
X74629151Y-102594978D01*
X74662282Y-102532186D01*
X74678576Y-102518067D01*
X74807576Y-102424343D01*
X74964343Y-102267576D01*
X75094657Y-102088215D01*
X75195308Y-101890676D01*
X75263818Y-101679824D01*
X75298500Y-101460851D01*
X75298500Y-101239149D01*
X75263818Y-101020176D01*
X75195308Y-100809324D01*
X75094657Y-100611785D01*
X74964343Y-100432424D01*
X74964341Y-100432421D01*
X74807581Y-100275661D01*
X74807578Y-100275659D01*
X74807577Y-100275658D01*
X74807576Y-100275657D01*
X74678579Y-100181934D01*
X74635226Y-100125714D01*
X74629151Y-100054978D01*
X74662282Y-99992186D01*
X74678576Y-99978067D01*
X74807576Y-99884343D01*
X74964343Y-99727576D01*
X75094657Y-99548215D01*
X75195308Y-99350676D01*
X75263818Y-99139824D01*
X75298500Y-98920851D01*
X75298500Y-98699149D01*
X75263818Y-98480176D01*
X75195308Y-98269324D01*
X75094657Y-98071785D01*
X75049946Y-98010246D01*
X74964341Y-97892421D01*
X74807578Y-97735658D01*
X74628218Y-97605345D01*
X74628217Y-97605344D01*
X74628215Y-97605343D01*
X74430676Y-97504692D01*
X74430673Y-97504691D01*
X74430671Y-97504690D01*
X74219829Y-97436183D01*
X74219825Y-97436182D01*
X74219824Y-97436182D01*
X74000851Y-97401500D01*
X72979149Y-97401500D01*
X72760176Y-97436182D01*
X72760170Y-97436183D01*
X72549328Y-97504690D01*
X72549322Y-97504693D01*
X72351781Y-97605345D01*
X72172421Y-97735658D01*
X72015658Y-97892421D01*
X71885345Y-98071781D01*
X71784693Y-98269322D01*
X71784690Y-98269328D01*
X71716183Y-98480170D01*
X71716182Y-98480175D01*
X71716182Y-98480176D01*
X71681500Y-98699149D01*
X71681500Y-98920851D01*
X71716182Y-99139824D01*
X71716183Y-99139829D01*
X71784690Y-99350671D01*
X71784692Y-99350676D01*
X71883122Y-99543856D01*
X71885345Y-99548218D01*
X72015658Y-99727578D01*
X72172421Y-99884341D01*
X72301419Y-99978064D01*
X72344773Y-100034287D01*
X72350848Y-100105023D01*
X72317716Y-100167815D01*
X72301419Y-100181936D01*
X72172421Y-100275658D01*
X72015658Y-100432421D01*
X71885345Y-100611781D01*
X71784693Y-100809322D01*
X71784690Y-100809328D01*
X71716183Y-101020170D01*
X71716182Y-101020175D01*
X71716182Y-101020176D01*
X71681500Y-101239149D01*
X71681500Y-101460851D01*
X71716182Y-101679824D01*
X71716183Y-101679829D01*
X71784690Y-101890671D01*
X71784692Y-101890676D01*
X71784693Y-101890677D01*
X71885345Y-102088218D01*
X72015658Y-102267578D01*
X72172421Y-102424341D01*
X72301419Y-102518064D01*
X72344773Y-102574287D01*
X72350848Y-102645023D01*
X72317716Y-102707815D01*
X72301419Y-102721936D01*
X72172421Y-102815658D01*
X72015658Y-102972421D01*
X71885345Y-103151781D01*
X71784693Y-103349322D01*
X71784690Y-103349328D01*
X71716183Y-103560170D01*
X71716182Y-103560175D01*
X71716182Y-103560176D01*
X71681500Y-103779149D01*
X71681500Y-104000851D01*
X71716182Y-104219824D01*
X71716183Y-104219829D01*
X71782852Y-104425013D01*
X71784692Y-104430676D01*
X71868626Y-104595406D01*
X71885345Y-104628218D01*
X72015658Y-104807578D01*
X72172421Y-104964341D01*
X72301419Y-105058064D01*
X72344773Y-105114287D01*
X72350848Y-105185023D01*
X72317716Y-105247815D01*
X72301419Y-105261936D01*
X72172421Y-105355658D01*
X72015658Y-105512421D01*
X71885345Y-105691781D01*
X71784693Y-105889322D01*
X71784690Y-105889328D01*
X71716183Y-106100170D01*
X71716182Y-106100175D01*
X71716182Y-106100176D01*
X71681500Y-106319149D01*
X71681500Y-106540851D01*
X71713570Y-106743332D01*
X71716183Y-106759829D01*
X71784690Y-106970671D01*
X71784692Y-106970676D01*
X71847409Y-107093765D01*
X71885345Y-107168218D01*
X72015658Y-107347578D01*
X72172421Y-107504341D01*
X72301419Y-107598064D01*
X72344773Y-107654287D01*
X72350848Y-107725023D01*
X72317716Y-107787815D01*
X72301419Y-107801936D01*
X72172421Y-107895658D01*
X72015658Y-108052421D01*
X71885345Y-108231781D01*
X71784693Y-108429322D01*
X71784690Y-108429328D01*
X71716183Y-108640170D01*
X71716182Y-108640175D01*
X71716182Y-108640176D01*
X71681500Y-108859149D01*
X71681500Y-109080851D01*
X71716182Y-109299824D01*
X71716183Y-109299829D01*
X71784690Y-109510671D01*
X71784692Y-109510676D01*
X71784693Y-109510677D01*
X71885345Y-109708218D01*
X72015658Y-109887578D01*
X72172421Y-110044341D01*
X72301419Y-110138064D01*
X72344773Y-110194287D01*
X72350848Y-110265023D01*
X72317716Y-110327815D01*
X72301419Y-110341936D01*
X72172421Y-110435658D01*
X72015658Y-110592421D01*
X71885345Y-110771781D01*
X71784693Y-110969322D01*
X71784690Y-110969328D01*
X71716183Y-111180170D01*
X71716182Y-111180175D01*
X71716182Y-111180176D01*
X71681500Y-111399149D01*
X71681500Y-111620851D01*
X71701780Y-111748894D01*
X71716183Y-111839829D01*
X71784690Y-112050671D01*
X71784692Y-112050676D01*
X71885343Y-112248215D01*
X71885345Y-112248218D01*
X72015658Y-112427578D01*
X72172421Y-112584341D01*
X72301419Y-112678064D01*
X72344773Y-112734287D01*
X72350848Y-112805023D01*
X72317716Y-112867815D01*
X72301419Y-112881936D01*
X72172421Y-112975658D01*
X72015658Y-113132421D01*
X71885345Y-113311781D01*
X71784693Y-113509322D01*
X71784690Y-113509328D01*
X71716183Y-113720170D01*
X71716182Y-113720175D01*
X71716182Y-113720176D01*
X71681500Y-113939149D01*
X71681500Y-114160851D01*
X71716182Y-114379824D01*
X71716183Y-114379829D01*
X71775261Y-114561651D01*
X71784692Y-114590676D01*
X71873880Y-114765717D01*
X71885345Y-114788218D01*
X72015658Y-114967578D01*
X72172421Y-115124341D01*
X72301419Y-115218064D01*
X72344773Y-115274287D01*
X72350848Y-115345023D01*
X72317716Y-115407815D01*
X72301419Y-115421936D01*
X72172421Y-115515658D01*
X72015658Y-115672421D01*
X71885345Y-115851781D01*
X71784693Y-116049322D01*
X71784690Y-116049328D01*
X71716183Y-116260170D01*
X71716182Y-116260175D01*
X71716182Y-116260176D01*
X71681500Y-116479149D01*
X71681500Y-116700851D01*
X71714500Y-116909204D01*
X71716183Y-116919829D01*
X71757245Y-117046204D01*
X71784692Y-117130676D01*
X71885343Y-117328215D01*
X71885345Y-117328218D01*
X72015658Y-117507578D01*
X72172421Y-117664341D01*
X72301419Y-117758064D01*
X72344773Y-117814287D01*
X72350848Y-117885023D01*
X72317716Y-117947815D01*
X72301419Y-117961936D01*
X72172421Y-118055658D01*
X72015658Y-118212421D01*
X71885345Y-118391781D01*
X71784693Y-118589322D01*
X71784690Y-118589328D01*
X71716183Y-118800170D01*
X71716182Y-118800175D01*
X71716182Y-118800176D01*
X71681500Y-119019149D01*
X71681500Y-119240851D01*
X71712928Y-119439277D01*
X71716183Y-119459829D01*
X71784690Y-119670671D01*
X71784692Y-119670676D01*
X71885343Y-119868215D01*
X71885345Y-119868218D01*
X72015658Y-120047578D01*
X72172421Y-120204341D01*
X72301419Y-120298064D01*
X72344773Y-120354287D01*
X72350848Y-120425023D01*
X72317716Y-120487815D01*
X72301419Y-120501936D01*
X72172421Y-120595658D01*
X72015658Y-120752421D01*
X71885345Y-120931781D01*
X71784693Y-121129322D01*
X71784690Y-121129328D01*
X71716183Y-121340170D01*
X71716182Y-121340175D01*
X71716182Y-121340176D01*
X71681500Y-121559149D01*
X71681500Y-121780851D01*
X71716182Y-121999824D01*
X71716183Y-121999829D01*
X71744247Y-122086200D01*
X71784692Y-122210676D01*
X71885343Y-122408215D01*
X71885345Y-122408218D01*
X72015658Y-122587578D01*
X72172421Y-122744341D01*
X72301419Y-122838064D01*
X72344773Y-122894287D01*
X72350848Y-122965023D01*
X72317716Y-123027815D01*
X72301419Y-123041936D01*
X72172421Y-123135658D01*
X72015658Y-123292421D01*
X71885345Y-123471781D01*
X71784693Y-123669322D01*
X71784690Y-123669328D01*
X71716183Y-123880170D01*
X71716182Y-123880175D01*
X71716182Y-123880176D01*
X71681500Y-124099149D01*
X71681500Y-124320851D01*
X71716182Y-124539824D01*
X71716183Y-124539829D01*
X71750109Y-124644242D01*
X71784692Y-124750676D01*
X71885343Y-124948215D01*
X71885345Y-124948218D01*
X72015658Y-125127578D01*
X72172421Y-125284341D01*
X72301843Y-125378372D01*
X72345197Y-125434595D01*
X72351272Y-125505331D01*
X72318140Y-125568122D01*
X72301844Y-125582243D01*
X72172748Y-125676037D01*
X72016039Y-125832746D01*
X71885772Y-126012043D01*
X71785156Y-126209514D01*
X71785155Y-126209516D01*
X71716669Y-126420290D01*
X71704678Y-126496000D01*
X72943827Y-126496000D01*
X72930889Y-126518409D01*
X72890000Y-126671009D01*
X72890000Y-126828991D01*
X72930889Y-126981591D01*
X72943827Y-127004000D01*
X71704678Y-127004000D01*
X71716669Y-127079709D01*
X71785155Y-127290483D01*
X71785156Y-127290485D01*
X71885772Y-127487956D01*
X72016039Y-127667253D01*
X72172746Y-127823960D01*
X72301843Y-127917755D01*
X72345197Y-127973978D01*
X72351272Y-128044714D01*
X72318140Y-128107506D01*
X72301844Y-128121626D01*
X72172423Y-128215656D01*
X72015658Y-128372421D01*
X71885345Y-128551781D01*
X71784693Y-128749322D01*
X71784690Y-128749328D01*
X71716183Y-128960170D01*
X71716182Y-128960175D01*
X71716182Y-128960176D01*
X71681500Y-129179149D01*
X71681500Y-129400851D01*
X71716182Y-129619824D01*
X71716183Y-129619829D01*
X71744247Y-129706200D01*
X71784692Y-129830676D01*
X71885343Y-130028215D01*
X71885345Y-130028218D01*
X72015658Y-130207578D01*
X72172421Y-130364341D01*
X72301419Y-130458064D01*
X72344773Y-130514287D01*
X72350848Y-130585023D01*
X72317716Y-130647815D01*
X72301419Y-130661936D01*
X72172421Y-130755658D01*
X72015658Y-130912421D01*
X71885345Y-131091781D01*
X71784693Y-131289322D01*
X71784690Y-131289328D01*
X71716183Y-131500170D01*
X71716182Y-131500175D01*
X71716182Y-131500176D01*
X71681500Y-131719149D01*
X71681500Y-131940851D01*
X71716182Y-132159824D01*
X71716183Y-132159829D01*
X71769364Y-132323502D01*
X71784692Y-132370676D01*
X71885343Y-132568215D01*
X71885345Y-132568218D01*
X72015658Y-132747578D01*
X72172421Y-132904341D01*
X72301419Y-132998064D01*
X72344773Y-133054287D01*
X72350848Y-133125023D01*
X72317716Y-133187815D01*
X72301419Y-133201936D01*
X72172421Y-133295658D01*
X72015658Y-133452421D01*
X71885345Y-133631781D01*
X71784693Y-133829322D01*
X71784690Y-133829328D01*
X71716183Y-134040170D01*
X71716182Y-134040175D01*
X71716182Y-134040176D01*
X71681500Y-134259149D01*
X71681500Y-134480851D01*
X71716182Y-134699824D01*
X71716183Y-134699829D01*
X71784690Y-134910671D01*
X71784692Y-134910676D01*
X71885343Y-135108215D01*
X71885345Y-135108218D01*
X72015658Y-135287578D01*
X72055658Y-135327578D01*
X72089684Y-135389890D01*
X72084619Y-135460705D01*
X72042072Y-135517541D01*
X72010597Y-135534728D01*
X71944037Y-135559554D01*
X71944034Y-135559555D01*
X71827095Y-135647095D01*
X71739555Y-135764034D01*
X71739555Y-135764035D01*
X71688505Y-135900906D01*
X71682000Y-135961402D01*
X71682000Y-136656000D01*
X72943827Y-136656000D01*
X72930889Y-136678409D01*
X72890000Y-136831009D01*
X72890000Y-136988991D01*
X72930889Y-137141591D01*
X72943827Y-137164000D01*
X71682000Y-137164000D01*
X71682000Y-137858597D01*
X71688505Y-137919093D01*
X71739555Y-138055964D01*
X71739555Y-138055965D01*
X71827095Y-138172904D01*
X71944034Y-138260444D01*
X72080906Y-138311494D01*
X72141402Y-138317999D01*
X72141415Y-138318000D01*
X73236000Y-138318000D01*
X73236000Y-137456173D01*
X73258409Y-137469111D01*
X73411009Y-137510000D01*
X73568991Y-137510000D01*
X73721591Y-137469111D01*
X73744000Y-137456173D01*
X73744000Y-138318000D01*
X74838585Y-138318000D01*
X74838597Y-138317999D01*
X74899093Y-138311494D01*
X75035964Y-138260444D01*
X75035965Y-138260444D01*
X75152904Y-138172904D01*
X75240444Y-138055965D01*
X75240444Y-138055964D01*
X75291494Y-137919093D01*
X75297999Y-137858597D01*
X75298000Y-137858585D01*
X75298000Y-137164000D01*
X74036173Y-137164000D01*
X74049111Y-137141591D01*
X74090000Y-136988991D01*
X74090000Y-136831009D01*
X74049111Y-136678409D01*
X74036173Y-136656000D01*
X75298000Y-136656000D01*
X75298000Y-135961414D01*
X75297999Y-135961399D01*
X75294405Y-135927969D01*
X75307011Y-135858100D01*
X75355389Y-135806138D01*
X75419683Y-135788500D01*
X80193550Y-135788500D01*
X80261671Y-135808502D01*
X80308164Y-135862158D01*
X80318268Y-135932432D01*
X80315257Y-135947108D01*
X80276457Y-136091913D01*
X80256502Y-136320000D01*
X80276457Y-136548087D01*
X80283271Y-136573516D01*
X80335715Y-136769240D01*
X80335717Y-136769246D01*
X80374393Y-136852187D01*
X80432477Y-136976749D01*
X80563802Y-137164300D01*
X80725700Y-137326198D01*
X80913251Y-137457523D01*
X80938102Y-137469111D01*
X80952457Y-137475805D01*
X81005742Y-137522722D01*
X81025203Y-137590999D01*
X81004661Y-137658959D01*
X80952457Y-137704195D01*
X80913250Y-137722477D01*
X80725703Y-137853799D01*
X80725697Y-137853804D01*
X80563804Y-138015697D01*
X80563799Y-138015703D01*
X80432477Y-138203250D01*
X80335717Y-138410753D01*
X80335715Y-138410759D01*
X80276457Y-138631913D01*
X80256502Y-138860000D01*
X80268280Y-138994629D01*
X80276457Y-139088086D01*
X80335715Y-139309240D01*
X80335717Y-139309246D01*
X80432477Y-139516749D01*
X80528443Y-139653803D01*
X80563802Y-139704300D01*
X80725700Y-139866198D01*
X80913251Y-139997523D01*
X80948359Y-140013894D01*
X80952457Y-140015805D01*
X81005742Y-140062722D01*
X81025203Y-140130999D01*
X81004661Y-140198959D01*
X80952457Y-140244195D01*
X80913250Y-140262477D01*
X80725703Y-140393799D01*
X80725697Y-140393804D01*
X80563804Y-140555697D01*
X80563799Y-140555703D01*
X80432477Y-140743250D01*
X80335717Y-140950753D01*
X80335715Y-140950759D01*
X80276457Y-141171913D01*
X80256502Y-141400000D01*
X80276457Y-141628086D01*
X80335715Y-141849240D01*
X80335717Y-141849246D01*
X80432477Y-142056749D01*
X80517729Y-142178502D01*
X80563802Y-142244300D01*
X80725700Y-142406198D01*
X80913251Y-142537523D01*
X80948359Y-142553894D01*
X80952457Y-142555805D01*
X81005742Y-142602722D01*
X81025203Y-142670999D01*
X81004661Y-142738959D01*
X80952457Y-142784195D01*
X80913250Y-142802477D01*
X80725703Y-142933799D01*
X80725697Y-142933804D01*
X80563804Y-143095697D01*
X80563799Y-143095703D01*
X80432477Y-143283250D01*
X80335717Y-143490753D01*
X80335715Y-143490759D01*
X80276457Y-143711913D01*
X80256502Y-143940000D01*
X80276457Y-144168086D01*
X80335715Y-144389240D01*
X80335717Y-144389246D01*
X80348939Y-144417600D01*
X80432477Y-144596749D01*
X80563802Y-144784300D01*
X80725700Y-144946198D01*
X80913251Y-145077523D01*
X80948359Y-145093894D01*
X80952457Y-145095805D01*
X81005742Y-145142722D01*
X81025203Y-145210999D01*
X81004661Y-145278959D01*
X80952457Y-145324195D01*
X80913250Y-145342477D01*
X80725703Y-145473799D01*
X80725697Y-145473804D01*
X80563804Y-145635697D01*
X80563797Y-145635706D01*
X80541344Y-145667772D01*
X80485887Y-145712100D01*
X80438132Y-145721500D01*
X72526371Y-145721500D01*
X72458250Y-145701498D01*
X72437276Y-145684595D01*
X69161776Y-142409095D01*
X71476807Y-142409095D01*
X71476807Y-142409104D01*
X71495556Y-142683216D01*
X71495557Y-142683222D01*
X71495558Y-142683230D01*
X71500231Y-142705716D01*
X71551460Y-142952246D01*
X71551462Y-142952254D01*
X71643477Y-143211158D01*
X71749523Y-143415819D01*
X71769892Y-143455128D01*
X71796554Y-143492899D01*
X71928343Y-143679602D01*
X72115889Y-143880414D01*
X72329031Y-144053818D01*
X72563800Y-144196584D01*
X72815823Y-144306053D01*
X73080404Y-144380185D01*
X73146327Y-144389246D01*
X73352604Y-144417599D01*
X73352615Y-144417600D01*
X73627385Y-144417600D01*
X73627395Y-144417599D01*
X73756945Y-144399792D01*
X73899596Y-144380185D01*
X74164177Y-144306053D01*
X74416200Y-144196584D01*
X74650969Y-144053818D01*
X74864111Y-143880414D01*
X75051657Y-143679602D01*
X75210111Y-143455123D01*
X75336523Y-143211158D01*
X75428538Y-142952253D01*
X75484442Y-142683230D01*
X75503193Y-142409100D01*
X75502994Y-142406198D01*
X75484443Y-142134983D01*
X75484442Y-142134977D01*
X75484442Y-142134970D01*
X75428538Y-141865947D01*
X75336523Y-141607042D01*
X75210111Y-141363077D01*
X75051657Y-141138598D01*
X74864111Y-140937786D01*
X74650969Y-140764382D01*
X74416200Y-140621616D01*
X74416201Y-140621616D01*
X74416197Y-140621614D01*
X74164180Y-140512148D01*
X74164178Y-140512147D01*
X74164177Y-140512147D01*
X73927449Y-140445819D01*
X73899593Y-140438014D01*
X73627395Y-140400600D01*
X73627385Y-140400600D01*
X73352615Y-140400600D01*
X73352604Y-140400600D01*
X73080406Y-140438014D01*
X72815819Y-140512148D01*
X72563802Y-140621614D01*
X72372012Y-140738244D01*
X72363780Y-140743251D01*
X72329028Y-140764384D01*
X72115886Y-140937788D01*
X71928343Y-141138598D01*
X71769892Y-141363071D01*
X71643477Y-141607041D01*
X71551462Y-141865945D01*
X71551460Y-141865953D01*
X71495557Y-142134977D01*
X71495556Y-142134983D01*
X71476807Y-142409095D01*
X69161776Y-142409095D01*
X67235405Y-140482724D01*
X67201379Y-140420412D01*
X67198500Y-140393629D01*
X67198500Y-93791867D01*
X67218502Y-93723746D01*
X67252228Y-93688654D01*
X67284300Y-93666198D01*
X67446198Y-93504300D01*
X67577523Y-93316749D01*
X67674284Y-93109243D01*
X67733543Y-92888087D01*
X67753498Y-92660000D01*
X67733543Y-92431913D01*
X67674284Y-92210757D01*
X67577523Y-92003251D01*
X67446198Y-91815700D01*
X67284300Y-91653802D01*
X67096749Y-91522477D01*
X66889246Y-91425717D01*
X66889240Y-91425715D01*
X66795771Y-91400670D01*
X66668087Y-91366457D01*
X66440000Y-91346502D01*
X66211913Y-91366457D01*
X65990759Y-91425715D01*
X65990753Y-91425717D01*
X65783250Y-91522477D01*
X65595703Y-91653799D01*
X65595697Y-91653804D01*
X65433804Y-91815697D01*
X65433799Y-91815703D01*
X65302477Y-92003250D01*
X65205717Y-92210753D01*
X65205716Y-92210757D01*
X65146457Y-92431913D01*
X65126502Y-92660000D01*
X61601110Y-92660000D01*
X61601278Y-85040000D01*
X65126502Y-85040000D01*
X65146457Y-85268086D01*
X65205715Y-85489240D01*
X65205717Y-85489246D01*
X65235563Y-85553251D01*
X65302477Y-85696749D01*
X65433802Y-85884300D01*
X65595700Y-86046198D01*
X65783251Y-86177523D01*
X65990757Y-86274284D01*
X66211913Y-86333543D01*
X66440000Y-86353498D01*
X66668087Y-86333543D01*
X66889243Y-86274284D01*
X67027101Y-86210000D01*
X85336502Y-86210000D01*
X85356457Y-86438087D01*
X85390670Y-86565771D01*
X85415715Y-86659240D01*
X85415717Y-86659246D01*
X85512477Y-86866749D01*
X85602092Y-86994733D01*
X85643802Y-87054300D01*
X85805700Y-87216198D01*
X85993251Y-87347523D01*
X86200757Y-87444284D01*
X86421913Y-87503543D01*
X86650000Y-87523498D01*
X86878087Y-87503543D01*
X87099243Y-87444284D01*
X87306749Y-87347523D01*
X87494300Y-87216198D01*
X87656198Y-87054300D01*
X87787523Y-86866749D01*
X87884284Y-86659243D01*
X87943543Y-86438087D01*
X87963498Y-86210000D01*
X91159835Y-86210000D01*
X91179790Y-86438087D01*
X91214003Y-86565771D01*
X91239048Y-86659240D01*
X91239050Y-86659246D01*
X91335810Y-86866749D01*
X91425425Y-86994733D01*
X91467135Y-87054300D01*
X91629033Y-87216198D01*
X91816584Y-87347523D01*
X92024090Y-87444284D01*
X92245246Y-87503543D01*
X92473333Y-87523498D01*
X92701420Y-87503543D01*
X92922576Y-87444284D01*
X93130082Y-87347523D01*
X93317633Y-87216198D01*
X93479531Y-87054300D01*
X93610856Y-86866749D01*
X93707617Y-86659243D01*
X93766876Y-86438087D01*
X93786831Y-86210000D01*
X96983168Y-86210000D01*
X97003123Y-86438087D01*
X97037336Y-86565771D01*
X97062381Y-86659240D01*
X97062383Y-86659246D01*
X97159143Y-86866749D01*
X97248758Y-86994733D01*
X97290468Y-87054300D01*
X97452366Y-87216198D01*
X97639917Y-87347523D01*
X97847423Y-87444284D01*
X98068579Y-87503543D01*
X98296666Y-87523498D01*
X98524753Y-87503543D01*
X98745909Y-87444284D01*
X98953415Y-87347523D01*
X99140966Y-87216198D01*
X99302864Y-87054300D01*
X99434189Y-86866749D01*
X99530950Y-86659243D01*
X99590209Y-86438087D01*
X99610164Y-86210000D01*
X102806502Y-86210000D01*
X102826457Y-86438087D01*
X102860670Y-86565771D01*
X102885715Y-86659240D01*
X102885717Y-86659246D01*
X102982477Y-86866749D01*
X103072092Y-86994733D01*
X103113802Y-87054300D01*
X103275700Y-87216198D01*
X103463251Y-87347523D01*
X103670757Y-87444284D01*
X103891913Y-87503543D01*
X104120000Y-87523498D01*
X104348087Y-87503543D01*
X104569243Y-87444284D01*
X104776749Y-87347523D01*
X104964300Y-87216198D01*
X105126198Y-87054300D01*
X105257523Y-86866749D01*
X105354284Y-86659243D01*
X105413543Y-86438087D01*
X105426936Y-86285000D01*
X110044181Y-86285000D01*
X110063428Y-86529557D01*
X110120695Y-86768092D01*
X110214573Y-86994732D01*
X110214574Y-86994733D01*
X110342745Y-87203892D01*
X110342746Y-87203894D01*
X110342748Y-87203896D01*
X110502067Y-87390433D01*
X110688604Y-87549752D01*
X110688606Y-87549753D01*
X110688607Y-87549754D01*
X110724719Y-87571883D01*
X110897768Y-87677927D01*
X111124408Y-87771805D01*
X111362943Y-87829072D01*
X111607500Y-87848319D01*
X111852057Y-87829072D01*
X112090592Y-87771805D01*
X112317232Y-87677927D01*
X112526396Y-87549752D01*
X112712933Y-87390433D01*
X112872252Y-87203896D01*
X113000427Y-86994732D01*
X113094305Y-86768092D01*
X113151572Y-86529557D01*
X113169840Y-86297431D01*
X113195124Y-86231094D01*
X113252262Y-86188954D01*
X113323112Y-86184395D01*
X113355421Y-86196507D01*
X113539850Y-86296315D01*
X113539851Y-86296315D01*
X113539852Y-86296316D01*
X113648289Y-86333542D01*
X113756707Y-86370762D01*
X113982860Y-86408500D01*
X113982864Y-86408500D01*
X114212136Y-86408500D01*
X114212140Y-86408500D01*
X114438293Y-86370762D01*
X114655150Y-86296315D01*
X114856796Y-86187190D01*
X115037731Y-86046363D01*
X115193018Y-85877676D01*
X115318422Y-85685730D01*
X115410523Y-85475761D01*
X115466808Y-85253497D01*
X115485742Y-85025000D01*
X115466808Y-84796503D01*
X115466806Y-84796495D01*
X115410524Y-84574242D01*
X115410521Y-84574235D01*
X115318426Y-84364279D01*
X115318425Y-84364278D01*
X115318422Y-84364270D01*
X115193018Y-84172324D01*
X115037731Y-84003637D01*
X114856796Y-83862810D01*
X114856795Y-83862809D01*
X114751293Y-83805715D01*
X114655150Y-83753685D01*
X114655148Y-83753684D01*
X114655147Y-83753683D01*
X114438297Y-83679239D01*
X114438288Y-83679237D01*
X114393321Y-83671733D01*
X114212140Y-83641500D01*
X113982860Y-83641500D01*
X113831912Y-83666688D01*
X113756711Y-83679237D01*
X113756702Y-83679239D01*
X113539852Y-83753683D01*
X113539850Y-83753685D01*
X113338204Y-83862809D01*
X113338203Y-83862810D01*
X113157266Y-84003639D01*
X113001979Y-84172327D01*
X112876580Y-84364267D01*
X112876573Y-84364279D01*
X112784478Y-84574235D01*
X112784475Y-84574242D01*
X112728193Y-84796495D01*
X112717697Y-84923157D01*
X112692137Y-84989393D01*
X112634825Y-85031296D01*
X112563957Y-85035562D01*
X112526293Y-85020184D01*
X112357023Y-84916457D01*
X112317232Y-84892073D01*
X112090592Y-84798195D01*
X111852057Y-84740928D01*
X111607500Y-84721681D01*
X111362943Y-84740928D01*
X111124407Y-84798195D01*
X110897766Y-84892074D01*
X110688607Y-85020245D01*
X110502067Y-85179567D01*
X110342745Y-85366107D01*
X110214574Y-85575266D01*
X110137740Y-85760759D01*
X110120695Y-85801908D01*
X110063428Y-86040443D01*
X110044181Y-86285000D01*
X105426936Y-86285000D01*
X105433498Y-86210000D01*
X105413543Y-85981913D01*
X105354284Y-85760757D01*
X105257523Y-85553251D01*
X105126198Y-85365700D01*
X104964300Y-85203802D01*
X104776749Y-85072477D01*
X104569246Y-84975717D01*
X104569240Y-84975715D01*
X104475771Y-84950670D01*
X104348087Y-84916457D01*
X104120000Y-84896502D01*
X103891913Y-84916457D01*
X103670759Y-84975715D01*
X103670753Y-84975717D01*
X103463250Y-85072477D01*
X103275703Y-85203799D01*
X103275697Y-85203804D01*
X103113804Y-85365697D01*
X103113799Y-85365703D01*
X102982477Y-85553250D01*
X102885717Y-85760753D01*
X102885715Y-85760759D01*
X102852612Y-85884302D01*
X102826457Y-85981913D01*
X102806502Y-86210000D01*
X99610164Y-86210000D01*
X99590209Y-85981913D01*
X99530950Y-85760757D01*
X99434189Y-85553251D01*
X99302864Y-85365700D01*
X99140966Y-85203802D01*
X98953415Y-85072477D01*
X98745912Y-84975717D01*
X98745906Y-84975715D01*
X98652437Y-84950670D01*
X98524753Y-84916457D01*
X98296666Y-84896502D01*
X98068579Y-84916457D01*
X97847425Y-84975715D01*
X97847419Y-84975717D01*
X97639916Y-85072477D01*
X97452369Y-85203799D01*
X97452363Y-85203804D01*
X97290470Y-85365697D01*
X97290465Y-85365703D01*
X97159143Y-85553250D01*
X97062383Y-85760753D01*
X97062381Y-85760759D01*
X97029278Y-85884302D01*
X97003123Y-85981913D01*
X96983168Y-86210000D01*
X93786831Y-86210000D01*
X93766876Y-85981913D01*
X93707617Y-85760757D01*
X93610856Y-85553251D01*
X93479531Y-85365700D01*
X93317633Y-85203802D01*
X93130082Y-85072477D01*
X92922579Y-84975717D01*
X92922573Y-84975715D01*
X92829104Y-84950670D01*
X92701420Y-84916457D01*
X92473333Y-84896502D01*
X92245246Y-84916457D01*
X92024092Y-84975715D01*
X92024086Y-84975717D01*
X91816583Y-85072477D01*
X91629036Y-85203799D01*
X91629030Y-85203804D01*
X91467137Y-85365697D01*
X91467132Y-85365703D01*
X91335810Y-85553250D01*
X91239050Y-85760753D01*
X91239048Y-85760759D01*
X91205945Y-85884302D01*
X91179790Y-85981913D01*
X91159835Y-86210000D01*
X87963498Y-86210000D01*
X87943543Y-85981913D01*
X87884284Y-85760757D01*
X87787523Y-85553251D01*
X87656198Y-85365700D01*
X87494300Y-85203802D01*
X87306749Y-85072477D01*
X87099246Y-84975717D01*
X87099240Y-84975715D01*
X87005771Y-84950670D01*
X86878087Y-84916457D01*
X86650000Y-84896502D01*
X86421913Y-84916457D01*
X86200759Y-84975715D01*
X86200753Y-84975717D01*
X85993250Y-85072477D01*
X85805703Y-85203799D01*
X85805697Y-85203804D01*
X85643804Y-85365697D01*
X85643799Y-85365703D01*
X85512477Y-85553250D01*
X85415717Y-85760753D01*
X85415715Y-85760759D01*
X85382612Y-85884302D01*
X85356457Y-85981913D01*
X85336502Y-86210000D01*
X67027101Y-86210000D01*
X67096749Y-86177523D01*
X67284300Y-86046198D01*
X67446198Y-85884300D01*
X67577523Y-85696749D01*
X67674284Y-85489243D01*
X67733543Y-85268087D01*
X67753498Y-85040000D01*
X67733543Y-84811913D01*
X67674284Y-84590757D01*
X67577523Y-84383251D01*
X67446198Y-84195700D01*
X67284300Y-84033802D01*
X67096749Y-83902477D01*
X67068047Y-83889093D01*
X66889246Y-83805717D01*
X66889240Y-83805715D01*
X66795771Y-83780670D01*
X66668087Y-83746457D01*
X66440000Y-83726502D01*
X66211913Y-83746457D01*
X65990759Y-83805715D01*
X65990753Y-83805717D01*
X65783250Y-83902477D01*
X65595703Y-84033799D01*
X65595697Y-84033804D01*
X65433804Y-84195697D01*
X65433799Y-84195703D01*
X65302477Y-84383250D01*
X65205717Y-84590753D01*
X65205715Y-84590759D01*
X65146457Y-84811913D01*
X65126502Y-85040000D01*
X61601278Y-85040000D01*
X61601353Y-81640000D01*
X65116502Y-81640000D01*
X65128050Y-81772000D01*
X65136457Y-81868086D01*
X65195715Y-82089240D01*
X65195717Y-82089246D01*
X65292477Y-82296749D01*
X65409786Y-82464284D01*
X65423802Y-82484300D01*
X65585700Y-82646198D01*
X65773251Y-82777523D01*
X65980757Y-82874284D01*
X66201913Y-82933543D01*
X66430000Y-82953498D01*
X66658087Y-82933543D01*
X66879243Y-82874284D01*
X67086749Y-82777523D01*
X67274300Y-82646198D01*
X67436198Y-82484300D01*
X67567523Y-82296749D01*
X67664284Y-82089243D01*
X67723543Y-81868087D01*
X67743498Y-81640000D01*
X70117004Y-81640000D01*
X70136951Y-81868002D01*
X70196186Y-82089068D01*
X70196188Y-82089073D01*
X70292913Y-82296501D01*
X70342899Y-82367888D01*
X71030000Y-81680788D01*
X71030000Y-81692661D01*
X71057259Y-81794394D01*
X71109920Y-81885606D01*
X71184394Y-81960080D01*
X71275606Y-82012741D01*
X71377339Y-82040000D01*
X71389210Y-82040000D01*
X70702110Y-82727098D01*
X70702110Y-82727100D01*
X70773498Y-82777086D01*
X70980926Y-82873811D01*
X70980931Y-82873813D01*
X71201999Y-82933048D01*
X71201995Y-82933048D01*
X71430000Y-82952995D01*
X71658002Y-82933048D01*
X71879068Y-82873813D01*
X71879073Y-82873811D01*
X72086497Y-82777088D01*
X72157888Y-82727099D01*
X72157888Y-82727097D01*
X71470791Y-82040000D01*
X71482661Y-82040000D01*
X71584394Y-82012741D01*
X71675606Y-81960080D01*
X71750080Y-81885606D01*
X71802741Y-81794394D01*
X71830000Y-81692661D01*
X71830000Y-81680791D01*
X72517097Y-82367888D01*
X72517099Y-82367888D01*
X72567088Y-82296497D01*
X72663811Y-82089073D01*
X72663813Y-82089068D01*
X72723048Y-81868002D01*
X72742995Y-81640000D01*
X72723048Y-81411997D01*
X72674282Y-81230000D01*
X73136502Y-81230000D01*
X73156457Y-81458087D01*
X73184699Y-81563488D01*
X73215715Y-81679240D01*
X73215717Y-81679246D01*
X73219226Y-81686771D01*
X73312477Y-81886749D01*
X73443802Y-82074300D01*
X73605700Y-82236198D01*
X73793251Y-82367523D01*
X74000757Y-82464284D01*
X74221913Y-82523543D01*
X74450000Y-82543498D01*
X74678087Y-82523543D01*
X74899243Y-82464284D01*
X75106749Y-82367523D01*
X75294300Y-82236198D01*
X75456198Y-82074300D01*
X75587523Y-81886749D01*
X75684284Y-81679243D01*
X75743543Y-81458087D01*
X75763498Y-81230000D01*
X77116502Y-81230000D01*
X77136457Y-81458087D01*
X77164699Y-81563488D01*
X77195715Y-81679240D01*
X77195717Y-81679246D01*
X77199226Y-81686771D01*
X77292477Y-81886749D01*
X77423802Y-82074300D01*
X77585700Y-82236198D01*
X77773251Y-82367523D01*
X77980757Y-82464284D01*
X78201913Y-82523543D01*
X78430000Y-82543498D01*
X78658087Y-82523543D01*
X78879243Y-82464284D01*
X79086749Y-82367523D01*
X79274300Y-82236198D01*
X79436198Y-82074300D01*
X79567523Y-81886749D01*
X79664284Y-81679243D01*
X79723543Y-81458087D01*
X79743498Y-81230000D01*
X79723543Y-81001913D01*
X79664284Y-80780757D01*
X79567523Y-80573251D01*
X79436198Y-80385700D01*
X79274300Y-80223802D01*
X79270388Y-80221063D01*
X79086749Y-80092477D01*
X78879246Y-79995717D01*
X78879240Y-79995715D01*
X78785771Y-79970670D01*
X78658087Y-79936457D01*
X78430000Y-79916502D01*
X78201913Y-79936457D01*
X77980759Y-79995715D01*
X77980753Y-79995717D01*
X77773250Y-80092477D01*
X77585703Y-80223799D01*
X77585697Y-80223804D01*
X77423804Y-80385697D01*
X77423799Y-80385703D01*
X77292477Y-80573250D01*
X77195717Y-80780753D01*
X77195715Y-80780759D01*
X77141391Y-80983498D01*
X77136457Y-81001913D01*
X77116502Y-81230000D01*
X75763498Y-81230000D01*
X75743543Y-81001913D01*
X75684284Y-80780757D01*
X75587523Y-80573251D01*
X75456198Y-80385700D01*
X75294300Y-80223802D01*
X75290388Y-80221063D01*
X75106749Y-80092477D01*
X74899246Y-79995717D01*
X74899240Y-79995715D01*
X74805771Y-79970670D01*
X74678087Y-79936457D01*
X74450000Y-79916502D01*
X74221913Y-79936457D01*
X74000759Y-79995715D01*
X74000753Y-79995717D01*
X73793250Y-80092477D01*
X73605703Y-80223799D01*
X73605697Y-80223804D01*
X73443804Y-80385697D01*
X73443799Y-80385703D01*
X73312477Y-80573250D01*
X73215717Y-80780753D01*
X73215715Y-80780759D01*
X73161391Y-80983498D01*
X73156457Y-81001913D01*
X73136502Y-81230000D01*
X72674282Y-81230000D01*
X72663813Y-81190931D01*
X72663811Y-81190926D01*
X72567086Y-80983498D01*
X72517100Y-80912110D01*
X72517098Y-80912110D01*
X71830000Y-81599208D01*
X71830000Y-81587339D01*
X71802741Y-81485606D01*
X71750080Y-81394394D01*
X71675606Y-81319920D01*
X71584394Y-81267259D01*
X71482661Y-81240000D01*
X71470790Y-81240000D01*
X72157888Y-80552899D01*
X72157888Y-80552898D01*
X72086501Y-80502913D01*
X71879073Y-80406188D01*
X71879068Y-80406186D01*
X71658000Y-80346951D01*
X71658004Y-80346951D01*
X71430000Y-80327004D01*
X71201997Y-80346951D01*
X70980931Y-80406186D01*
X70980926Y-80406188D01*
X70773500Y-80502913D01*
X70702109Y-80552900D01*
X71389209Y-81240000D01*
X71377339Y-81240000D01*
X71275606Y-81267259D01*
X71184394Y-81319920D01*
X71109920Y-81394394D01*
X71057259Y-81485606D01*
X71030000Y-81587339D01*
X71030000Y-81599209D01*
X70342900Y-80912109D01*
X70292913Y-80983500D01*
X70196188Y-81190926D01*
X70196186Y-81190931D01*
X70136951Y-81411997D01*
X70117004Y-81640000D01*
X67743498Y-81640000D01*
X67723543Y-81411913D01*
X67664284Y-81190757D01*
X67567523Y-80983251D01*
X67436198Y-80795700D01*
X67274300Y-80633802D01*
X67211984Y-80590168D01*
X67086749Y-80502477D01*
X66879246Y-80405717D01*
X66879240Y-80405715D01*
X66784883Y-80380432D01*
X66658087Y-80346457D01*
X66430000Y-80326502D01*
X66201913Y-80346457D01*
X65980759Y-80405715D01*
X65980753Y-80405717D01*
X65773250Y-80502477D01*
X65585703Y-80633799D01*
X65585697Y-80633804D01*
X65423804Y-80795697D01*
X65423799Y-80795703D01*
X65292477Y-80983250D01*
X65195717Y-81190753D01*
X65195715Y-81190759D01*
X65141151Y-81394394D01*
X65136457Y-81411913D01*
X65116502Y-81640000D01*
X61601353Y-81640000D01*
X61601433Y-78000000D01*
X68017004Y-78000000D01*
X68036951Y-78228002D01*
X68096186Y-78449068D01*
X68096188Y-78449073D01*
X68192913Y-78656501D01*
X68242899Y-78727888D01*
X68930000Y-78040788D01*
X68930000Y-78052661D01*
X68957259Y-78154394D01*
X69009920Y-78245606D01*
X69084394Y-78320080D01*
X69175606Y-78372741D01*
X69277339Y-78400000D01*
X69289210Y-78400000D01*
X68602110Y-79087098D01*
X68602110Y-79087100D01*
X68673498Y-79137086D01*
X68880926Y-79233811D01*
X68880931Y-79233813D01*
X69101999Y-79293048D01*
X69101995Y-79293048D01*
X69330000Y-79312995D01*
X69558002Y-79293048D01*
X69779068Y-79233813D01*
X69779073Y-79233811D01*
X69986497Y-79137088D01*
X70057888Y-79087099D01*
X70057888Y-79087097D01*
X69370791Y-78400000D01*
X69382661Y-78400000D01*
X69484394Y-78372741D01*
X69575606Y-78320080D01*
X69650080Y-78245606D01*
X69702741Y-78154394D01*
X69730000Y-78052661D01*
X69730000Y-78040791D01*
X70417097Y-78727888D01*
X70417099Y-78727888D01*
X70467088Y-78656497D01*
X70563811Y-78449073D01*
X70563813Y-78449068D01*
X70623048Y-78228002D01*
X70642995Y-78000000D01*
X73016502Y-78000000D01*
X73036457Y-78228086D01*
X73095715Y-78449240D01*
X73095717Y-78449246D01*
X73192477Y-78656749D01*
X73287116Y-78791908D01*
X73323802Y-78844300D01*
X73485700Y-79006198D01*
X73673251Y-79137523D01*
X73880757Y-79234284D01*
X74101913Y-79293543D01*
X74330000Y-79313498D01*
X74558087Y-79293543D01*
X74779243Y-79234284D01*
X74986749Y-79137523D01*
X75174300Y-79006198D01*
X75336198Y-78844300D01*
X75467523Y-78656749D01*
X75564284Y-78449243D01*
X75623543Y-78228087D01*
X75643498Y-78000000D01*
X76206502Y-78000000D01*
X76226457Y-78228086D01*
X76285715Y-78449240D01*
X76285717Y-78449246D01*
X76382477Y-78656749D01*
X76477116Y-78791908D01*
X76513802Y-78844300D01*
X76675700Y-79006198D01*
X76863251Y-79137523D01*
X77070757Y-79234284D01*
X77291913Y-79293543D01*
X77520000Y-79313498D01*
X77748087Y-79293543D01*
X77969243Y-79234284D01*
X78176749Y-79137523D01*
X78364300Y-79006198D01*
X78526198Y-78844300D01*
X78657523Y-78656749D01*
X78754284Y-78449243D01*
X78813543Y-78228087D01*
X78833498Y-78000000D01*
X81207004Y-78000000D01*
X81226951Y-78228002D01*
X81286186Y-78449068D01*
X81286188Y-78449073D01*
X81382913Y-78656501D01*
X81432899Y-78727888D01*
X82120000Y-78040788D01*
X82120000Y-78052661D01*
X82147259Y-78154394D01*
X82199920Y-78245606D01*
X82274394Y-78320080D01*
X82365606Y-78372741D01*
X82467339Y-78400000D01*
X82479210Y-78400000D01*
X81792110Y-79087098D01*
X81792110Y-79087100D01*
X81863498Y-79137086D01*
X82070926Y-79233811D01*
X82070931Y-79233813D01*
X82291999Y-79293048D01*
X82291995Y-79293048D01*
X82520000Y-79312995D01*
X82748002Y-79293048D01*
X82969068Y-79233813D01*
X82969073Y-79233811D01*
X83176497Y-79137088D01*
X83247888Y-79087099D01*
X83247888Y-79087097D01*
X82560791Y-78400000D01*
X82572661Y-78400000D01*
X82674394Y-78372741D01*
X82765606Y-78320080D01*
X82840080Y-78245606D01*
X82892741Y-78154394D01*
X82920000Y-78052661D01*
X82920000Y-78040791D01*
X83607097Y-78727888D01*
X83607099Y-78727888D01*
X83657088Y-78656497D01*
X83753811Y-78449073D01*
X83753813Y-78449068D01*
X83813048Y-78228002D01*
X83832995Y-78000000D01*
X83828621Y-77950000D01*
X85326693Y-77950000D01*
X85345885Y-78169371D01*
X85378791Y-78292178D01*
X85402879Y-78382073D01*
X85402881Y-78382079D01*
X85488302Y-78565266D01*
X85495944Y-78581654D01*
X85598339Y-78727888D01*
X85622251Y-78762038D01*
X85622254Y-78762042D01*
X85777957Y-78917745D01*
X85777961Y-78917748D01*
X85777962Y-78917749D01*
X85958346Y-79044056D01*
X86050651Y-79087098D01*
X86090768Y-79105805D01*
X86144053Y-79152722D01*
X86163514Y-79220999D01*
X86142972Y-79288959D01*
X86090768Y-79334195D01*
X85958346Y-79395944D01*
X85777965Y-79522248D01*
X85777959Y-79522253D01*
X85622253Y-79677959D01*
X85622248Y-79677965D01*
X85495944Y-79858346D01*
X85402881Y-80057920D01*
X85402880Y-80057924D01*
X85345885Y-80270629D01*
X85326693Y-80490000D01*
X85345885Y-80709371D01*
X85375280Y-80819072D01*
X85402879Y-80922073D01*
X85402881Y-80922079D01*
X85431406Y-80983251D01*
X85495944Y-81121654D01*
X85597898Y-81267259D01*
X85622251Y-81302038D01*
X85622254Y-81302042D01*
X85777957Y-81457745D01*
X85777966Y-81457752D01*
X85899408Y-81542787D01*
X85943737Y-81598244D01*
X85951046Y-81668863D01*
X85919016Y-81732224D01*
X85857814Y-81768209D01*
X85827138Y-81772000D01*
X85791402Y-81772000D01*
X85730906Y-81778505D01*
X85594035Y-81829555D01*
X85594034Y-81829555D01*
X85477095Y-81917095D01*
X85389555Y-82034034D01*
X85389555Y-82034035D01*
X85338505Y-82170906D01*
X85332000Y-82231402D01*
X85332000Y-82776000D01*
X86278314Y-82776000D01*
X86269920Y-82784394D01*
X86217259Y-82875606D01*
X86190000Y-82977339D01*
X86190000Y-83082661D01*
X86217259Y-83184394D01*
X86269920Y-83275606D01*
X86278314Y-83284000D01*
X85332000Y-83284000D01*
X85332000Y-83828597D01*
X85338505Y-83889093D01*
X85389555Y-84025964D01*
X85389555Y-84025965D01*
X85477095Y-84142904D01*
X85594034Y-84230444D01*
X85730906Y-84281494D01*
X85791402Y-84287999D01*
X85791415Y-84288000D01*
X86336000Y-84288000D01*
X86336000Y-83341686D01*
X86344394Y-83350080D01*
X86435606Y-83402741D01*
X86537339Y-83430000D01*
X86642661Y-83430000D01*
X86744394Y-83402741D01*
X86835606Y-83350080D01*
X86844000Y-83341686D01*
X86844000Y-84288000D01*
X87388585Y-84288000D01*
X87388597Y-84287999D01*
X87449093Y-84281494D01*
X87585964Y-84230444D01*
X87585965Y-84230444D01*
X87702904Y-84142904D01*
X87790444Y-84025965D01*
X87790444Y-84025964D01*
X87841494Y-83889093D01*
X87847999Y-83828597D01*
X87848000Y-83828585D01*
X87848000Y-83284000D01*
X86901686Y-83284000D01*
X86910080Y-83275606D01*
X86962741Y-83184394D01*
X86990000Y-83082661D01*
X86990000Y-82977339D01*
X86962741Y-82875606D01*
X86910080Y-82784394D01*
X86901686Y-82776000D01*
X87848000Y-82776000D01*
X87848000Y-82231414D01*
X87847999Y-82231402D01*
X87841494Y-82170906D01*
X87790444Y-82034035D01*
X87790444Y-82034034D01*
X87702904Y-81917095D01*
X87585965Y-81829555D01*
X87449093Y-81778505D01*
X87388597Y-81772000D01*
X87352862Y-81772000D01*
X87284741Y-81751998D01*
X87238248Y-81698342D01*
X87228144Y-81628068D01*
X87257638Y-81563488D01*
X87280592Y-81542787D01*
X87401555Y-81458087D01*
X87402038Y-81457749D01*
X87557749Y-81302038D01*
X87684056Y-81121654D01*
X87777120Y-80922076D01*
X87834115Y-80709371D01*
X87853307Y-80490000D01*
X87834115Y-80270629D01*
X87777120Y-80057924D01*
X87684056Y-79858347D01*
X87557749Y-79677962D01*
X87402038Y-79522251D01*
X87398189Y-79519556D01*
X87366010Y-79497023D01*
X87221654Y-79395944D01*
X87221648Y-79395941D01*
X87221648Y-79395940D01*
X87089232Y-79334195D01*
X87035946Y-79287278D01*
X87016485Y-79219001D01*
X87037026Y-79151041D01*
X87089232Y-79105805D01*
X87221648Y-79044059D01*
X87221648Y-79044058D01*
X87221654Y-79044056D01*
X87402038Y-78917749D01*
X87557749Y-78762038D01*
X87684056Y-78581654D01*
X87777120Y-78382076D01*
X87834115Y-78169371D01*
X87853307Y-77950000D01*
X91130026Y-77950000D01*
X91149218Y-78169371D01*
X91182124Y-78292178D01*
X91206212Y-78382073D01*
X91206214Y-78382079D01*
X91291635Y-78565266D01*
X91299277Y-78581654D01*
X91401672Y-78727888D01*
X91425584Y-78762038D01*
X91425587Y-78762042D01*
X91581290Y-78917745D01*
X91581294Y-78917748D01*
X91581295Y-78917749D01*
X91761679Y-79044056D01*
X91853984Y-79087098D01*
X91894101Y-79105805D01*
X91947386Y-79152722D01*
X91966847Y-79220999D01*
X91946305Y-79288959D01*
X91894101Y-79334195D01*
X91761679Y-79395944D01*
X91581298Y-79522248D01*
X91581292Y-79522253D01*
X91425586Y-79677959D01*
X91425581Y-79677965D01*
X91299277Y-79858346D01*
X91206214Y-80057920D01*
X91206213Y-80057924D01*
X91149218Y-80270629D01*
X91130026Y-80490000D01*
X91149218Y-80709371D01*
X91178613Y-80819072D01*
X91206212Y-80922073D01*
X91206214Y-80922079D01*
X91234739Y-80983251D01*
X91299277Y-81121654D01*
X91401231Y-81267259D01*
X91425584Y-81302038D01*
X91425587Y-81302042D01*
X91581290Y-81457745D01*
X91581299Y-81457752D01*
X91702741Y-81542787D01*
X91747070Y-81598244D01*
X91754379Y-81668863D01*
X91722349Y-81732224D01*
X91661147Y-81768209D01*
X91630471Y-81772000D01*
X91594735Y-81772000D01*
X91534239Y-81778505D01*
X91397368Y-81829555D01*
X91397367Y-81829555D01*
X91280428Y-81917095D01*
X91192888Y-82034034D01*
X91192888Y-82034035D01*
X91141838Y-82170906D01*
X91135333Y-82231402D01*
X91135333Y-82776000D01*
X92081647Y-82776000D01*
X92073253Y-82784394D01*
X92020592Y-82875606D01*
X91993333Y-82977339D01*
X91993333Y-83082661D01*
X92020592Y-83184394D01*
X92073253Y-83275606D01*
X92081647Y-83284000D01*
X91135333Y-83284000D01*
X91135333Y-83828597D01*
X91141838Y-83889093D01*
X91192888Y-84025964D01*
X91192888Y-84025965D01*
X91280428Y-84142904D01*
X91397367Y-84230444D01*
X91534239Y-84281494D01*
X91594735Y-84287999D01*
X91594748Y-84288000D01*
X92139333Y-84288000D01*
X92139333Y-83341686D01*
X92147727Y-83350080D01*
X92238939Y-83402741D01*
X92340672Y-83430000D01*
X92445994Y-83430000D01*
X92547727Y-83402741D01*
X92638939Y-83350080D01*
X92647333Y-83341686D01*
X92647333Y-84288000D01*
X93191918Y-84288000D01*
X93191930Y-84287999D01*
X93252426Y-84281494D01*
X93389297Y-84230444D01*
X93389298Y-84230444D01*
X93506237Y-84142904D01*
X93593777Y-84025965D01*
X93593777Y-84025964D01*
X93644827Y-83889093D01*
X93651332Y-83828597D01*
X93651333Y-83828585D01*
X93651333Y-83284000D01*
X92705019Y-83284000D01*
X92713413Y-83275606D01*
X92766074Y-83184394D01*
X92793333Y-83082661D01*
X92793333Y-82977339D01*
X92766074Y-82875606D01*
X92713413Y-82784394D01*
X92705019Y-82776000D01*
X93651333Y-82776000D01*
X93651333Y-82231414D01*
X93651332Y-82231402D01*
X93644827Y-82170906D01*
X93593777Y-82034035D01*
X93593777Y-82034034D01*
X93506237Y-81917095D01*
X93389298Y-81829555D01*
X93252426Y-81778505D01*
X93191930Y-81772000D01*
X93156195Y-81772000D01*
X93088074Y-81751998D01*
X93041581Y-81698342D01*
X93031477Y-81628068D01*
X93060971Y-81563488D01*
X93083925Y-81542787D01*
X93204888Y-81458087D01*
X93205371Y-81457749D01*
X93361082Y-81302038D01*
X93487389Y-81121654D01*
X93580453Y-80922076D01*
X93637448Y-80709371D01*
X93656640Y-80490000D01*
X93637448Y-80270629D01*
X93580453Y-80057924D01*
X93487389Y-79858347D01*
X93361082Y-79677962D01*
X93205371Y-79522251D01*
X93201522Y-79519556D01*
X93169343Y-79497023D01*
X93024987Y-79395944D01*
X93024981Y-79395941D01*
X93024981Y-79395940D01*
X92892565Y-79334195D01*
X92839279Y-79287278D01*
X92819818Y-79219001D01*
X92840359Y-79151041D01*
X92892565Y-79105805D01*
X93024981Y-79044059D01*
X93024981Y-79044058D01*
X93024987Y-79044056D01*
X93205371Y-78917749D01*
X93361082Y-78762038D01*
X93487389Y-78581654D01*
X93580453Y-78382076D01*
X93637448Y-78169371D01*
X93656640Y-77950000D01*
X96933359Y-77950000D01*
X96952551Y-78169371D01*
X96985457Y-78292178D01*
X97009545Y-78382073D01*
X97009547Y-78382079D01*
X97094968Y-78565266D01*
X97102610Y-78581654D01*
X97205005Y-78727888D01*
X97228917Y-78762038D01*
X97228920Y-78762042D01*
X97384623Y-78917745D01*
X97384627Y-78917748D01*
X97384628Y-78917749D01*
X97565012Y-79044056D01*
X97657317Y-79087098D01*
X97697434Y-79105805D01*
X97750719Y-79152722D01*
X97770180Y-79220999D01*
X97749638Y-79288959D01*
X97697434Y-79334195D01*
X97565012Y-79395944D01*
X97384631Y-79522248D01*
X97384625Y-79522253D01*
X97228919Y-79677959D01*
X97228914Y-79677965D01*
X97102610Y-79858346D01*
X97009547Y-80057920D01*
X97009546Y-80057924D01*
X96952551Y-80270629D01*
X96933359Y-80490000D01*
X96952551Y-80709371D01*
X96981946Y-80819072D01*
X97009545Y-80922073D01*
X97009547Y-80922079D01*
X97038072Y-80983251D01*
X97102610Y-81121654D01*
X97204564Y-81267259D01*
X97228917Y-81302038D01*
X97228920Y-81302042D01*
X97384623Y-81457745D01*
X97384632Y-81457752D01*
X97506074Y-81542787D01*
X97550403Y-81598244D01*
X97557712Y-81668863D01*
X97525682Y-81732224D01*
X97464480Y-81768209D01*
X97433804Y-81772000D01*
X97398068Y-81772000D01*
X97337572Y-81778505D01*
X97200701Y-81829555D01*
X97200700Y-81829555D01*
X97083761Y-81917095D01*
X96996221Y-82034034D01*
X96996221Y-82034035D01*
X96945171Y-82170906D01*
X96938666Y-82231402D01*
X96938666Y-82776000D01*
X97884980Y-82776000D01*
X97876586Y-82784394D01*
X97823925Y-82875606D01*
X97796666Y-82977339D01*
X97796666Y-83082661D01*
X97823925Y-83184394D01*
X97876586Y-83275606D01*
X97884980Y-83284000D01*
X96938666Y-83284000D01*
X96938666Y-83828597D01*
X96945171Y-83889093D01*
X96996221Y-84025964D01*
X96996221Y-84025965D01*
X97083761Y-84142904D01*
X97200700Y-84230444D01*
X97337572Y-84281494D01*
X97398068Y-84287999D01*
X97398081Y-84288000D01*
X97942666Y-84288000D01*
X97942666Y-83341686D01*
X97951060Y-83350080D01*
X98042272Y-83402741D01*
X98144005Y-83430000D01*
X98249327Y-83430000D01*
X98351060Y-83402741D01*
X98442272Y-83350080D01*
X98450666Y-83341686D01*
X98450666Y-84288000D01*
X98995251Y-84288000D01*
X98995263Y-84287999D01*
X99055759Y-84281494D01*
X99192630Y-84230444D01*
X99192631Y-84230444D01*
X99309570Y-84142904D01*
X99397110Y-84025965D01*
X99397110Y-84025964D01*
X99448160Y-83889093D01*
X99454665Y-83828597D01*
X99454666Y-83828585D01*
X99454666Y-83284000D01*
X98508352Y-83284000D01*
X98516746Y-83275606D01*
X98569407Y-83184394D01*
X98596666Y-83082661D01*
X98596666Y-82977339D01*
X98569407Y-82875606D01*
X98516746Y-82784394D01*
X98508352Y-82776000D01*
X99454666Y-82776000D01*
X99454666Y-82231414D01*
X99454665Y-82231402D01*
X99448160Y-82170906D01*
X99397110Y-82034035D01*
X99397110Y-82034034D01*
X99309570Y-81917095D01*
X99192631Y-81829555D01*
X99055759Y-81778505D01*
X98995263Y-81772000D01*
X98959528Y-81772000D01*
X98891407Y-81751998D01*
X98844914Y-81698342D01*
X98834810Y-81628068D01*
X98864304Y-81563488D01*
X98887258Y-81542787D01*
X99008221Y-81458087D01*
X99008704Y-81457749D01*
X99164415Y-81302038D01*
X99290722Y-81121654D01*
X99383786Y-80922076D01*
X99440781Y-80709371D01*
X99459973Y-80490000D01*
X99440781Y-80270629D01*
X99383786Y-80057924D01*
X99290722Y-79858347D01*
X99164415Y-79677962D01*
X99008704Y-79522251D01*
X99004855Y-79519556D01*
X98972676Y-79497023D01*
X98828320Y-79395944D01*
X98828314Y-79395941D01*
X98828314Y-79395940D01*
X98695898Y-79334195D01*
X98642612Y-79287278D01*
X98623151Y-79219001D01*
X98643692Y-79151041D01*
X98695898Y-79105805D01*
X98828314Y-79044059D01*
X98828314Y-79044058D01*
X98828320Y-79044056D01*
X99008704Y-78917749D01*
X99164415Y-78762038D01*
X99290722Y-78581654D01*
X99383786Y-78382076D01*
X99440781Y-78169371D01*
X99459973Y-77950000D01*
X102736693Y-77950000D01*
X102755885Y-78169371D01*
X102788791Y-78292178D01*
X102812879Y-78382073D01*
X102812881Y-78382079D01*
X102898302Y-78565266D01*
X102905944Y-78581654D01*
X103008339Y-78727888D01*
X103032251Y-78762038D01*
X103032254Y-78762042D01*
X103187957Y-78917745D01*
X103187961Y-78917748D01*
X103187962Y-78917749D01*
X103368346Y-79044056D01*
X103460651Y-79087098D01*
X103500768Y-79105805D01*
X103554053Y-79152722D01*
X103573514Y-79220999D01*
X103552972Y-79288959D01*
X103500768Y-79334195D01*
X103368346Y-79395944D01*
X103187965Y-79522248D01*
X103187959Y-79522253D01*
X103032253Y-79677959D01*
X103032248Y-79677965D01*
X102905944Y-79858346D01*
X102812881Y-80057920D01*
X102812880Y-80057924D01*
X102755885Y-80270629D01*
X102736693Y-80490000D01*
X102755885Y-80709371D01*
X102785280Y-80819072D01*
X102812879Y-80922073D01*
X102812881Y-80922079D01*
X102841406Y-80983251D01*
X102905944Y-81121654D01*
X103007898Y-81267259D01*
X103032251Y-81302038D01*
X103032254Y-81302042D01*
X103187957Y-81457745D01*
X103187966Y-81457752D01*
X103309408Y-81542787D01*
X103353737Y-81598244D01*
X103361046Y-81668863D01*
X103329016Y-81732224D01*
X103267814Y-81768209D01*
X103237138Y-81772000D01*
X103201402Y-81772000D01*
X103140906Y-81778505D01*
X103004035Y-81829555D01*
X103004034Y-81829555D01*
X102887095Y-81917095D01*
X102799555Y-82034034D01*
X102799555Y-82034035D01*
X102748505Y-82170906D01*
X102742000Y-82231402D01*
X102742000Y-82776000D01*
X103688314Y-82776000D01*
X103679920Y-82784394D01*
X103627259Y-82875606D01*
X103600000Y-82977339D01*
X103600000Y-83082661D01*
X103627259Y-83184394D01*
X103679920Y-83275606D01*
X103688314Y-83284000D01*
X102742000Y-83284000D01*
X102742000Y-83828597D01*
X102748505Y-83889093D01*
X102799555Y-84025964D01*
X102799555Y-84025965D01*
X102887095Y-84142904D01*
X103004034Y-84230444D01*
X103140906Y-84281494D01*
X103201402Y-84287999D01*
X103201415Y-84288000D01*
X103746000Y-84288000D01*
X103746000Y-83341686D01*
X103754394Y-83350080D01*
X103845606Y-83402741D01*
X103947339Y-83430000D01*
X104052661Y-83430000D01*
X104154394Y-83402741D01*
X104245606Y-83350080D01*
X104254000Y-83341686D01*
X104254000Y-84288000D01*
X104798585Y-84288000D01*
X104798597Y-84287999D01*
X104859093Y-84281494D01*
X104995964Y-84230444D01*
X104995965Y-84230444D01*
X105112904Y-84142904D01*
X105200444Y-84025965D01*
X105200444Y-84025964D01*
X105251494Y-83889093D01*
X105257999Y-83828597D01*
X105258000Y-83828585D01*
X105258000Y-83284000D01*
X104311686Y-83284000D01*
X104320080Y-83275606D01*
X104372741Y-83184394D01*
X104400000Y-83082661D01*
X104400000Y-82977339D01*
X104372741Y-82875606D01*
X104320080Y-82784394D01*
X104311686Y-82776000D01*
X105258000Y-82776000D01*
X105258000Y-82231414D01*
X105257999Y-82231402D01*
X105251494Y-82170906D01*
X105200444Y-82034035D01*
X105200444Y-82034034D01*
X105112904Y-81917095D01*
X104995965Y-81829555D01*
X104859093Y-81778505D01*
X104798597Y-81772000D01*
X104762862Y-81772000D01*
X104694741Y-81751998D01*
X104648248Y-81698342D01*
X104638144Y-81628068D01*
X104667638Y-81563488D01*
X104690592Y-81542787D01*
X104811555Y-81458087D01*
X104812038Y-81457749D01*
X104967749Y-81302038D01*
X105094056Y-81121654D01*
X105187120Y-80922076D01*
X105244115Y-80709371D01*
X105263307Y-80490000D01*
X105244115Y-80270629D01*
X105187120Y-80057924D01*
X105094056Y-79858347D01*
X104967749Y-79677962D01*
X104812038Y-79522251D01*
X104808189Y-79519556D01*
X104776010Y-79497023D01*
X104631654Y-79395944D01*
X104631648Y-79395941D01*
X104631648Y-79395940D01*
X104499232Y-79334195D01*
X104445946Y-79287278D01*
X104442446Y-79275000D01*
X110044181Y-79275000D01*
X110063428Y-79519557D01*
X110120695Y-79758092D01*
X110214573Y-79984732D01*
X110221304Y-79995716D01*
X110342745Y-80193892D01*
X110342746Y-80193894D01*
X110342748Y-80193896D01*
X110502067Y-80380433D01*
X110688604Y-80539752D01*
X110897768Y-80667927D01*
X111124408Y-80761805D01*
X111362943Y-80819072D01*
X111607500Y-80838319D01*
X111852057Y-80819072D01*
X112090592Y-80761805D01*
X112317232Y-80667927D01*
X112526396Y-80539752D01*
X112526399Y-80539748D01*
X112527558Y-80539039D01*
X112596092Y-80520501D01*
X112663769Y-80541958D01*
X112709102Y-80596597D01*
X112718963Y-80636066D01*
X112728688Y-80753420D01*
X112784951Y-80975596D01*
X112877019Y-81185490D01*
X112956359Y-81306929D01*
X112956360Y-81306930D01*
X113617424Y-80645865D01*
X113636234Y-80716063D01*
X113701402Y-80828937D01*
X113793563Y-80921098D01*
X113906437Y-80986266D01*
X113976634Y-81005075D01*
X113313996Y-81667712D01*
X113338476Y-81686767D01*
X113338481Y-81686770D01*
X113540051Y-81795855D01*
X113540054Y-81795856D01*
X113756825Y-81870274D01*
X113756834Y-81870276D01*
X113982905Y-81908000D01*
X114212095Y-81908000D01*
X114438165Y-81870276D01*
X114438174Y-81870274D01*
X114654945Y-81795856D01*
X114654948Y-81795854D01*
X114856518Y-81686771D01*
X114881003Y-81667712D01*
X114218366Y-81005075D01*
X114288563Y-80986266D01*
X114401437Y-80921098D01*
X114493598Y-80828937D01*
X114558766Y-80716063D01*
X114577575Y-80645866D01*
X115238638Y-81306929D01*
X115238639Y-81306929D01*
X115317980Y-81185490D01*
X115410048Y-80975596D01*
X115466311Y-80753419D01*
X115485239Y-80525000D01*
X115466311Y-80296580D01*
X115410048Y-80074403D01*
X115317980Y-79864509D01*
X115238639Y-79743069D01*
X114577575Y-80404133D01*
X114558766Y-80333937D01*
X114493598Y-80221063D01*
X114401437Y-80128902D01*
X114288563Y-80063734D01*
X114218365Y-80044924D01*
X114881003Y-79382286D01*
X114881002Y-79382285D01*
X114856525Y-79363233D01*
X114654948Y-79254144D01*
X114654945Y-79254143D01*
X114438174Y-79179725D01*
X114438165Y-79179723D01*
X114212095Y-79142000D01*
X113982905Y-79142000D01*
X113756834Y-79179723D01*
X113756825Y-79179725D01*
X113540054Y-79254143D01*
X113540051Y-79254145D01*
X113354708Y-79354447D01*
X113285278Y-79369277D01*
X113218851Y-79344216D01*
X113176519Y-79287221D01*
X113169129Y-79253527D01*
X113151572Y-79030443D01*
X113094305Y-78791908D01*
X113000427Y-78565268D01*
X112872252Y-78356104D01*
X112712933Y-78169567D01*
X112526396Y-78010248D01*
X112526394Y-78010246D01*
X112526392Y-78010245D01*
X112403756Y-77935094D01*
X112317232Y-77882073D01*
X112090592Y-77788195D01*
X111852057Y-77730928D01*
X111607500Y-77711681D01*
X111362943Y-77730928D01*
X111124407Y-77788195D01*
X110897766Y-77882074D01*
X110688607Y-78010245D01*
X110502067Y-78169567D01*
X110342745Y-78356107D01*
X110214574Y-78565266D01*
X110120695Y-78791907D01*
X110090483Y-78917749D01*
X110063428Y-79030443D01*
X110044181Y-79275000D01*
X104442446Y-79275000D01*
X104426485Y-79219001D01*
X104447026Y-79151041D01*
X104499232Y-79105805D01*
X104631648Y-79044059D01*
X104631648Y-79044058D01*
X104631654Y-79044056D01*
X104812038Y-78917749D01*
X104967749Y-78762038D01*
X105094056Y-78581654D01*
X105187120Y-78382076D01*
X105244115Y-78169371D01*
X105263307Y-77950000D01*
X105244115Y-77730629D01*
X105187120Y-77517924D01*
X105094056Y-77318347D01*
X104967749Y-77137962D01*
X104812038Y-76982251D01*
X104631654Y-76855944D01*
X104631650Y-76855942D01*
X104432079Y-76762881D01*
X104432073Y-76762879D01*
X104342178Y-76738791D01*
X104219371Y-76705885D01*
X104000000Y-76686693D01*
X103780629Y-76705885D01*
X103567926Y-76762879D01*
X103567920Y-76762881D01*
X103368346Y-76855944D01*
X103187965Y-76982248D01*
X103187959Y-76982253D01*
X103032253Y-77137959D01*
X103032248Y-77137965D01*
X102905944Y-77318346D01*
X102812881Y-77517920D01*
X102812879Y-77517926D01*
X102769473Y-77679920D01*
X102755885Y-77730629D01*
X102736693Y-77950000D01*
X99459973Y-77950000D01*
X99440781Y-77730629D01*
X99383786Y-77517924D01*
X99290722Y-77318347D01*
X99164415Y-77137962D01*
X99008704Y-76982251D01*
X98828320Y-76855944D01*
X98828316Y-76855942D01*
X98628745Y-76762881D01*
X98628739Y-76762879D01*
X98538844Y-76738791D01*
X98416037Y-76705885D01*
X98196666Y-76686693D01*
X97977295Y-76705885D01*
X97764592Y-76762879D01*
X97764586Y-76762881D01*
X97565012Y-76855944D01*
X97384631Y-76982248D01*
X97384625Y-76982253D01*
X97228919Y-77137959D01*
X97228914Y-77137965D01*
X97102610Y-77318346D01*
X97009547Y-77517920D01*
X97009545Y-77517926D01*
X96966139Y-77679920D01*
X96952551Y-77730629D01*
X96933359Y-77950000D01*
X93656640Y-77950000D01*
X93637448Y-77730629D01*
X93580453Y-77517924D01*
X93487389Y-77318347D01*
X93361082Y-77137962D01*
X93205371Y-76982251D01*
X93024987Y-76855944D01*
X93024983Y-76855942D01*
X92825412Y-76762881D01*
X92825406Y-76762879D01*
X92735511Y-76738791D01*
X92612704Y-76705885D01*
X92393333Y-76686693D01*
X92173962Y-76705885D01*
X91961259Y-76762879D01*
X91961253Y-76762881D01*
X91761679Y-76855944D01*
X91581298Y-76982248D01*
X91581292Y-76982253D01*
X91425586Y-77137959D01*
X91425581Y-77137965D01*
X91299277Y-77318346D01*
X91206214Y-77517920D01*
X91206212Y-77517926D01*
X91162806Y-77679920D01*
X91149218Y-77730629D01*
X91130026Y-77950000D01*
X87853307Y-77950000D01*
X87834115Y-77730629D01*
X87777120Y-77517924D01*
X87684056Y-77318347D01*
X87557749Y-77137962D01*
X87402038Y-76982251D01*
X87221654Y-76855944D01*
X87221650Y-76855942D01*
X87022079Y-76762881D01*
X87022073Y-76762879D01*
X86932178Y-76738791D01*
X86809371Y-76705885D01*
X86590000Y-76686693D01*
X86370629Y-76705885D01*
X86157926Y-76762879D01*
X86157920Y-76762881D01*
X85958346Y-76855944D01*
X85777965Y-76982248D01*
X85777959Y-76982253D01*
X85622253Y-77137959D01*
X85622248Y-77137965D01*
X85495944Y-77318346D01*
X85402881Y-77517920D01*
X85402879Y-77517926D01*
X85359473Y-77679920D01*
X85345885Y-77730629D01*
X85326693Y-77950000D01*
X83828621Y-77950000D01*
X83813048Y-77771997D01*
X83753813Y-77550931D01*
X83753811Y-77550926D01*
X83657086Y-77343498D01*
X83607100Y-77272110D01*
X83607098Y-77272110D01*
X82920000Y-77959208D01*
X82920000Y-77947339D01*
X82892741Y-77845606D01*
X82840080Y-77754394D01*
X82765606Y-77679920D01*
X82674394Y-77627259D01*
X82572661Y-77600000D01*
X82560790Y-77600000D01*
X83247888Y-76912899D01*
X83247888Y-76912898D01*
X83176501Y-76862913D01*
X82969073Y-76766188D01*
X82969068Y-76766186D01*
X82748000Y-76706951D01*
X82748004Y-76706951D01*
X82520000Y-76687004D01*
X82291997Y-76706951D01*
X82070931Y-76766186D01*
X82070926Y-76766188D01*
X81863500Y-76862913D01*
X81792109Y-76912900D01*
X82479209Y-77600000D01*
X82467339Y-77600000D01*
X82365606Y-77627259D01*
X82274394Y-77679920D01*
X82199920Y-77754394D01*
X82147259Y-77845606D01*
X82120000Y-77947339D01*
X82120000Y-77959209D01*
X81432900Y-77272109D01*
X81382913Y-77343500D01*
X81286188Y-77550926D01*
X81286186Y-77550931D01*
X81226951Y-77771997D01*
X81207004Y-78000000D01*
X78833498Y-78000000D01*
X78813543Y-77771913D01*
X78754284Y-77550757D01*
X78657523Y-77343251D01*
X78526198Y-77155700D01*
X78364300Y-76993802D01*
X78347806Y-76982253D01*
X78176749Y-76862477D01*
X77969246Y-76765717D01*
X77969240Y-76765715D01*
X77875771Y-76740670D01*
X77748087Y-76706457D01*
X77520000Y-76686502D01*
X77291913Y-76706457D01*
X77070759Y-76765715D01*
X77070753Y-76765717D01*
X76863250Y-76862477D01*
X76675703Y-76993799D01*
X76675697Y-76993804D01*
X76513804Y-77155697D01*
X76513799Y-77155703D01*
X76382477Y-77343250D01*
X76285717Y-77550753D01*
X76285715Y-77550759D01*
X76226457Y-77771913D01*
X76206502Y-78000000D01*
X75643498Y-78000000D01*
X75623543Y-77771913D01*
X75564284Y-77550757D01*
X75467523Y-77343251D01*
X75336198Y-77155700D01*
X75174300Y-76993802D01*
X75157806Y-76982253D01*
X74986749Y-76862477D01*
X74779246Y-76765717D01*
X74779240Y-76765715D01*
X74685771Y-76740670D01*
X74558087Y-76706457D01*
X74330000Y-76686502D01*
X74101913Y-76706457D01*
X73880759Y-76765715D01*
X73880753Y-76765717D01*
X73673250Y-76862477D01*
X73485703Y-76993799D01*
X73485697Y-76993804D01*
X73323804Y-77155697D01*
X73323799Y-77155703D01*
X73192477Y-77343250D01*
X73095717Y-77550753D01*
X73095715Y-77550759D01*
X73036457Y-77771913D01*
X73016502Y-78000000D01*
X70642995Y-78000000D01*
X70623048Y-77771997D01*
X70563813Y-77550931D01*
X70563811Y-77550926D01*
X70467086Y-77343498D01*
X70417100Y-77272110D01*
X70417098Y-77272110D01*
X69730000Y-77959208D01*
X69730000Y-77947339D01*
X69702741Y-77845606D01*
X69650080Y-77754394D01*
X69575606Y-77679920D01*
X69484394Y-77627259D01*
X69382661Y-77600000D01*
X69370790Y-77600000D01*
X70057888Y-76912899D01*
X70057888Y-76912898D01*
X69986501Y-76862913D01*
X69779073Y-76766188D01*
X69779068Y-76766186D01*
X69558000Y-76706951D01*
X69558004Y-76706951D01*
X69330000Y-76687004D01*
X69101997Y-76706951D01*
X68880931Y-76766186D01*
X68880926Y-76766188D01*
X68673500Y-76862913D01*
X68602109Y-76912900D01*
X69289209Y-77600000D01*
X69277339Y-77600000D01*
X69175606Y-77627259D01*
X69084394Y-77679920D01*
X69009920Y-77754394D01*
X68957259Y-77845606D01*
X68930000Y-77947339D01*
X68930000Y-77959209D01*
X68242900Y-77272109D01*
X68192913Y-77343500D01*
X68096188Y-77550926D01*
X68096186Y-77550931D01*
X68036951Y-77771997D01*
X68017004Y-78000000D01*
X61601433Y-78000000D01*
X61601514Y-74320000D01*
X81616502Y-74320000D01*
X81636457Y-74548086D01*
X81695715Y-74769240D01*
X81695717Y-74769246D01*
X81764575Y-74916912D01*
X81792477Y-74976749D01*
X81923802Y-75164300D01*
X82085700Y-75326198D01*
X82273251Y-75457523D01*
X82480757Y-75554284D01*
X82701913Y-75613543D01*
X82930000Y-75633498D01*
X83158087Y-75613543D01*
X83379243Y-75554284D01*
X83586749Y-75457523D01*
X83774300Y-75326198D01*
X83936198Y-75164300D01*
X84067523Y-74976749D01*
X84164284Y-74769243D01*
X84223543Y-74548087D01*
X84243498Y-74320000D01*
X86617004Y-74320000D01*
X86636951Y-74548002D01*
X86696186Y-74769068D01*
X86696188Y-74769073D01*
X86792913Y-74976501D01*
X86842899Y-75047888D01*
X87530000Y-74360788D01*
X87530000Y-74372661D01*
X87557259Y-74474394D01*
X87609920Y-74565606D01*
X87684394Y-74640080D01*
X87775606Y-74692741D01*
X87877339Y-74720000D01*
X87889210Y-74720000D01*
X87202110Y-75407098D01*
X87202110Y-75407100D01*
X87273498Y-75457086D01*
X87480926Y-75553811D01*
X87480931Y-75553813D01*
X87701999Y-75613048D01*
X87701995Y-75613048D01*
X87930000Y-75632995D01*
X88158002Y-75613048D01*
X88379068Y-75553813D01*
X88379073Y-75553811D01*
X88586497Y-75457088D01*
X88657888Y-75407099D01*
X88657888Y-75407097D01*
X87970791Y-74720000D01*
X87982661Y-74720000D01*
X88084394Y-74692741D01*
X88175606Y-74640080D01*
X88250080Y-74565606D01*
X88302741Y-74474394D01*
X88330000Y-74372661D01*
X88330000Y-74360791D01*
X89017097Y-75047888D01*
X89017099Y-75047888D01*
X89067088Y-74976496D01*
X89067089Y-74976495D01*
X89070528Y-74969121D01*
X89117444Y-74915835D01*
X89185721Y-74896372D01*
X89253681Y-74916912D01*
X89298920Y-74969121D01*
X89302476Y-74976748D01*
X89302477Y-74976749D01*
X89433802Y-75164300D01*
X89595700Y-75326198D01*
X89783251Y-75457523D01*
X89990757Y-75554284D01*
X90211913Y-75613543D01*
X90440000Y-75633498D01*
X90668087Y-75613543D01*
X90889243Y-75554284D01*
X91096749Y-75457523D01*
X91284300Y-75326198D01*
X91446198Y-75164300D01*
X91577523Y-74976749D01*
X91674284Y-74769243D01*
X91733543Y-74548087D01*
X91753498Y-74320000D01*
X94127004Y-74320000D01*
X94146951Y-74548002D01*
X94206186Y-74769068D01*
X94206188Y-74769073D01*
X94302913Y-74976501D01*
X94352899Y-75047888D01*
X95040000Y-74360788D01*
X95040000Y-74372661D01*
X95067259Y-74474394D01*
X95119920Y-74565606D01*
X95194394Y-74640080D01*
X95285606Y-74692741D01*
X95387339Y-74720000D01*
X95399210Y-74720000D01*
X94712110Y-75407098D01*
X94712110Y-75407100D01*
X94783498Y-75457086D01*
X94990926Y-75553811D01*
X94990931Y-75553813D01*
X95211999Y-75613048D01*
X95211995Y-75613048D01*
X95440000Y-75632995D01*
X95668002Y-75613048D01*
X95889068Y-75553813D01*
X95889073Y-75553811D01*
X96096497Y-75457088D01*
X96167888Y-75407099D01*
X96167888Y-75407097D01*
X95480791Y-74720000D01*
X95492661Y-74720000D01*
X95594394Y-74692741D01*
X95685606Y-74640080D01*
X95760080Y-74565606D01*
X95812741Y-74474394D01*
X95840000Y-74372661D01*
X95840000Y-74360791D01*
X96527097Y-75047888D01*
X96532061Y-75047454D01*
X96576938Y-75011583D01*
X96647557Y-75004274D01*
X96710917Y-75036304D01*
X96727906Y-75055910D01*
X96803802Y-75164300D01*
X96965700Y-75326198D01*
X97153251Y-75457523D01*
X97360757Y-75554284D01*
X97581913Y-75613543D01*
X97810000Y-75633498D01*
X98038087Y-75613543D01*
X98259243Y-75554284D01*
X98466749Y-75457523D01*
X98654300Y-75326198D01*
X98816198Y-75164300D01*
X98947523Y-74976749D01*
X99044284Y-74769243D01*
X99103543Y-74548087D01*
X99123498Y-74320000D01*
X101497004Y-74320000D01*
X101516951Y-74548002D01*
X101576186Y-74769068D01*
X101576188Y-74769073D01*
X101672913Y-74976501D01*
X101722899Y-75047888D01*
X102410000Y-74360788D01*
X102410000Y-74372661D01*
X102437259Y-74474394D01*
X102489920Y-74565606D01*
X102564394Y-74640080D01*
X102655606Y-74692741D01*
X102757339Y-74720000D01*
X102769210Y-74720000D01*
X102082110Y-75407098D01*
X102082110Y-75407100D01*
X102153498Y-75457086D01*
X102360926Y-75553811D01*
X102360931Y-75553813D01*
X102581999Y-75613048D01*
X102581995Y-75613048D01*
X102810000Y-75632995D01*
X103038002Y-75613048D01*
X103259068Y-75553813D01*
X103259073Y-75553811D01*
X103466497Y-75457088D01*
X103537888Y-75407099D01*
X103537888Y-75407097D01*
X102850791Y-74720000D01*
X102862661Y-74720000D01*
X102964394Y-74692741D01*
X103055606Y-74640080D01*
X103130080Y-74565606D01*
X103182741Y-74474394D01*
X103210000Y-74372661D01*
X103210000Y-74360791D01*
X103897097Y-75047888D01*
X103897099Y-75047888D01*
X103947088Y-74976497D01*
X104005529Y-74851170D01*
X104052446Y-74797885D01*
X104120723Y-74778424D01*
X104188683Y-74798966D01*
X104233918Y-74851169D01*
X104292477Y-74976749D01*
X104423802Y-75164300D01*
X104585700Y-75326198D01*
X104773251Y-75457523D01*
X104980757Y-75554284D01*
X105201913Y-75613543D01*
X105430000Y-75633498D01*
X105658087Y-75613543D01*
X105879243Y-75554284D01*
X106086749Y-75457523D01*
X106274300Y-75326198D01*
X106436198Y-75164300D01*
X106567523Y-74976749D01*
X106664284Y-74769243D01*
X106723543Y-74548087D01*
X106743498Y-74320000D01*
X109117004Y-74320000D01*
X109136951Y-74548002D01*
X109196186Y-74769068D01*
X109196188Y-74769073D01*
X109292913Y-74976501D01*
X109342899Y-75047888D01*
X110030000Y-74360788D01*
X110030000Y-74372661D01*
X110057259Y-74474394D01*
X110109920Y-74565606D01*
X110184394Y-74640080D01*
X110275606Y-74692741D01*
X110377339Y-74720000D01*
X110389210Y-74720000D01*
X109702110Y-75407098D01*
X109702110Y-75407100D01*
X109773498Y-75457086D01*
X109980926Y-75553811D01*
X109980931Y-75553813D01*
X110201999Y-75613048D01*
X110201995Y-75613048D01*
X110430000Y-75632995D01*
X110658002Y-75613048D01*
X110879068Y-75553813D01*
X110879073Y-75553811D01*
X111086497Y-75457088D01*
X111157888Y-75407099D01*
X111157888Y-75407097D01*
X110470791Y-74720000D01*
X110482661Y-74720000D01*
X110584394Y-74692741D01*
X110675606Y-74640080D01*
X110750080Y-74565606D01*
X110802741Y-74474394D01*
X110830000Y-74372661D01*
X110830000Y-74360791D01*
X111517097Y-75047888D01*
X111517099Y-75047888D01*
X111567088Y-74976497D01*
X111663811Y-74769073D01*
X111663813Y-74769068D01*
X111723048Y-74548002D01*
X111742995Y-74320000D01*
X111723048Y-74091997D01*
X111663813Y-73870931D01*
X111663811Y-73870926D01*
X111567086Y-73663498D01*
X111517100Y-73592110D01*
X111517098Y-73592110D01*
X110830000Y-74279208D01*
X110830000Y-74267339D01*
X110802741Y-74165606D01*
X110750080Y-74074394D01*
X110675606Y-73999920D01*
X110584394Y-73947259D01*
X110482661Y-73920000D01*
X110470790Y-73920000D01*
X111157888Y-73232899D01*
X111157888Y-73232898D01*
X111086501Y-73182913D01*
X110879073Y-73086188D01*
X110879068Y-73086186D01*
X110658000Y-73026951D01*
X110658004Y-73026951D01*
X110430000Y-73007004D01*
X110201997Y-73026951D01*
X109980931Y-73086186D01*
X109980926Y-73086188D01*
X109773500Y-73182913D01*
X109702109Y-73232900D01*
X110389209Y-73920000D01*
X110377339Y-73920000D01*
X110275606Y-73947259D01*
X110184394Y-73999920D01*
X110109920Y-74074394D01*
X110057259Y-74165606D01*
X110030000Y-74267339D01*
X110030000Y-74279209D01*
X109342900Y-73592109D01*
X109292913Y-73663500D01*
X109196188Y-73870926D01*
X109196186Y-73870931D01*
X109136951Y-74091997D01*
X109117004Y-74320000D01*
X106743498Y-74320000D01*
X106723543Y-74091913D01*
X106664284Y-73870757D01*
X106567523Y-73663251D01*
X106436198Y-73475700D01*
X106274300Y-73313802D01*
X106158757Y-73232898D01*
X106086749Y-73182477D01*
X105879246Y-73085717D01*
X105879240Y-73085715D01*
X105785771Y-73060670D01*
X105658087Y-73026457D01*
X105430000Y-73006502D01*
X105201913Y-73026457D01*
X104980759Y-73085715D01*
X104980753Y-73085717D01*
X104773250Y-73182477D01*
X104585703Y-73313799D01*
X104585697Y-73313804D01*
X104423804Y-73475697D01*
X104423799Y-73475703D01*
X104292477Y-73663250D01*
X104233919Y-73788829D01*
X104187002Y-73842114D01*
X104118724Y-73861575D01*
X104050764Y-73841033D01*
X104005529Y-73788829D01*
X103947086Y-73663498D01*
X103897100Y-73592110D01*
X103897098Y-73592110D01*
X103210000Y-74279208D01*
X103210000Y-74267339D01*
X103182741Y-74165606D01*
X103130080Y-74074394D01*
X103055606Y-73999920D01*
X102964394Y-73947259D01*
X102862661Y-73920000D01*
X102850790Y-73920000D01*
X103537888Y-73232899D01*
X103537888Y-73232898D01*
X103466501Y-73182913D01*
X103259073Y-73086188D01*
X103259068Y-73086186D01*
X103038000Y-73026951D01*
X103038004Y-73026951D01*
X102810000Y-73007004D01*
X102581997Y-73026951D01*
X102360931Y-73086186D01*
X102360926Y-73086188D01*
X102153500Y-73182913D01*
X102082109Y-73232900D01*
X102769209Y-73920000D01*
X102757339Y-73920000D01*
X102655606Y-73947259D01*
X102564394Y-73999920D01*
X102489920Y-74074394D01*
X102437259Y-74165606D01*
X102410000Y-74267339D01*
X102410000Y-74279209D01*
X101722900Y-73592109D01*
X101672913Y-73663500D01*
X101576188Y-73870926D01*
X101576186Y-73870931D01*
X101516951Y-74091997D01*
X101497004Y-74320000D01*
X99123498Y-74320000D01*
X99103543Y-74091913D01*
X99044284Y-73870757D01*
X98947523Y-73663251D01*
X98816198Y-73475700D01*
X98654300Y-73313802D01*
X98538757Y-73232898D01*
X98466749Y-73182477D01*
X98259246Y-73085717D01*
X98259240Y-73085715D01*
X98165771Y-73060670D01*
X98038087Y-73026457D01*
X97810000Y-73006502D01*
X97581913Y-73026457D01*
X97360759Y-73085715D01*
X97360753Y-73085717D01*
X97153250Y-73182477D01*
X96965703Y-73313799D01*
X96965697Y-73313804D01*
X96803804Y-73475697D01*
X96803799Y-73475703D01*
X96727908Y-73584087D01*
X96672451Y-73628415D01*
X96601831Y-73635724D01*
X96538471Y-73603693D01*
X96528544Y-73592236D01*
X96527098Y-73592110D01*
X95840000Y-74279208D01*
X95840000Y-74267339D01*
X95812741Y-74165606D01*
X95760080Y-74074394D01*
X95685606Y-73999920D01*
X95594394Y-73947259D01*
X95492661Y-73920000D01*
X95480790Y-73920000D01*
X96167888Y-73232899D01*
X96167888Y-73232898D01*
X96096501Y-73182913D01*
X95889073Y-73086188D01*
X95889068Y-73086186D01*
X95668000Y-73026951D01*
X95668004Y-73026951D01*
X95440000Y-73007004D01*
X95211997Y-73026951D01*
X94990931Y-73086186D01*
X94990926Y-73086188D01*
X94783500Y-73182913D01*
X94712109Y-73232900D01*
X95399209Y-73920000D01*
X95387339Y-73920000D01*
X95285606Y-73947259D01*
X95194394Y-73999920D01*
X95119920Y-74074394D01*
X95067259Y-74165606D01*
X95040000Y-74267339D01*
X95040000Y-74279209D01*
X94352900Y-73592109D01*
X94302913Y-73663500D01*
X94206188Y-73870926D01*
X94206186Y-73870931D01*
X94146951Y-74091997D01*
X94127004Y-74320000D01*
X91753498Y-74320000D01*
X91733543Y-74091913D01*
X91674284Y-73870757D01*
X91577523Y-73663251D01*
X91446198Y-73475700D01*
X91284300Y-73313802D01*
X91168757Y-73232898D01*
X91096749Y-73182477D01*
X90889246Y-73085717D01*
X90889240Y-73085715D01*
X90795771Y-73060670D01*
X90668087Y-73026457D01*
X90440000Y-73006502D01*
X90211913Y-73026457D01*
X89990759Y-73085715D01*
X89990753Y-73085717D01*
X89783250Y-73182477D01*
X89595703Y-73313799D01*
X89595697Y-73313804D01*
X89433804Y-73475697D01*
X89433799Y-73475703D01*
X89302477Y-73663250D01*
X89298919Y-73670881D01*
X89252001Y-73724166D01*
X89183724Y-73743627D01*
X89115764Y-73723085D01*
X89070530Y-73670882D01*
X89067088Y-73663502D01*
X89067086Y-73663498D01*
X89017100Y-73592110D01*
X89017098Y-73592110D01*
X88330000Y-74279208D01*
X88330000Y-74267339D01*
X88302741Y-74165606D01*
X88250080Y-74074394D01*
X88175606Y-73999920D01*
X88084394Y-73947259D01*
X87982661Y-73920000D01*
X87970790Y-73920000D01*
X88657888Y-73232899D01*
X88657888Y-73232898D01*
X88586501Y-73182913D01*
X88379073Y-73086188D01*
X88379068Y-73086186D01*
X88158000Y-73026951D01*
X88158004Y-73026951D01*
X87930000Y-73007004D01*
X87701997Y-73026951D01*
X87480931Y-73086186D01*
X87480926Y-73086188D01*
X87273500Y-73182913D01*
X87202109Y-73232900D01*
X87889209Y-73920000D01*
X87877339Y-73920000D01*
X87775606Y-73947259D01*
X87684394Y-73999920D01*
X87609920Y-74074394D01*
X87557259Y-74165606D01*
X87530000Y-74267339D01*
X87530000Y-74279209D01*
X86842900Y-73592109D01*
X86792913Y-73663500D01*
X86696188Y-73870926D01*
X86696186Y-73870931D01*
X86636951Y-74091997D01*
X86617004Y-74320000D01*
X84243498Y-74320000D01*
X84223543Y-74091913D01*
X84164284Y-73870757D01*
X84067523Y-73663251D01*
X83936198Y-73475700D01*
X83774300Y-73313802D01*
X83658757Y-73232898D01*
X83586749Y-73182477D01*
X83379246Y-73085717D01*
X83379240Y-73085715D01*
X83285771Y-73060670D01*
X83158087Y-73026457D01*
X82930000Y-73006502D01*
X82701913Y-73026457D01*
X82480759Y-73085715D01*
X82480753Y-73085717D01*
X82273250Y-73182477D01*
X82085703Y-73313799D01*
X82085697Y-73313804D01*
X81923804Y-73475697D01*
X81923799Y-73475703D01*
X81792477Y-73663250D01*
X81695717Y-73870753D01*
X81695715Y-73870759D01*
X81636457Y-74091913D01*
X81616502Y-74320000D01*
X61601514Y-74320000D01*
X61601550Y-72709770D01*
X61601576Y-72707362D01*
X61605291Y-72527339D01*
X61606119Y-72515300D01*
X61648251Y-72156109D01*
X61650605Y-72142531D01*
X61731611Y-71790960D01*
X61735445Y-71777694D01*
X61854455Y-71437103D01*
X61859703Y-71424372D01*
X62015291Y-71098841D01*
X62021906Y-71086753D01*
X62212191Y-70780224D01*
X62220099Y-70768919D01*
X62442789Y-70485076D01*
X62451886Y-70474706D01*
X62704320Y-70216939D01*
X62714489Y-70207635D01*
X62993632Y-69979048D01*
X63004759Y-69970913D01*
X63307241Y-69774265D01*
X63319193Y-69767396D01*
X63641392Y-69605042D01*
X63654020Y-69599524D01*
X63992051Y-69473421D01*
X64005223Y-69469314D01*
X64355021Y-69380978D01*
X64368565Y-69378338D01*
X64726790Y-69328708D01*
X64738792Y-69327627D01*
X64918020Y-69320118D01*
X64921823Y-69320018D01*
X65139870Y-69317640D01*
X65139881Y-69317639D01*
X65139884Y-69317639D01*
X65578079Y-69279300D01*
X65578079Y-69279299D01*
X65578090Y-69279299D01*
X66011302Y-69202910D01*
X66436208Y-69089055D01*
X66849573Y-68938601D01*
X67248253Y-68752692D01*
X67629213Y-68532743D01*
X67989553Y-68280429D01*
X67989559Y-68280423D01*
X67989561Y-68280423D01*
X68326514Y-67997684D01*
X68326532Y-67997669D01*
X68637584Y-67686615D01*
X68869695Y-67409995D01*
X71476807Y-67409995D01*
X71476807Y-67410004D01*
X71495556Y-67684116D01*
X71495557Y-67684122D01*
X71495558Y-67684130D01*
X71526217Y-67831670D01*
X71551460Y-67953146D01*
X71551462Y-67953154D01*
X71643477Y-68212058D01*
X71769892Y-68456028D01*
X71824044Y-68532743D01*
X71928343Y-68680502D01*
X72115889Y-68881314D01*
X72329031Y-69054718D01*
X72563800Y-69197484D01*
X72815823Y-69306953D01*
X73080404Y-69381085D01*
X73175504Y-69394156D01*
X73352604Y-69418499D01*
X73352615Y-69418500D01*
X73627385Y-69418500D01*
X73627395Y-69418499D01*
X73756945Y-69400692D01*
X73899596Y-69381085D01*
X74164177Y-69306953D01*
X74416200Y-69197484D01*
X74650969Y-69054718D01*
X74864111Y-68881314D01*
X75051657Y-68680502D01*
X75210111Y-68456023D01*
X75336523Y-68212058D01*
X75428538Y-67953153D01*
X75484442Y-67684130D01*
X75503157Y-67410524D01*
X75503158Y-67410515D01*
X102477507Y-67410515D01*
X102477507Y-67410524D01*
X102496256Y-67684636D01*
X102496257Y-67684642D01*
X102496258Y-67684650D01*
X102526917Y-67832190D01*
X102552160Y-67953666D01*
X102552162Y-67953674D01*
X102643992Y-68212058D01*
X102644177Y-68212578D01*
X102770322Y-68456028D01*
X102770592Y-68456548D01*
X102824377Y-68532743D01*
X102929043Y-68681022D01*
X103083755Y-68846677D01*
X103116100Y-68881311D01*
X103116589Y-68881834D01*
X103329731Y-69055238D01*
X103563645Y-69197484D01*
X103564502Y-69198005D01*
X103648507Y-69234493D01*
X103816523Y-69307473D01*
X104081104Y-69381605D01*
X104176204Y-69394676D01*
X104353304Y-69419019D01*
X104353315Y-69419020D01*
X104628085Y-69419020D01*
X104628095Y-69419019D01*
X104757645Y-69401212D01*
X104900296Y-69381605D01*
X105164877Y-69307473D01*
X105416900Y-69198004D01*
X105651669Y-69055238D01*
X105864811Y-68881834D01*
X106052357Y-68681022D01*
X106210811Y-68456543D01*
X106337223Y-68212578D01*
X106429238Y-67953673D01*
X106485142Y-67684650D01*
X106503893Y-67410520D01*
X106503857Y-67410000D01*
X106485143Y-67136403D01*
X106485142Y-67136397D01*
X106485142Y-67136390D01*
X106429238Y-66867367D01*
X106337223Y-66608462D01*
X106210811Y-66364497D01*
X106052357Y-66140018D01*
X105864811Y-65939206D01*
X105651669Y-65765802D01*
X105416900Y-65623036D01*
X105416901Y-65623036D01*
X105416897Y-65623034D01*
X105164880Y-65513568D01*
X105164878Y-65513567D01*
X105164877Y-65513567D01*
X105032586Y-65476501D01*
X104900293Y-65439434D01*
X104628095Y-65402020D01*
X104628085Y-65402020D01*
X104353315Y-65402020D01*
X104353304Y-65402020D01*
X104081106Y-65439434D01*
X103816519Y-65513568D01*
X103564502Y-65623034D01*
X103329728Y-65765804D01*
X103116586Y-65939208D01*
X102929043Y-66140018D01*
X102770592Y-66364491D01*
X102644177Y-66608461D01*
X102552162Y-66867365D01*
X102552160Y-66867373D01*
X102526825Y-66989294D01*
X102496364Y-67135883D01*
X102496257Y-67136397D01*
X102496256Y-67136403D01*
X102477507Y-67410515D01*
X75503158Y-67410515D01*
X75503193Y-67410004D01*
X75503193Y-67409995D01*
X75484443Y-67135883D01*
X75484442Y-67135877D01*
X75484442Y-67135870D01*
X75428538Y-66866847D01*
X75336523Y-66607942D01*
X75210111Y-66363977D01*
X75051657Y-66139498D01*
X74864111Y-65938686D01*
X74650969Y-65765282D01*
X74416200Y-65622516D01*
X74416201Y-65622516D01*
X74416197Y-65622514D01*
X74164180Y-65513048D01*
X74164178Y-65513047D01*
X74164177Y-65513047D01*
X73901452Y-65439435D01*
X73899593Y-65438914D01*
X73627395Y-65401500D01*
X73627385Y-65401500D01*
X73352615Y-65401500D01*
X73352604Y-65401500D01*
X73080406Y-65438914D01*
X72815819Y-65513048D01*
X72563802Y-65622514D01*
X72329028Y-65765284D01*
X72115886Y-65938688D01*
X71928343Y-66139498D01*
X71769892Y-66363971D01*
X71643477Y-66607941D01*
X71551462Y-66866845D01*
X71551460Y-66866853D01*
X71495557Y-67135877D01*
X71495556Y-67135883D01*
X71476807Y-67409995D01*
X68869695Y-67409995D01*
X68920342Y-67349636D01*
X69172655Y-66989294D01*
X69392602Y-66608334D01*
X69578509Y-66209653D01*
X69728962Y-65796287D01*
X69842815Y-65371381D01*
X69919201Y-64938169D01*
X69957541Y-64499948D01*
X69959961Y-64280000D01*
X69959961Y-61015000D01*
X79411562Y-61015000D01*
X79432044Y-61275249D01*
X79492986Y-61529089D01*
X79551506Y-61670368D01*
X79577546Y-61733236D01*
X79592887Y-61770271D01*
X79675449Y-61905001D01*
X79729288Y-61992857D01*
X79729289Y-61992859D01*
X79898826Y-62191363D01*
X80084568Y-62350000D01*
X80097334Y-62360903D01*
X80319919Y-62497303D01*
X80561101Y-62597204D01*
X80814941Y-62658146D01*
X81075190Y-62678628D01*
X81335439Y-62658146D01*
X81589279Y-62597204D01*
X81830461Y-62497303D01*
X82053046Y-62360903D01*
X82251553Y-62191363D01*
X82421093Y-61992856D01*
X82557493Y-61770271D01*
X82657394Y-61529089D01*
X82718336Y-61275249D01*
X82738818Y-61015000D01*
X82718336Y-60754751D01*
X82657394Y-60500911D01*
X82557493Y-60259729D01*
X82421093Y-60037144D01*
X82397490Y-60009508D01*
X82251553Y-59838636D01*
X82053049Y-59669099D01*
X82053047Y-59669098D01*
X82053046Y-59669097D01*
X81830461Y-59532697D01*
X81589279Y-59432796D01*
X81589277Y-59432795D01*
X81589276Y-59432795D01*
X81452669Y-59399998D01*
X81335439Y-59371854D01*
X81075190Y-59351372D01*
X80814941Y-59371854D01*
X80561103Y-59432795D01*
X80319920Y-59532696D01*
X80097332Y-59669098D01*
X80097330Y-59669099D01*
X79898826Y-59838636D01*
X79729289Y-60037140D01*
X79729288Y-60037142D01*
X79592886Y-60259730D01*
X79492985Y-60500913D01*
X79440783Y-60718350D01*
X79432044Y-60754751D01*
X79411562Y-61015000D01*
X69959961Y-61015000D01*
X69959961Y-57040770D01*
X69959968Y-57039397D01*
X69960606Y-56980847D01*
X69961719Y-56878709D01*
X73149500Y-56878709D01*
X73149500Y-57121290D01*
X73181160Y-57361782D01*
X73243944Y-57596095D01*
X73243945Y-57596097D01*
X73243946Y-57596100D01*
X73336776Y-57820212D01*
X73336777Y-57820213D01*
X73336782Y-57820224D01*
X73458061Y-58030285D01*
X73458063Y-58030288D01*
X73458064Y-58030289D01*
X73605735Y-58222738D01*
X73605739Y-58222742D01*
X73605744Y-58222748D01*
X73777251Y-58394255D01*
X73777256Y-58394259D01*
X73777262Y-58394265D01*
X73922511Y-58505718D01*
X73969714Y-58541938D01*
X74179775Y-58663217D01*
X74179779Y-58663218D01*
X74179788Y-58663224D01*
X74403900Y-58756054D01*
X74638211Y-58818838D01*
X74638215Y-58818838D01*
X74638217Y-58818839D01*
X74679479Y-58824271D01*
X74878712Y-58850500D01*
X74878719Y-58850500D01*
X75121281Y-58850500D01*
X75121288Y-58850500D01*
X75338637Y-58821885D01*
X75361782Y-58818839D01*
X75361782Y-58818838D01*
X75361789Y-58818838D01*
X75596100Y-58756054D01*
X75820212Y-58663224D01*
X76030289Y-58541936D01*
X76222738Y-58394265D01*
X76394265Y-58222738D01*
X76541936Y-58030289D01*
X76663224Y-57820212D01*
X76756054Y-57596100D01*
X76791968Y-57462070D01*
X80979690Y-57462070D01*
X80979690Y-57707929D01*
X81011779Y-57951669D01*
X81011780Y-57951675D01*
X81011781Y-57951677D01*
X81075412Y-58189153D01*
X81169496Y-58416292D01*
X81169497Y-58416293D01*
X81169502Y-58416304D01*
X81292420Y-58629204D01*
X81292424Y-58629210D01*
X81442084Y-58824250D01*
X81442103Y-58824271D01*
X81615918Y-58998086D01*
X81615928Y-58998095D01*
X81615934Y-58998101D01*
X81615937Y-58998103D01*
X81615939Y-58998105D01*
X81810979Y-59147765D01*
X81810985Y-59147769D01*
X82023885Y-59270687D01*
X82023889Y-59270688D01*
X82023898Y-59270694D01*
X82251037Y-59364778D01*
X82488513Y-59428409D01*
X82488519Y-59428409D01*
X82488520Y-59428410D01*
X82516484Y-59432091D01*
X82732263Y-59460500D01*
X82732270Y-59460500D01*
X82978110Y-59460500D01*
X82978117Y-59460500D01*
X83221867Y-59428409D01*
X83459343Y-59364778D01*
X83552116Y-59326350D01*
X84386690Y-59326350D01*
X84386690Y-60923649D01*
X84393199Y-60984196D01*
X84393201Y-60984204D01*
X84444300Y-61121202D01*
X84444302Y-61121207D01*
X84531928Y-61238261D01*
X84648982Y-61325887D01*
X84648984Y-61325888D01*
X84648986Y-61325889D01*
X84708065Y-61347924D01*
X84785985Y-61376988D01*
X84785993Y-61376990D01*
X84846540Y-61383499D01*
X84846545Y-61383499D01*
X84846552Y-61383500D01*
X85333824Y-61383500D01*
X85401945Y-61403502D01*
X85448438Y-61457158D01*
X85458542Y-61527432D01*
X85455531Y-61542111D01*
X85453709Y-61548911D01*
X85417075Y-61685629D01*
X85397883Y-61905000D01*
X85405569Y-61992859D01*
X85417075Y-62124370D01*
X85474069Y-62337073D01*
X85474071Y-62337079D01*
X85513134Y-62420850D01*
X85567134Y-62536654D01*
X85652204Y-62658146D01*
X85693441Y-62717038D01*
X85693444Y-62717042D01*
X85849147Y-62872745D01*
X85849151Y-62872748D01*
X85849152Y-62872749D01*
X86029536Y-62999056D01*
X86229114Y-63092120D01*
X86441819Y-63149115D01*
X86661190Y-63168307D01*
X86880561Y-63149115D01*
X87093266Y-63092120D01*
X87292844Y-62999056D01*
X87473228Y-62872749D01*
X87473232Y-62872745D01*
X87588095Y-62757883D01*
X87650407Y-62723857D01*
X87721222Y-62728922D01*
X87766285Y-62757883D01*
X87881147Y-62872745D01*
X87881151Y-62872748D01*
X87881152Y-62872749D01*
X88061536Y-62999056D01*
X88261114Y-63092120D01*
X88473819Y-63149115D01*
X88693190Y-63168307D01*
X88912561Y-63149115D01*
X89125266Y-63092120D01*
X89324844Y-62999056D01*
X89505228Y-62872749D01*
X89505232Y-62872745D01*
X89620095Y-62757883D01*
X89682407Y-62723857D01*
X89753222Y-62728922D01*
X89798285Y-62757883D01*
X89913147Y-62872745D01*
X89913151Y-62872748D01*
X89913152Y-62872749D01*
X90093536Y-62999056D01*
X90293114Y-63092120D01*
X90505819Y-63149115D01*
X90725190Y-63168307D01*
X90944561Y-63149115D01*
X91157266Y-63092120D01*
X91356844Y-62999056D01*
X91537228Y-62872749D01*
X91692939Y-62717038D01*
X91819246Y-62536654D01*
X91856097Y-62457625D01*
X91881193Y-62421785D01*
X92317938Y-61985039D01*
X92342516Y-62076764D01*
X92401101Y-62178236D01*
X92483954Y-62261089D01*
X92585426Y-62319674D01*
X92677148Y-62344250D01*
X92065201Y-62956197D01*
X92065201Y-62956198D01*
X92125787Y-62998621D01*
X92325282Y-63091647D01*
X92325286Y-63091649D01*
X92537902Y-63148619D01*
X92757190Y-63167804D01*
X92976477Y-63148619D01*
X93189093Y-63091649D01*
X93189097Y-63091647D01*
X93388589Y-62998622D01*
X93449177Y-62956197D01*
X93449177Y-62956196D01*
X92837231Y-62344250D01*
X92928954Y-62319674D01*
X93030426Y-62261089D01*
X93113279Y-62178236D01*
X93171864Y-62076764D01*
X93196440Y-61985041D01*
X93808386Y-62596987D01*
X93808387Y-62596987D01*
X93850812Y-62536399D01*
X93943837Y-62336907D01*
X93943839Y-62336903D01*
X94000809Y-62124287D01*
X94019994Y-61905000D01*
X94000809Y-61685712D01*
X93943839Y-61473096D01*
X93943837Y-61473092D01*
X93850809Y-61273594D01*
X93808389Y-61213011D01*
X93808387Y-61213011D01*
X93196440Y-61824958D01*
X93171864Y-61733236D01*
X93113279Y-61631764D01*
X93030426Y-61548911D01*
X92928954Y-61490326D01*
X92837229Y-61465748D01*
X93287977Y-61015000D01*
X95671562Y-61015000D01*
X95692044Y-61275249D01*
X95752986Y-61529089D01*
X95811506Y-61670368D01*
X95837546Y-61733236D01*
X95852887Y-61770271D01*
X95935449Y-61905001D01*
X95989288Y-61992857D01*
X95989289Y-61992859D01*
X96158826Y-62191363D01*
X96344568Y-62350000D01*
X96357334Y-62360903D01*
X96579919Y-62497303D01*
X96821101Y-62597204D01*
X97074941Y-62658146D01*
X97335190Y-62678628D01*
X97595439Y-62658146D01*
X97849279Y-62597204D01*
X98090461Y-62497303D01*
X98313046Y-62360903D01*
X98511553Y-62191363D01*
X98681093Y-61992856D01*
X98817493Y-61770271D01*
X98917394Y-61529089D01*
X98978336Y-61275249D01*
X98998818Y-61015000D01*
X98978336Y-60754751D01*
X98917394Y-60500911D01*
X98817493Y-60259729D01*
X98681093Y-60037144D01*
X98657490Y-60009508D01*
X98511553Y-59838636D01*
X98313049Y-59669099D01*
X98313047Y-59669098D01*
X98313046Y-59669097D01*
X98090461Y-59532697D01*
X97849279Y-59432796D01*
X97849277Y-59432795D01*
X97849276Y-59432795D01*
X97712669Y-59399998D01*
X97595439Y-59371854D01*
X97335190Y-59351372D01*
X97074941Y-59371854D01*
X96821103Y-59432795D01*
X96579920Y-59532696D01*
X96357332Y-59669098D01*
X96357330Y-59669099D01*
X96158826Y-59838636D01*
X95989289Y-60037140D01*
X95989288Y-60037142D01*
X95852886Y-60259730D01*
X95752985Y-60500913D01*
X95700783Y-60718350D01*
X95692044Y-60754751D01*
X95671562Y-61015000D01*
X93287977Y-61015000D01*
X93449177Y-60853800D01*
X93388593Y-60811379D01*
X93189097Y-60718352D01*
X93189093Y-60718350D01*
X93027167Y-60674963D01*
X92966544Y-60638011D01*
X92935523Y-60574151D01*
X92938070Y-60520648D01*
X92985305Y-60344371D01*
X93004497Y-60125000D01*
X92985305Y-59905629D01*
X92928310Y-59692924D01*
X92835246Y-59493347D01*
X92708939Y-59312962D01*
X92553228Y-59157251D01*
X92539686Y-59147769D01*
X92484179Y-59108902D01*
X92372844Y-59030944D01*
X92372840Y-59030942D01*
X92173269Y-58937881D01*
X92173263Y-58937879D01*
X92083368Y-58913791D01*
X91960561Y-58880885D01*
X91741190Y-58861693D01*
X91521819Y-58880885D01*
X91309116Y-58937879D01*
X91309110Y-58937881D01*
X91109536Y-59030944D01*
X90929155Y-59157248D01*
X90814285Y-59272118D01*
X90751973Y-59306143D01*
X90681157Y-59301077D01*
X90636095Y-59272117D01*
X90521232Y-59157254D01*
X90521228Y-59157251D01*
X90507686Y-59147769D01*
X90340844Y-59030944D01*
X90340840Y-59030942D01*
X90141269Y-58937881D01*
X90141263Y-58937879D01*
X90051368Y-58913791D01*
X89928561Y-58880885D01*
X89709190Y-58861693D01*
X89489819Y-58880885D01*
X89277116Y-58937879D01*
X89277110Y-58937881D01*
X89077536Y-59030944D01*
X88897155Y-59157248D01*
X88782285Y-59272118D01*
X88719973Y-59306143D01*
X88649157Y-59301077D01*
X88604095Y-59272117D01*
X88489232Y-59157254D01*
X88489228Y-59157251D01*
X88475686Y-59147769D01*
X88308844Y-59030944D01*
X88308840Y-59030942D01*
X88109269Y-58937881D01*
X88109263Y-58937879D01*
X88019368Y-58913791D01*
X87896561Y-58880885D01*
X87677190Y-58861693D01*
X87457819Y-58880885D01*
X87245116Y-58937879D01*
X87245110Y-58937881D01*
X87045536Y-59030944D01*
X86966603Y-59086214D01*
X86899329Y-59108902D01*
X86830468Y-59091617D01*
X86793464Y-59058510D01*
X86758451Y-59011738D01*
X86641397Y-58924112D01*
X86641392Y-58924110D01*
X86504394Y-58873011D01*
X86504386Y-58873009D01*
X86443839Y-58866500D01*
X86443828Y-58866500D01*
X84846552Y-58866500D01*
X84846540Y-58866500D01*
X84785993Y-58873009D01*
X84785985Y-58873011D01*
X84648987Y-58924110D01*
X84648982Y-58924112D01*
X84531928Y-59011738D01*
X84444302Y-59128792D01*
X84444300Y-59128797D01*
X84393201Y-59265795D01*
X84393199Y-59265803D01*
X84386690Y-59326350D01*
X83552116Y-59326350D01*
X83686482Y-59270694D01*
X83899398Y-59147767D01*
X84094446Y-58998101D01*
X84268291Y-58824256D01*
X84417957Y-58629208D01*
X84540884Y-58416292D01*
X84634968Y-58189153D01*
X84698599Y-57951677D01*
X84730690Y-57707927D01*
X84730690Y-57462073D01*
X84730690Y-57462070D01*
X93679690Y-57462070D01*
X93679690Y-57707929D01*
X93711779Y-57951669D01*
X93711780Y-57951675D01*
X93711781Y-57951677D01*
X93775412Y-58189153D01*
X93869496Y-58416292D01*
X93869497Y-58416293D01*
X93869502Y-58416304D01*
X93992420Y-58629204D01*
X93992424Y-58629210D01*
X94142084Y-58824250D01*
X94142103Y-58824271D01*
X94315918Y-58998086D01*
X94315928Y-58998095D01*
X94315934Y-58998101D01*
X94315937Y-58998103D01*
X94315939Y-58998105D01*
X94510979Y-59147765D01*
X94510985Y-59147769D01*
X94723885Y-59270687D01*
X94723889Y-59270688D01*
X94723898Y-59270694D01*
X94951037Y-59364778D01*
X95188513Y-59428409D01*
X95188519Y-59428409D01*
X95188520Y-59428410D01*
X95216484Y-59432091D01*
X95432263Y-59460500D01*
X95432270Y-59460500D01*
X95678110Y-59460500D01*
X95678117Y-59460500D01*
X95921867Y-59428409D01*
X96159343Y-59364778D01*
X96386482Y-59270694D01*
X96599398Y-59147767D01*
X96794446Y-58998101D01*
X96968291Y-58824256D01*
X97117957Y-58629208D01*
X97240884Y-58416292D01*
X97334968Y-58189153D01*
X97398599Y-57951677D01*
X97430690Y-57707927D01*
X97430690Y-57462073D01*
X97398599Y-57218323D01*
X97334968Y-56980847D01*
X97292661Y-56878709D01*
X101549500Y-56878709D01*
X101549500Y-57121290D01*
X101581160Y-57361782D01*
X101643944Y-57596095D01*
X101643945Y-57596097D01*
X101643946Y-57596100D01*
X101736776Y-57820212D01*
X101736777Y-57820213D01*
X101736782Y-57820224D01*
X101858061Y-58030285D01*
X101858063Y-58030288D01*
X101858064Y-58030289D01*
X102005735Y-58222738D01*
X102005739Y-58222742D01*
X102005744Y-58222748D01*
X102177251Y-58394255D01*
X102177256Y-58394259D01*
X102177262Y-58394265D01*
X102322511Y-58505718D01*
X102369714Y-58541938D01*
X102579775Y-58663217D01*
X102579779Y-58663218D01*
X102579788Y-58663224D01*
X102803900Y-58756054D01*
X103038211Y-58818838D01*
X103038215Y-58818838D01*
X103038217Y-58818839D01*
X103079479Y-58824271D01*
X103278712Y-58850500D01*
X103278719Y-58850500D01*
X103521281Y-58850500D01*
X103521288Y-58850500D01*
X103738637Y-58821885D01*
X103761782Y-58818839D01*
X103761782Y-58818838D01*
X103761789Y-58818838D01*
X103996100Y-58756054D01*
X104220212Y-58663224D01*
X104430289Y-58541936D01*
X104622738Y-58394265D01*
X104794265Y-58222738D01*
X104941936Y-58030289D01*
X105063224Y-57820212D01*
X105156054Y-57596100D01*
X105218838Y-57361789D01*
X105250500Y-57121288D01*
X105250500Y-56878712D01*
X105218838Y-56638211D01*
X105156054Y-56403900D01*
X105063224Y-56179788D01*
X105063218Y-56179779D01*
X105063217Y-56179775D01*
X104941938Y-55969714D01*
X104815719Y-55805222D01*
X104794265Y-55777262D01*
X104794259Y-55777256D01*
X104794255Y-55777251D01*
X104622748Y-55605744D01*
X104622742Y-55605739D01*
X104622738Y-55605735D01*
X104430289Y-55458064D01*
X104430288Y-55458063D01*
X104430285Y-55458061D01*
X104220224Y-55336782D01*
X104220216Y-55336778D01*
X104220212Y-55336776D01*
X103996100Y-55243946D01*
X103996097Y-55243945D01*
X103996095Y-55243944D01*
X103761782Y-55181160D01*
X103521290Y-55149500D01*
X103521288Y-55149500D01*
X103278712Y-55149500D01*
X103278709Y-55149500D01*
X103038217Y-55181160D01*
X102803904Y-55243944D01*
X102803900Y-55243946D01*
X102579786Y-55336777D01*
X102579775Y-55336782D01*
X102369714Y-55458061D01*
X102177262Y-55605735D01*
X102177251Y-55605744D01*
X102005744Y-55777251D01*
X102005735Y-55777262D01*
X101858061Y-55969714D01*
X101736782Y-56179775D01*
X101736777Y-56179786D01*
X101736776Y-56179788D01*
X101668042Y-56345728D01*
X101643946Y-56403900D01*
X101643944Y-56403904D01*
X101581160Y-56638217D01*
X101549500Y-56878709D01*
X97292661Y-56878709D01*
X97240884Y-56753708D01*
X97240878Y-56753699D01*
X97240877Y-56753695D01*
X97117959Y-56540795D01*
X97117955Y-56540789D01*
X96968295Y-56345749D01*
X96968293Y-56345747D01*
X96968291Y-56345744D01*
X96968285Y-56345738D01*
X96968276Y-56345728D01*
X96794461Y-56171913D01*
X96794440Y-56171894D01*
X96599400Y-56022234D01*
X96599394Y-56022230D01*
X96386494Y-55899312D01*
X96386486Y-55899308D01*
X96386482Y-55899306D01*
X96159343Y-55805222D01*
X95921867Y-55741591D01*
X95921865Y-55741590D01*
X95921859Y-55741589D01*
X95678119Y-55709500D01*
X95678117Y-55709500D01*
X95432263Y-55709500D01*
X95432260Y-55709500D01*
X95188520Y-55741589D01*
X94951037Y-55805222D01*
X94723896Y-55899307D01*
X94723885Y-55899312D01*
X94510985Y-56022230D01*
X94510979Y-56022234D01*
X94315939Y-56171894D01*
X94315918Y-56171913D01*
X94142103Y-56345728D01*
X94142084Y-56345749D01*
X93992424Y-56540789D01*
X93992420Y-56540795D01*
X93869502Y-56753695D01*
X93869497Y-56753706D01*
X93869496Y-56753708D01*
X93826406Y-56857736D01*
X93775412Y-56980847D01*
X93711779Y-57218330D01*
X93679690Y-57462070D01*
X84730690Y-57462070D01*
X84698599Y-57218323D01*
X84634968Y-56980847D01*
X84540884Y-56753708D01*
X84540878Y-56753699D01*
X84540877Y-56753695D01*
X84417959Y-56540795D01*
X84417955Y-56540789D01*
X84268295Y-56345749D01*
X84268293Y-56345747D01*
X84268291Y-56345744D01*
X84268285Y-56345738D01*
X84268276Y-56345728D01*
X84094461Y-56171913D01*
X84094440Y-56171894D01*
X83899400Y-56022234D01*
X83899394Y-56022230D01*
X83686494Y-55899312D01*
X83686486Y-55899308D01*
X83686482Y-55899306D01*
X83459343Y-55805222D01*
X83221867Y-55741591D01*
X83221865Y-55741590D01*
X83221859Y-55741589D01*
X82978119Y-55709500D01*
X82978117Y-55709500D01*
X82732263Y-55709500D01*
X82732260Y-55709500D01*
X82488520Y-55741589D01*
X82251037Y-55805222D01*
X82023896Y-55899307D01*
X82023885Y-55899312D01*
X81810985Y-56022230D01*
X81810979Y-56022234D01*
X81615939Y-56171894D01*
X81615918Y-56171913D01*
X81442103Y-56345728D01*
X81442084Y-56345749D01*
X81292424Y-56540789D01*
X81292420Y-56540795D01*
X81169502Y-56753695D01*
X81169497Y-56753706D01*
X81169496Y-56753708D01*
X81126406Y-56857736D01*
X81075412Y-56980847D01*
X81011779Y-57218330D01*
X80979690Y-57462070D01*
X76791968Y-57462070D01*
X76818838Y-57361789D01*
X76850500Y-57121288D01*
X76850500Y-56878712D01*
X76818838Y-56638211D01*
X76756054Y-56403900D01*
X76663224Y-56179788D01*
X76663218Y-56179779D01*
X76663217Y-56179775D01*
X76541938Y-55969714D01*
X76415719Y-55805222D01*
X76394265Y-55777262D01*
X76394259Y-55777256D01*
X76394255Y-55777251D01*
X76222748Y-55605744D01*
X76222742Y-55605739D01*
X76222738Y-55605735D01*
X76030289Y-55458064D01*
X76030288Y-55458063D01*
X76030285Y-55458061D01*
X75820224Y-55336782D01*
X75820216Y-55336778D01*
X75820212Y-55336776D01*
X75596100Y-55243946D01*
X75596097Y-55243945D01*
X75596095Y-55243944D01*
X75361782Y-55181160D01*
X75121290Y-55149500D01*
X75121288Y-55149500D01*
X74878712Y-55149500D01*
X74878709Y-55149500D01*
X74638217Y-55181160D01*
X74403904Y-55243944D01*
X74403900Y-55243946D01*
X74179786Y-55336777D01*
X74179775Y-55336782D01*
X73969714Y-55458061D01*
X73777262Y-55605735D01*
X73777251Y-55605744D01*
X73605744Y-55777251D01*
X73605735Y-55777262D01*
X73458061Y-55969714D01*
X73336782Y-56179775D01*
X73336777Y-56179786D01*
X73336776Y-56179788D01*
X73268042Y-56345728D01*
X73243946Y-56403900D01*
X73243944Y-56403904D01*
X73181160Y-56638217D01*
X73149500Y-56878709D01*
X69961719Y-56878709D01*
X69962306Y-56824890D01*
X69962777Y-56815310D01*
X70000221Y-56387327D01*
X70001651Y-56376467D01*
X70076134Y-55954053D01*
X70078503Y-55943364D01*
X70189521Y-55529041D01*
X70192824Y-55518571D01*
X70214848Y-55458061D01*
X70339514Y-55115543D01*
X70343708Y-55105416D01*
X70524981Y-54716675D01*
X70530054Y-54706931D01*
X70744511Y-54335481D01*
X70750388Y-54326255D01*
X70996417Y-53974890D01*
X71003088Y-53966196D01*
X71278798Y-53637618D01*
X71286203Y-53629537D01*
X71589497Y-53326242D01*
X71597578Y-53318837D01*
X71926156Y-53043127D01*
X71934850Y-53036456D01*
X72286216Y-52790427D01*
X72295442Y-52784550D01*
X72666898Y-52570090D01*
X72676636Y-52565021D01*
X73065370Y-52383751D01*
X73075503Y-52379554D01*
X73478545Y-52232858D01*
X73489008Y-52229559D01*
X73903320Y-52118544D01*
X73914014Y-52116174D01*
X74336428Y-52041691D01*
X74347288Y-52040261D01*
X74775270Y-52002817D01*
X74784851Y-52002346D01*
X74999358Y-52000006D01*
X75000732Y-52000000D01*
X103429318Y-52000000D01*
X103430719Y-52000008D01*
G37*
G04 #@! TD.AperFunction*
M02*
