M48
; DRILL file {KiCad 8.0.6} date 2025-02-05T09:38:41+0300
; FORMAT={-:-/ absolute / metric / decimal}
; #@! TF.CreationDate,2025-02-05T09:38:41+03:00
; #@! TF.GenerationSoftware,Kicad,Pcbnew,8.0.6
; #@! TF.FileFunction,Plated,1,2,PTH
FMAT,2
METRIC
; #@! TA.AperFunction,Plated,PTH,ViaDrill
T1C0.400
; #@! TA.AperFunction,Plated,PTH,ComponentDrill
T2C0.800
; #@! TA.AperFunction,Plated,PTH,ComponentDrill
T3C0.890
; #@! TA.AperFunction,Plated,PTH,ComponentDrill
T4C0.990
; #@! TA.AperFunction,Plated,PTH,ComponentDrill
T5C1.000
; #@! TA.AperFunction,Plated,PTH,ComponentDrill
T6C1.200
; #@! TA.AperFunction,Plated,PTH,ComponentDrill
T7C1.300
; #@! TA.AperFunction,Plated,PTH,ComponentDrill
T8C1.570
; #@! TA.AperFunction,Plated,PTH,ComponentDrill
T9C2.500
%
G90
G05
T1
X68.94Y-113.09
X69.0Y-123.36
X69.14Y-103.92
X69.21Y-132.87
X71.72Y-78.16
X71.99Y-85.44
X72.33Y-70.69
X73.86Y-62.86
X79.84Y-74.22
X82.17Y-63.57
X82.87Y-88.43
X84.29Y-69.8
X86.67Y-152.17
X88.1Y-109.56
X88.71Y-71.3
X88.78Y-97.6
X89.02Y-119.21
X89.02Y-125.19
X89.15Y-133.01
X90.27Y-88.36
X91.29Y-152.24
X93.88Y-135.73
X94.08Y-70.89
X95.17Y-88.36
X95.3Y-97.53
X99.58Y-126.35
X99.96Y-70.96
X100.26Y-97.53
X100.33Y-110.51
X100.4Y-119.01
X100.74Y-88.02
X104.21Y-97.26
X104.6Y-62.88
X104.89Y-133.07
X105.63Y-131.04
X106.18Y-102.02
X106.24Y-107.79
X106.24Y-124.72
X106.31Y-113.43
X106.31Y-119.21
X108.22Y-79.79
X108.28Y-87.07
T2
X66.43Y-81.64
X66.44Y-85.04
X66.44Y-92.66
X69.33Y-78.0
X71.43Y-81.64
X74.33Y-78.0
X74.45Y-81.23
X74.45Y-88.85
X77.52Y-78.0
X78.43Y-81.23
X78.43Y-88.85
X82.52Y-78.0
X82.93Y-74.32
X86.59Y-77.95
X86.59Y-80.49
X86.59Y-83.03
X86.65Y-86.21
X86.65Y-93.83
X87.93Y-74.32
X90.44Y-74.32
X92.393Y-77.95
X92.393Y-80.49
X92.393Y-83.03
X92.473Y-86.21
X92.473Y-93.83
X95.44Y-74.32
X97.81Y-74.32
X98.197Y-77.95
X98.197Y-80.49
X98.197Y-83.03
X98.297Y-86.21
X98.297Y-93.83
X102.81Y-74.32
X104.0Y-77.95
X104.0Y-80.49
X104.0Y-83.03
X104.12Y-86.21
X104.12Y-93.83
X105.43Y-74.32
X110.43Y-74.32
T3
X85.645Y-60.125
X86.661Y-61.905
X87.677Y-60.125
X88.693Y-61.905
X89.709Y-60.125
X90.725Y-61.905
X91.741Y-60.125
X92.757Y-61.905
T4
X114.097Y-80.525
X114.097Y-85.025
X114.097Y-93.882
X114.097Y-98.382
X114.097Y-107.238
X114.097Y-111.738
X114.097Y-120.595
X114.097Y-125.095
T5
X81.57Y-116.0
X81.57Y-118.54
X81.57Y-121.08
X81.57Y-123.62
X81.57Y-126.16
X81.57Y-128.7
X81.57Y-131.24
X81.57Y-133.78
X81.57Y-136.32
X81.57Y-138.86
X81.57Y-141.4
X81.57Y-143.94
X81.57Y-146.48
X81.57Y-149.02
X81.57Y-151.56
X96.81Y-116.0
X96.81Y-118.54
X96.81Y-121.08
X96.81Y-123.62
X96.81Y-126.16
X96.81Y-128.7
X96.81Y-131.24
X96.81Y-133.78
X96.81Y-136.32
X96.81Y-138.86
X96.81Y-141.4
X96.81Y-143.94
X96.81Y-146.48
X96.81Y-149.02
X96.81Y-151.56
T6
X73.49Y-98.81
X73.49Y-101.35
X73.49Y-103.89
X73.49Y-106.43
X73.49Y-108.97
X73.49Y-111.51
X73.49Y-114.05
X73.49Y-116.59
X73.49Y-119.13
X73.49Y-121.67
X73.49Y-124.21
X73.49Y-126.75
X73.49Y-129.29
X73.49Y-131.83
X73.49Y-134.37
X73.49Y-136.91
T7
X102.47Y-134.045
X111.608Y-79.275
X111.608Y-86.285
X111.608Y-92.632
X111.608Y-99.642
X111.608Y-105.988
X111.608Y-112.998
X111.608Y-119.345
X111.608Y-126.355
X112.47Y-131.545
X112.47Y-136.545
T8
X81.075Y-61.015
X97.335Y-61.015
T9
X73.49Y-67.41
X73.49Y-142.409
X104.491Y-67.411
X104.491Y-142.409
M30
